G04*
G04 #@! TF.GenerationSoftware,Altium Limited,Altium Designer,19.1.8 (144)*
G04*
G04 Layer_Color=65535*
%FSLAX25Y25*%
%MOIN*%
G70*
G01*
G75*
%ADD10C,0.00984*%
%ADD11C,0.00394*%
%ADD12C,0.02362*%
%ADD13C,0.01181*%
%ADD14C,0.01000*%
%ADD15C,0.04500*%
%ADD16C,0.00787*%
%ADD17C,0.01200*%
%ADD18C,0.00600*%
%ADD19C,0.02000*%
%ADD20C,0.02500*%
%ADD21C,0.00800*%
%ADD22C,0.01500*%
%ADD23R,0.09449X0.01968*%
D10*
X109406Y148685D02*
G03*
X109406Y148685I-492J0D01*
G01*
X351976Y278992D02*
G03*
X351976Y278992I-492J0D01*
G01*
X171925Y252386D02*
G03*
X171925Y252386I-492J0D01*
G01*
X313106Y288992D02*
G03*
X313106Y288992I-492J0D01*
G01*
X262106D02*
G03*
X262106Y288992I-492J0D01*
G01*
X208106D02*
G03*
X208106Y288992I-492J0D01*
G01*
D11*
X209488Y129724D02*
G03*
X209488Y129724I-197J0D01*
G01*
D12*
X178126Y260653D02*
G03*
X178126Y260653I-1181J0D01*
G01*
X305528Y294898D02*
G03*
X305528Y294898I-1181J0D01*
G01*
X254528D02*
G03*
X254528Y294898I-1181J0D01*
G01*
X200528D02*
G03*
X200528Y294898I-1181J0D01*
G01*
D13*
X114591Y337000D02*
G03*
X114591Y337000I-591J0D01*
G01*
D14*
X350000Y135000D02*
G03*
X342000Y135000I-4000J0D01*
G01*
Y119708D02*
G03*
X350000Y119708I4000J-6708D01*
G01*
X132049Y340094D02*
Y351905D01*
X121638Y353500D02*
X126362D01*
X115951Y340094D02*
Y351905D01*
X121638Y338500D02*
X126362D01*
X132283Y151102D02*
Y157402D01*
Y151102D02*
X145276D01*
X158661D02*
X340945Y151496D01*
X162598Y187716D02*
X337008D01*
X351575D02*
X368504D01*
Y181811D02*
Y187716D01*
X355906Y151496D02*
X368504D01*
Y171181D01*
X132283Y182205D02*
Y187716D01*
X149606D01*
X308701Y345315D02*
Y384685D01*
X271299Y345315D02*
Y384685D01*
X268701Y345315D02*
Y384685D01*
X231299Y345315D02*
Y384685D01*
X228701Y345315D02*
Y384685D01*
X191299Y345315D02*
Y384685D01*
X360287Y366500D02*
Y368000D01*
Y369500D01*
X135098Y128039D02*
X146909D01*
X135098Y107961D02*
X146909D01*
X173287D02*
X185098D01*
X173287Y128039D02*
X185098D01*
Y107961D02*
Y128039D01*
X135098Y107961D02*
Y128039D01*
X100252Y368473D02*
Y407842D01*
Y368473D02*
X131748D01*
X100252Y407842D02*
X131748D01*
Y368473D02*
Y407842D01*
X100252Y388158D02*
X104189D01*
X342000Y119708D02*
Y135000D01*
X350000Y119708D02*
Y135000D01*
X120666Y414332D02*
X119999Y414999D01*
X118667D01*
X118000Y414332D01*
Y411666D01*
X118667Y411000D01*
X119999D01*
X120666Y411666D01*
X123998Y414999D02*
X122665D01*
X121999Y414332D01*
Y411666D01*
X122665Y411000D01*
X123998D01*
X124664Y411666D01*
Y414332D01*
X123998Y414999D01*
X125997Y411000D02*
Y414999D01*
X128663Y411000D01*
Y414999D01*
X129996Y411000D02*
X131329D01*
X130663D01*
Y414999D01*
X129996Y414332D01*
X110000Y167999D02*
Y164666D01*
X110667Y164000D01*
X111999D01*
X112666Y164666D01*
Y167999D01*
X116665D02*
X115332Y167332D01*
X113999Y165999D01*
Y164666D01*
X114665Y164000D01*
X115998D01*
X116665Y164666D01*
Y165333D01*
X115998Y165999D01*
X113999D01*
X176666Y134332D02*
X175999Y134999D01*
X174667D01*
X174000Y134332D01*
Y131667D01*
X174667Y131000D01*
X175999D01*
X176666Y131667D01*
X179998Y134999D02*
X178665D01*
X177999Y134332D01*
Y131667D01*
X178665Y131000D01*
X179998D01*
X180665Y131667D01*
Y134332D01*
X179998Y134999D01*
X181997Y131000D02*
Y134999D01*
X184663Y131000D01*
Y134999D01*
X188662Y131000D02*
X185996D01*
X188662Y133666D01*
Y134332D01*
X187996Y134999D01*
X186663D01*
X185996Y134332D01*
X132622Y190732D02*
Y194731D01*
X134621D01*
X135288Y194064D01*
Y192732D01*
X134621Y192065D01*
X132622D01*
X138620Y194731D02*
X137287D01*
X136621Y194064D01*
Y191399D01*
X137287Y190732D01*
X138620D01*
X139287Y191399D01*
Y194064D01*
X138620Y194731D01*
X140620D02*
X143285D01*
X141952D01*
Y190732D01*
X144618D02*
X145951D01*
X145285D01*
Y194731D01*
X144618Y194064D01*
X212000Y136999D02*
Y133667D01*
X212666Y133000D01*
X213999D01*
X214666Y133667D01*
Y136999D01*
X217998Y133000D02*
Y136999D01*
X215999Y134999D01*
X218665D01*
X202166Y113332D02*
X201499Y113999D01*
X200167D01*
X199500Y113332D01*
Y110667D01*
X200167Y110000D01*
X201499D01*
X202166Y110667D01*
X206165Y113999D02*
X203499D01*
Y111999D01*
X204832Y112666D01*
X205498D01*
X206165Y111999D01*
Y110667D01*
X205498Y110000D01*
X204165D01*
X203499Y110667D01*
X192000Y322500D02*
Y326499D01*
X193333Y325166D01*
X194666Y326499D01*
Y322500D01*
X195999D02*
X197332D01*
X196665D01*
Y326499D01*
X195999Y325832D01*
X199331Y322500D02*
Y325166D01*
X200664Y326499D01*
X201997Y325166D01*
Y322500D01*
Y324499D01*
X199331D01*
X232000Y322500D02*
Y326499D01*
X233333Y325166D01*
X234666Y326499D01*
Y322500D01*
X235999D02*
X237332D01*
X236665D01*
Y326499D01*
X235999Y325832D01*
X239331Y326499D02*
Y322500D01*
X241330D01*
X241997Y323166D01*
Y323833D01*
X241330Y324499D01*
X239331D01*
X241330D01*
X241997Y325166D01*
Y325832D01*
X241330Y326499D01*
X239331D01*
X271500Y322000D02*
Y325999D01*
X272833Y324666D01*
X274166Y325999D01*
Y322000D01*
X275499D02*
X276832D01*
X276165D01*
Y325999D01*
X275499Y325332D01*
X281497D02*
X280830Y325999D01*
X279497D01*
X278831Y325332D01*
Y322666D01*
X279497Y322000D01*
X280830D01*
X281497Y322666D01*
X151000Y343999D02*
X153666D01*
X152333D01*
Y340000D01*
X157665Y343332D02*
X156998Y343999D01*
X155665D01*
X154999Y343332D01*
Y340666D01*
X155665Y340000D01*
X156998D01*
X157665Y340666D01*
Y341999D01*
X156332D01*
X161663Y340000D02*
X158997D01*
X161663Y342666D01*
Y343332D01*
X160997Y343999D01*
X159664D01*
X158997Y343332D01*
X349000Y298999D02*
X351666D01*
X350333D01*
Y295000D01*
X355664Y298332D02*
X354998Y298999D01*
X353665D01*
X352999Y298332D01*
Y295666D01*
X353665Y295000D01*
X354998D01*
X355664Y295666D01*
Y296999D01*
X354332D01*
X356997Y298332D02*
X357664Y298999D01*
X358997D01*
X359663Y298332D01*
Y297666D01*
X358997Y296999D01*
X358330D01*
X358997D01*
X359663Y296333D01*
Y295666D01*
X358997Y295000D01*
X357664D01*
X356997Y295666D01*
X253000Y264999D02*
X255666D01*
X254333D01*
Y261000D01*
X259665Y264332D02*
X258998Y264999D01*
X257665D01*
X256999Y264332D01*
Y261666D01*
X257665Y261000D01*
X258998D01*
X259665Y261666D01*
Y262999D01*
X258332D01*
X260997Y261000D02*
X262330D01*
X261664D01*
Y264999D01*
X260997Y264332D01*
X151000Y379999D02*
X153666D01*
X152333D01*
Y376000D01*
X154999D02*
Y379999D01*
X156998D01*
X157665Y379332D01*
Y377999D01*
X156998Y377333D01*
X154999D01*
X158997Y376000D02*
X160330D01*
X159664D01*
Y379999D01*
X158997Y379332D01*
X236000Y231999D02*
X238666D01*
X237333D01*
Y228000D01*
X239999D02*
Y231999D01*
X241998D01*
X242665Y231332D01*
Y229999D01*
X241998Y229333D01*
X239999D01*
X246663Y228000D02*
X243997D01*
X246663Y230666D01*
Y231332D01*
X245997Y231999D01*
X244664D01*
X243997Y231332D01*
X151000Y360999D02*
X153666D01*
X152333D01*
Y357000D01*
X154999D02*
Y360999D01*
X156998D01*
X157665Y360332D01*
Y358999D01*
X156998Y358333D01*
X154999D01*
X158997Y360332D02*
X159664Y360999D01*
X160997D01*
X161663Y360332D01*
Y359666D01*
X160997Y358999D01*
X160330D01*
X160997D01*
X161663Y358333D01*
Y357666D01*
X160997Y357000D01*
X159664D01*
X158997Y357666D01*
X151000Y324999D02*
X153666D01*
X152333D01*
Y321000D01*
X154999D02*
Y324999D01*
X156998D01*
X157665Y324332D01*
Y322999D01*
X156998Y322333D01*
X154999D01*
X160997Y321000D02*
Y324999D01*
X158997Y322999D01*
X161663D01*
X144000Y252999D02*
X146666D01*
X145333D01*
Y249000D01*
X147999D02*
Y252999D01*
X149998D01*
X150664Y252332D01*
Y250999D01*
X149998Y250333D01*
X147999D01*
X154663Y252999D02*
X151997D01*
Y250999D01*
X153330Y251666D01*
X153997D01*
X154663Y250999D01*
Y249666D01*
X153997Y249000D01*
X152664D01*
X151997Y249666D01*
X144000Y261999D02*
X146666D01*
X145333D01*
Y258000D01*
X147999D02*
Y261999D01*
X149998D01*
X150664Y261332D01*
Y259999D01*
X149998Y259333D01*
X147999D01*
X154663Y261999D02*
X153330Y261332D01*
X151997Y259999D01*
Y258666D01*
X152664Y258000D01*
X153997D01*
X154663Y258666D01*
Y259333D01*
X153997Y259999D01*
X151997D01*
X381000Y298999D02*
X383666D01*
X382333D01*
Y295000D01*
X384999D02*
Y298999D01*
X386998D01*
X387665Y298332D01*
Y296999D01*
X386998Y296333D01*
X384999D01*
X388997Y298332D02*
X389664Y298999D01*
X390997D01*
X391663Y298332D01*
Y297666D01*
X390997Y296999D01*
X391663Y296333D01*
Y295666D01*
X390997Y295000D01*
X389664D01*
X388997Y295666D01*
Y296333D01*
X389664Y296999D01*
X388997Y297666D01*
Y298332D01*
X389664Y296999D02*
X390997D01*
X329000Y257999D02*
X331666D01*
X330333D01*
Y254000D01*
X332999D02*
Y257999D01*
X334998D01*
X335665Y257332D01*
Y255999D01*
X334998Y255333D01*
X332999D01*
X336997Y257999D02*
X339663D01*
Y257332D01*
X336997Y254666D01*
Y254000D01*
X253000Y251999D02*
X255666D01*
X254333D01*
Y248000D01*
X256999D02*
Y251999D01*
X258998D01*
X259665Y251332D01*
Y249999D01*
X258998Y249333D01*
X256999D01*
X260997Y248666D02*
X261664Y248000D01*
X262997D01*
X263663Y248666D01*
Y251332D01*
X262997Y251999D01*
X261664D01*
X260997Y251332D01*
Y250666D01*
X261664Y249999D01*
X263663D01*
X214666Y231332D02*
X213999Y231999D01*
X212666D01*
X212000Y231332D01*
Y228666D01*
X212666Y228000D01*
X213999D01*
X214666Y228666D01*
X215999Y231332D02*
X216665Y231999D01*
X217998D01*
X218665Y231332D01*
Y230666D01*
X217998Y229999D01*
X217332D01*
X217998D01*
X218665Y229333D01*
Y228666D01*
X217998Y228000D01*
X216665D01*
X215999Y228666D01*
X149000Y269425D02*
Y273424D01*
X150999D01*
X151666Y272758D01*
Y271425D01*
X150999Y270758D01*
X149000D01*
X150333D02*
X151666Y269425D01*
X155665Y273424D02*
X154332Y272758D01*
X152999Y271425D01*
Y270092D01*
X153665Y269425D01*
X154998D01*
X155665Y270092D01*
Y270758D01*
X154998Y271425D01*
X152999D01*
X149000Y277425D02*
Y281424D01*
X150999D01*
X151666Y280757D01*
Y279425D01*
X150999Y278758D01*
X149000D01*
X150333D02*
X151666Y277425D01*
X152999Y281424D02*
X155665D01*
Y280757D01*
X152999Y278092D01*
Y277425D01*
X227666Y243332D02*
X226999Y243999D01*
X225666D01*
X225000Y243332D01*
Y240666D01*
X225666Y240000D01*
X226999D01*
X227666Y240666D01*
X228999Y240000D02*
X230332D01*
X229665D01*
Y243999D01*
X228999Y243332D01*
X232331D02*
X232997Y243999D01*
X234330D01*
X234997Y243332D01*
Y240666D01*
X234330Y240000D01*
X232997D01*
X232331Y240666D01*
Y243332D01*
X226000Y248000D02*
Y251999D01*
X227999D01*
X228666Y251332D01*
Y249999D01*
X227999Y249333D01*
X226000D01*
X227333D02*
X228666Y248000D01*
X229999D02*
X231332D01*
X230665D01*
Y251999D01*
X229999Y251332D01*
X233331Y248000D02*
X234664D01*
X233997D01*
Y251999D01*
X233331Y251332D01*
X226000Y256000D02*
Y259999D01*
X227999D01*
X228666Y259332D01*
Y257999D01*
X227999Y257333D01*
X226000D01*
X227333D02*
X228666Y256000D01*
X229999D02*
X231332D01*
X230665D01*
Y259999D01*
X229999Y259332D01*
X233331D02*
X233997Y259999D01*
X235330D01*
X235997Y259332D01*
Y256666D01*
X235330Y256000D01*
X233997D01*
X233331Y256666D01*
Y259332D01*
X226000Y264000D02*
Y267999D01*
X227999D01*
X228666Y267332D01*
Y265999D01*
X227999Y265333D01*
X226000D01*
X227333D02*
X228666Y264000D01*
X229999Y264666D02*
X230665Y264000D01*
X231998D01*
X232664Y264666D01*
Y267332D01*
X231998Y267999D01*
X230665D01*
X229999Y267332D01*
Y266666D01*
X230665Y265999D01*
X232664D01*
X381666Y244332D02*
X380999Y244999D01*
X379666D01*
X379000Y244332D01*
Y241666D01*
X379666Y241000D01*
X380999D01*
X381666Y241666D01*
X382999D02*
X383665Y241000D01*
X384998D01*
X385665Y241666D01*
Y244332D01*
X384998Y244999D01*
X383665D01*
X382999Y244332D01*
Y243666D01*
X383665Y242999D01*
X385665D01*
X354666Y244332D02*
X353999Y244999D01*
X352666D01*
X352000Y244332D01*
Y241666D01*
X352666Y241000D01*
X353999D01*
X354666Y241666D01*
X355999Y244332D02*
X356665Y244999D01*
X357998D01*
X358664Y244332D01*
Y243666D01*
X357998Y242999D01*
X358664Y242333D01*
Y241666D01*
X357998Y241000D01*
X356665D01*
X355999Y241666D01*
Y242333D01*
X356665Y242999D01*
X355999Y243666D01*
Y244332D01*
X356665Y242999D02*
X357998D01*
X121000Y305000D02*
X117001D01*
Y306999D01*
X117668Y307666D01*
X119001D01*
X119667Y306999D01*
Y305000D01*
Y306333D02*
X121000Y307666D01*
Y311665D02*
Y308999D01*
X118334Y311665D01*
X117668D01*
X117001Y310998D01*
Y309665D01*
X117668Y308999D01*
X131000Y305000D02*
X127001D01*
Y306999D01*
X127668Y307666D01*
X129001D01*
X129667Y306999D01*
Y305000D01*
Y306333D02*
X131000Y307666D01*
X127668Y308999D02*
X127001Y309665D01*
Y310998D01*
X127668Y311665D01*
X128334D01*
X129001Y310998D01*
Y310332D01*
Y310998D01*
X129667Y311665D01*
X130333D01*
X131000Y310998D01*
Y309665D01*
X130333Y308999D01*
X188666Y231332D02*
X187999Y231999D01*
X186667D01*
X186000Y231332D01*
Y228666D01*
X186667Y228000D01*
X187999D01*
X188666Y228666D01*
X191998Y228000D02*
Y231999D01*
X189999Y229999D01*
X192665D01*
X188666Y238332D02*
X187999Y238999D01*
X186667D01*
X186000Y238332D01*
Y235666D01*
X186667Y235000D01*
X187999D01*
X188666Y235666D01*
X192665Y238999D02*
X191332Y238332D01*
X189999Y236999D01*
Y235666D01*
X190665Y235000D01*
X191998D01*
X192665Y235666D01*
Y236333D01*
X191998Y236999D01*
X189999D01*
X188666Y245332D02*
X187999Y245999D01*
X186667D01*
X186000Y245332D01*
Y242666D01*
X186667Y242000D01*
X187999D01*
X188666Y242666D01*
X189999Y245999D02*
X192665D01*
Y245332D01*
X189999Y242666D01*
Y242000D01*
X149000Y285425D02*
Y289424D01*
X150999D01*
X151666Y288757D01*
Y287424D01*
X150999Y286758D01*
X149000D01*
X150333D02*
X151666Y285425D01*
X152999Y288757D02*
X153665Y289424D01*
X154998D01*
X155665Y288757D01*
Y288091D01*
X154998Y287424D01*
X155665Y286758D01*
Y286092D01*
X154998Y285425D01*
X153665D01*
X152999Y286092D01*
Y286758D01*
X153665Y287424D01*
X152999Y288091D01*
Y288757D01*
X153665Y287424D02*
X154998D01*
X362575Y350000D02*
Y353999D01*
X364574D01*
X365241Y353332D01*
Y351999D01*
X364574Y351333D01*
X362575D01*
X363908D02*
X365241Y350000D01*
X369239Y353999D02*
X366574D01*
Y351999D01*
X367906Y352666D01*
X368573D01*
X369239Y351999D01*
Y350666D01*
X368573Y350000D01*
X367240D01*
X366574Y350666D01*
X362787Y358000D02*
Y361999D01*
X364787D01*
X365453Y361332D01*
Y359999D01*
X364787Y359333D01*
X362787D01*
X364120D02*
X365453Y358000D01*
X368786D02*
Y361999D01*
X366786Y359999D01*
X369452D01*
X363134Y369999D02*
Y366000D01*
X365800D01*
X369798Y369999D02*
X367133D01*
Y366000D01*
X369798D01*
X367133Y367999D02*
X368465D01*
X371131Y369999D02*
Y366000D01*
X373131D01*
X373797Y366666D01*
Y369332D01*
X373131Y369999D01*
X371131D01*
X375130Y366000D02*
X376463D01*
X375796D01*
Y369999D01*
X375130Y369332D01*
X163000Y261999D02*
Y258666D01*
X163666Y258000D01*
X164999D01*
X165666Y258666D01*
Y261999D01*
X166999Y261332D02*
X167665Y261999D01*
X168998D01*
X169665Y261332D01*
Y260666D01*
X168998Y259999D01*
X168332D01*
X168998D01*
X169665Y259333D01*
Y258666D01*
X168998Y258000D01*
X167665D01*
X166999Y258666D01*
X107000Y344999D02*
Y341666D01*
X107667Y341000D01*
X108999D01*
X109666Y341666D01*
Y344999D01*
X113664Y341000D02*
X110999D01*
X113664Y343666D01*
Y344332D01*
X112998Y344999D01*
X111665D01*
X110999Y344332D01*
X221666Y296332D02*
X220999Y296999D01*
X219666D01*
X219000Y296332D01*
Y293666D01*
X219666Y293000D01*
X220999D01*
X221666Y293666D01*
X222999Y293000D02*
X224332D01*
X223665D01*
Y296999D01*
X222999Y296332D01*
X226331Y296999D02*
Y293000D01*
X228330D01*
X228997Y293666D01*
Y294333D01*
X228330Y294999D01*
X226331D01*
X228330D01*
X228997Y295666D01*
Y296332D01*
X228330Y296999D01*
X226331D01*
X166000Y306000D02*
Y309999D01*
X167999D01*
X168666Y309332D01*
Y307999D01*
X167999Y307333D01*
X166000D01*
X167333D02*
X168666Y306000D01*
X169999D02*
X171332D01*
X170665D01*
Y309999D01*
X169999Y309332D01*
X173331Y306000D02*
Y308666D01*
X174664Y309999D01*
X175997Y308666D01*
Y306000D01*
Y307999D01*
X173331D01*
X274666Y296332D02*
X273999Y296999D01*
X272666D01*
X272000Y296332D01*
Y293666D01*
X272666Y293000D01*
X273999D01*
X274666Y293666D01*
X275999Y293000D02*
X277332D01*
X276665D01*
Y296999D01*
X275999Y296332D01*
X281997D02*
X281330Y296999D01*
X279997D01*
X279331Y296332D01*
Y293666D01*
X279997Y293000D01*
X281330D01*
X281997Y293666D01*
X304166Y409332D02*
X303499Y409999D01*
X302166D01*
X301500Y409332D01*
Y406666D01*
X302166Y406000D01*
X303499D01*
X304166Y406666D01*
X308165Y406000D02*
X305499D01*
X308165Y408666D01*
Y409332D01*
X307498Y409999D01*
X306165D01*
X305499Y409332D01*
X312163D02*
X311497Y409999D01*
X310164D01*
X309497Y409332D01*
Y406666D01*
X310164Y406000D01*
X311497D01*
X312163Y406666D01*
X264166Y409832D02*
X263499Y410499D01*
X262166D01*
X261500Y409832D01*
Y407166D01*
X262166Y406500D01*
X263499D01*
X264166Y407166D01*
X268164Y406500D02*
X265499D01*
X268164Y409166D01*
Y409832D01*
X267498Y410499D01*
X266165D01*
X265499Y409832D01*
X269497Y410499D02*
Y406500D01*
X271497D01*
X272163Y407166D01*
Y407833D01*
X271497Y408499D01*
X269497D01*
X271497D01*
X272163Y409166D01*
Y409832D01*
X271497Y410499D01*
X269497D01*
X193000Y287999D02*
Y284666D01*
X193667Y284000D01*
X194999D01*
X195666Y284666D01*
Y287999D01*
X196999Y284000D02*
X198332D01*
X197665D01*
Y287999D01*
X196999Y287332D01*
X200331Y284000D02*
Y286666D01*
X201664Y287999D01*
X202997Y286666D01*
Y284000D01*
Y285999D01*
X200331D01*
X247000Y287999D02*
Y284666D01*
X247666Y284000D01*
X248999D01*
X249666Y284666D01*
Y287999D01*
X250999Y284000D02*
X252332D01*
X251665D01*
Y287999D01*
X250999Y287332D01*
X254331Y287999D02*
Y284000D01*
X256330D01*
X256997Y284666D01*
Y285333D01*
X256330Y285999D01*
X254331D01*
X256330D01*
X256997Y286666D01*
Y287332D01*
X256330Y287999D01*
X254331D01*
X298000D02*
Y284666D01*
X298666Y284000D01*
X299999D01*
X300666Y284666D01*
Y287999D01*
X301999Y284000D02*
X303332D01*
X302665D01*
Y287999D01*
X301999Y287332D01*
X307997D02*
X307330Y287999D01*
X305997D01*
X305331Y287332D01*
Y284666D01*
X305997Y284000D01*
X307330D01*
X307997Y284666D01*
X223666Y409832D02*
X222999Y410499D01*
X221666D01*
X221000Y409832D01*
Y407166D01*
X221666Y406500D01*
X222999D01*
X223666Y407166D01*
X227664Y406500D02*
X224999D01*
X227664Y409166D01*
Y409832D01*
X226998Y410499D01*
X225665D01*
X224999Y409832D01*
X228997Y406500D02*
Y409166D01*
X230330Y410499D01*
X231663Y409166D01*
Y406500D01*
Y408499D01*
X228997D01*
X272350Y307250D02*
Y311249D01*
X274349D01*
X275016Y310582D01*
Y309249D01*
X274349Y308583D01*
X272350D01*
X273683D02*
X275016Y307250D01*
X276349D02*
X277682D01*
X277015D01*
Y311249D01*
X276349Y310582D01*
X282347D02*
X281680Y311249D01*
X280347D01*
X279681Y310582D01*
Y307916D01*
X280347Y307250D01*
X281680D01*
X282347Y307916D01*
X219350Y307250D02*
Y311249D01*
X221349D01*
X222016Y310582D01*
Y309249D01*
X221349Y308583D01*
X219350D01*
X220683D02*
X222016Y307250D01*
X223349D02*
X224682D01*
X224015D01*
Y311249D01*
X223349Y310582D01*
X226681Y311249D02*
Y307250D01*
X228680D01*
X229347Y307916D01*
Y308583D01*
X228680Y309249D01*
X226681D01*
X228680D01*
X229347Y309916D01*
Y310582D01*
X228680Y311249D01*
X226681D01*
X168066Y295632D02*
X167399Y296299D01*
X166067D01*
X165400Y295632D01*
Y292966D01*
X166067Y292300D01*
X167399D01*
X168066Y292966D01*
X169399Y292300D02*
X170732D01*
X170065D01*
Y296299D01*
X169399Y295632D01*
X172731Y292300D02*
Y294966D01*
X174064Y296299D01*
X175397Y294966D01*
Y292300D01*
Y294299D01*
X172731D01*
X388166Y199732D02*
X387499Y200399D01*
X386166D01*
X385500Y199732D01*
Y199066D01*
X386166Y198399D01*
X387499D01*
X388166Y197733D01*
Y197066D01*
X387499Y196400D01*
X386166D01*
X385500Y197066D01*
X389499Y200399D02*
Y196400D01*
X390832Y197733D01*
X392164Y196400D01*
Y200399D01*
X393497Y196400D02*
X394830D01*
X394164D01*
Y200399D01*
X393497Y199732D01*
X347150Y287249D02*
Y283916D01*
X347816Y283250D01*
X349149D01*
X349816Y283916D01*
Y287249D01*
X353815D02*
X351149D01*
Y285249D01*
X352482Y285916D01*
X353148D01*
X353815Y285249D01*
Y283916D01*
X353148Y283250D01*
X351815D01*
X351149Y283916D01*
D15*
X348000Y113000D02*
G03*
X348000Y113000I-2000J0D01*
G01*
D16*
X122102Y152228D02*
Y155772D01*
X109898Y152228D02*
Y155772D01*
X122102D01*
X109898Y152228D02*
X122102D01*
X356898Y252811D02*
X369102D01*
X356898Y279189D02*
X369102D01*
Y252811D02*
Y279189D01*
X356898Y252811D02*
Y279189D01*
X217933Y120276D02*
X219134D01*
X210866D02*
X212067D01*
X217933Y129724D02*
X219134D01*
X210866D02*
X212067D01*
X173008Y256716D02*
X198992D01*
X173008Y271284D02*
X198992D01*
X173008Y256716D02*
Y271284D01*
X198992Y256716D02*
Y271284D01*
X293717Y311039D02*
X308283D01*
X293717Y290961D02*
X308283D01*
X293717D02*
Y311039D01*
X308283Y290961D02*
Y311039D01*
X242717D02*
X257283D01*
X242717Y290961D02*
X257283D01*
X242717D02*
Y311039D01*
X257283Y290961D02*
Y311039D01*
X188716D02*
X203284D01*
X188716Y290961D02*
X203284D01*
X188716D02*
Y311039D01*
X203284Y290961D02*
Y311039D01*
D17*
X217000Y248500D02*
Y251500D01*
Y256500D02*
Y259500D01*
Y264500D02*
Y267500D01*
X140000Y285925D02*
Y288925D01*
Y277925D02*
Y280925D01*
Y269925D02*
Y272925D01*
X353575Y350500D02*
Y353500D01*
X353787Y358500D02*
Y361500D01*
X127500Y320000D02*
X130500D01*
X117500D02*
X120500D01*
X277000Y300500D02*
Y303500D01*
X224000Y300500D02*
Y303500D01*
X170000Y299500D02*
Y302500D01*
X353787Y368000D02*
Y369500D01*
Y366500D02*
Y368000D01*
X217000Y240500D02*
Y243500D01*
X371000Y241500D02*
Y244500D01*
X344000Y241500D02*
Y244500D01*
X178000Y242500D02*
Y245500D01*
Y235500D02*
Y238500D01*
X214500Y110500D02*
Y113500D01*
X178000Y228500D02*
Y231500D01*
X204000Y228500D02*
Y231500D01*
X293000Y406500D02*
Y409500D01*
X253500Y406500D02*
Y409500D01*
X213500Y407000D02*
Y410000D01*
X277000Y286500D02*
Y289500D01*
X224000Y286500D02*
Y289500D01*
X170000Y285500D02*
Y288500D01*
X321866Y119782D02*
X319116D01*
X318200Y118866D01*
Y117033D01*
X319116Y116116D01*
X321866D01*
X324615D02*
X326447D01*
X327364Y117033D01*
Y118866D01*
X326447Y119782D01*
X324615D01*
X323698Y118866D01*
Y117033D01*
X324615Y116116D01*
X329196D02*
Y119782D01*
X330113D01*
X331029Y118866D01*
Y116116D01*
Y118866D01*
X331946Y119782D01*
X332862Y118866D01*
Y116116D01*
X291449D02*
X289616D01*
X288700Y117033D01*
Y118866D01*
X289616Y119782D01*
X291449D01*
X292366Y118866D01*
Y117949D01*
X288700D01*
X294198Y119782D02*
Y116116D01*
Y117949D01*
X295115Y118866D01*
X296031Y119782D01*
X296947D01*
X241700Y116200D02*
Y121698D01*
X245366Y116200D01*
Y121698D01*
X248115Y119866D02*
X249947D01*
X250864Y118949D01*
Y116200D01*
X248115D01*
X247198Y117116D01*
X248115Y118033D01*
X250864D01*
X253613Y120782D02*
Y119866D01*
X252696D01*
X254529D01*
X253613D01*
Y117116D01*
X254529Y116200D01*
X257278Y121698D02*
Y116200D01*
Y118949D01*
X258195Y119866D01*
X260027D01*
X260944Y118949D01*
Y116200D01*
X263693Y119866D02*
X265526D01*
X266442Y118949D01*
Y116200D01*
X263693D01*
X262776Y117116D01*
X263693Y118033D01*
X266442D01*
X268275Y116200D02*
Y119866D01*
X271024D01*
X271940Y118949D01*
Y116200D01*
X273773D02*
Y121698D01*
X276522D01*
X277438Y120782D01*
Y118949D01*
X276522Y118033D01*
X273773D01*
X282020Y116200D02*
X280188D01*
X279271Y117116D01*
Y118949D01*
X280188Y119866D01*
X282020D01*
X282937Y118949D01*
Y118033D01*
X279271D01*
X285686Y120782D02*
Y119866D01*
X284769D01*
X286602D01*
X285686D01*
Y117116D01*
X286602Y116200D01*
X298700Y116116D02*
X301449D01*
X302365Y117033D01*
X301449Y117949D01*
X299616D01*
X298700Y118866D01*
X299616Y119782D01*
X302365D01*
X306947Y116116D02*
X305115D01*
X304198Y117033D01*
Y118866D01*
X305115Y119782D01*
X306947D01*
X307864Y118866D01*
Y117949D01*
X304198D01*
X309696Y116116D02*
Y119782D01*
X312446D01*
X313362Y118866D01*
Y116116D01*
X315195D02*
Y117033D01*
X316111D01*
Y116116D01*
X315195D01*
D18*
X348500Y133000D02*
X350000D01*
X348500Y121000D02*
X350000D01*
X348500Y123000D02*
X350000D01*
X348500Y125000D02*
X350000D01*
X348500Y127000D02*
X350000D01*
X348500Y129000D02*
X350000D01*
X348500Y131000D02*
X350000D01*
D19*
X346000Y113000D02*
Y131000D01*
D20*
X281487Y137829D02*
X288152D01*
X284819D01*
Y127832D01*
X291484Y137829D02*
Y127832D01*
Y132831D01*
X293150Y134497D01*
X296482D01*
X298148Y132831D01*
Y127832D01*
X306479D02*
X303147D01*
X301481Y129498D01*
Y132831D01*
X303147Y134497D01*
X306479D01*
X308145Y132831D01*
Y131165D01*
X301481D01*
X311477Y134497D02*
Y127832D01*
Y131165D01*
X313143Y132831D01*
X314810Y134497D01*
X316476D01*
X319474Y127832D02*
Y134497D01*
X321140D01*
X322806Y132831D01*
Y127832D01*
Y132831D01*
X324472Y134497D01*
X326139Y132831D01*
Y127832D01*
X331137D02*
X334469D01*
X336135Y129498D01*
Y132831D01*
X334469Y134497D01*
X331137D01*
X329471Y132831D01*
Y129498D01*
X331137Y127832D01*
D21*
X287200Y107700D02*
Y111699D01*
X289199D01*
X289866Y111032D01*
Y109699D01*
X289199Y109033D01*
X287200D01*
X288533D02*
X289866Y107700D01*
X293864Y111699D02*
X291199D01*
Y107700D01*
X293864D01*
X291199Y109699D02*
X292532D01*
X295197Y111699D02*
Y109033D01*
X296530Y107700D01*
X297863Y109033D01*
Y111699D01*
X301862Y107700D02*
X299196D01*
X301862Y110366D01*
Y111032D01*
X301196Y111699D01*
X299863D01*
X299196Y111032D01*
X303195D02*
X303861Y111699D01*
X305194D01*
X305861Y111032D01*
Y108367D01*
X305194Y107700D01*
X303861D01*
X303195Y108367D01*
Y111032D01*
X309859Y107700D02*
X307194D01*
X309859Y110366D01*
Y111032D01*
X309193Y111699D01*
X307860D01*
X307194Y111032D01*
X311192D02*
X311859Y111699D01*
X313192D01*
X313858Y111032D01*
Y108367D01*
X313192Y107700D01*
X311859D01*
X311192Y108367D01*
Y111032D01*
X315191Y107700D02*
X316524D01*
X315857D01*
Y111699D01*
X315191Y111032D01*
X318523D02*
X319190Y111699D01*
X320523D01*
X321189Y111032D01*
Y108367D01*
X320523Y107700D01*
X319190D01*
X318523Y108367D01*
Y111032D01*
X322522D02*
X323188Y111699D01*
X324521D01*
X325188Y111032D01*
Y108367D01*
X324521Y107700D01*
X323188D01*
X322522Y108367D01*
Y111032D01*
X328520Y107700D02*
Y111699D01*
X326521Y109699D01*
X329187D01*
X330519Y107700D02*
Y110366D01*
X331852Y111699D01*
X333185Y110366D01*
Y107700D01*
Y109699D01*
X330519D01*
D22*
X245166Y127432D02*
X248498D01*
X250165Y129098D01*
Y132431D01*
X248498Y134097D01*
X245166D01*
X243500Y132431D01*
Y129098D01*
X245166Y127432D01*
X253497Y124100D02*
Y134097D01*
X258495D01*
X260161Y132431D01*
Y129098D01*
X258495Y127432D01*
X253497D01*
X268492D02*
X265160D01*
X263493Y129098D01*
Y132431D01*
X265160Y134097D01*
X268492D01*
X270158Y132431D01*
Y130764D01*
X263493D01*
X273490Y127432D02*
Y134097D01*
X278489D01*
X280155Y132431D01*
Y127432D01*
D23*
X160000Y103630D02*
D03*
M02*
