G04*
G04 #@! TF.GenerationSoftware,Altium Limited,Altium Designer,19.1.8 (144)*
G04*
G04 Layer_Physical_Order=2*
G04 Layer_Color=16711680*
%FSLAX25Y25*%
%MOIN*%
G70*
G01*
G75*
%ADD14C,0.01000*%
%ADD18C,0.00600*%
%ADD19C,0.02000*%
%ADD57C,0.04331*%
%ADD58C,0.07874*%
%ADD59C,0.09843*%
%ADD60C,0.27559*%
%ADD61R,0.07874X0.07874*%
%ADD62C,0.02800*%
G36*
X112086Y449500D02*
X110419Y449100D01*
X108270Y448209D01*
X106286Y446994D01*
X104517Y445483D01*
X103006Y443714D01*
X101791Y441730D01*
X100900Y439581D01*
X100500Y437914D01*
X100000Y437973D01*
Y450000D01*
X112027D01*
X112086Y449500D01*
D02*
G37*
G36*
X400000Y437973D02*
X399500Y437914D01*
X399100Y439581D01*
X398209Y441730D01*
X396994Y443714D01*
X395483Y445483D01*
X393714Y446994D01*
X391730Y448209D01*
X389581Y449100D01*
X387914Y449500D01*
X387973Y450000D01*
X400000D01*
Y437973D01*
D02*
G37*
G36*
X382086Y449500D02*
X380419Y449100D01*
X378270Y448209D01*
X376286Y446994D01*
X374517Y445483D01*
X373006Y443714D01*
X371791Y441730D01*
X370900Y439581D01*
X370357Y437319D01*
X370214Y435500D01*
X385000D01*
Y435000D01*
X385500D01*
Y420214D01*
X387319Y420357D01*
X389581Y420900D01*
X391730Y421791D01*
X393714Y423006D01*
X395483Y424517D01*
X396994Y426286D01*
X398209Y428269D01*
X399100Y430419D01*
X399500Y432086D01*
X400000Y432027D01*
Y117973D01*
X399500Y117914D01*
X399100Y119581D01*
X398209Y121730D01*
X396994Y123714D01*
X395483Y125483D01*
X393714Y126994D01*
X391730Y128209D01*
X389581Y129100D01*
X387319Y129643D01*
X385500Y129786D01*
Y115000D01*
X385000D01*
Y114500D01*
X370214D01*
X370357Y112681D01*
X370900Y110419D01*
X371791Y108270D01*
X373006Y106286D01*
X374517Y104517D01*
X376286Y103006D01*
X378270Y101791D01*
X380419Y100900D01*
X382086Y100500D01*
X382027Y100000D01*
X360649D01*
X360649Y145000D01*
X360459Y145459D01*
X360000Y145649D01*
X227162Y145649D01*
X227003Y146149D01*
X227384Y146720D01*
X227539Y147500D01*
X227384Y148280D01*
X226942Y148942D01*
X226280Y149384D01*
X225500Y149539D01*
X224720Y149384D01*
X224058Y148942D01*
X223616Y148280D01*
X223461Y147500D01*
X223616Y146720D01*
X223997Y146149D01*
X223838Y145649D01*
X195000D01*
X194541Y145459D01*
X194351Y145000D01*
X194351Y100000D01*
X117973D01*
X117914Y100500D01*
X119581Y100900D01*
X121730Y101791D01*
X123714Y103006D01*
X125483Y104517D01*
X126994Y106286D01*
X128209Y108270D01*
X129100Y110419D01*
X129643Y112681D01*
X129786Y114500D01*
X115000D01*
Y115000D01*
X114500D01*
Y129786D01*
X112681Y129643D01*
X110419Y129100D01*
X108270Y128209D01*
X106286Y126994D01*
X104517Y125483D01*
X103006Y123714D01*
X101791Y121730D01*
X100900Y119581D01*
X100500Y117914D01*
X100000Y117973D01*
Y432027D01*
X100500Y432086D01*
X100900Y430419D01*
X101791Y428269D01*
X103006Y426286D01*
X104517Y424517D01*
X106286Y423006D01*
X108270Y421791D01*
X110419Y420900D01*
X112681Y420357D01*
X114500Y420214D01*
Y435000D01*
X115000D01*
Y435500D01*
X129786D01*
X129643Y437319D01*
X129100Y439581D01*
X128209Y441730D01*
X126994Y443714D01*
X125483Y445483D01*
X123714Y446994D01*
X121730Y448209D01*
X119581Y449100D01*
X117914Y449500D01*
X117973Y450000D01*
X382027D01*
X382086Y449500D01*
D02*
G37*
G36*
X400000Y112027D02*
Y100000D01*
X387973D01*
X387914Y100500D01*
X389581Y100900D01*
X391730Y101791D01*
X393714Y103006D01*
X395483Y104517D01*
X396994Y106286D01*
X398209Y108270D01*
X399100Y110419D01*
X399500Y112086D01*
X400000Y112027D01*
D02*
G37*
G36*
X100900Y110419D02*
X101791Y108270D01*
X103006Y106286D01*
X104517Y104517D01*
X106286Y103006D01*
X108270Y101791D01*
X110419Y100900D01*
X112086Y100500D01*
X112027Y100000D01*
X100000D01*
Y112027D01*
X100500Y112086D01*
X100900Y110419D01*
D02*
G37*
%LPC*%
G36*
X178000Y440426D02*
Y436012D01*
X182414D01*
X182310Y436801D01*
X181813Y438002D01*
X181021Y439033D01*
X179990Y439824D01*
X178789Y440322D01*
X178000Y440426D01*
D02*
G37*
G36*
X177000D02*
X176211Y440322D01*
X175010Y439824D01*
X173979Y439033D01*
X173187Y438002D01*
X172690Y436801D01*
X172586Y436012D01*
X177000D01*
Y440426D01*
D02*
G37*
G36*
X143000D02*
Y436012D01*
X147414D01*
X147310Y436801D01*
X146812Y438002D01*
X146021Y439033D01*
X144990Y439824D01*
X143789Y440322D01*
X143000Y440426D01*
D02*
G37*
G36*
X142000D02*
X141211Y440322D01*
X140010Y439824D01*
X138979Y439033D01*
X138188Y438002D01*
X137690Y436801D01*
X137586Y436012D01*
X142000D01*
Y440426D01*
D02*
G37*
G36*
X357500Y440088D02*
X356316Y439932D01*
X355212Y439475D01*
X354264Y438748D01*
X353537Y437800D01*
X353080Y436696D01*
X352924Y435512D01*
X353080Y434327D01*
X353537Y433224D01*
X354264Y432276D01*
X355212Y431549D01*
X356316Y431092D01*
X357500Y430936D01*
X358684Y431092D01*
X359788Y431549D01*
X360736Y432276D01*
X361463Y433224D01*
X361920Y434327D01*
X362076Y435512D01*
X361920Y436696D01*
X361463Y437800D01*
X360736Y438748D01*
X359788Y439475D01*
X358684Y439932D01*
X357500Y440088D01*
D02*
G37*
G36*
X322500D02*
X321316Y439932D01*
X320212Y439475D01*
X319264Y438748D01*
X318537Y437800D01*
X318080Y436696D01*
X317924Y435512D01*
X318080Y434327D01*
X318537Y433224D01*
X319264Y432276D01*
X320212Y431549D01*
X321316Y431092D01*
X322500Y430936D01*
X323684Y431092D01*
X324788Y431549D01*
X325736Y432276D01*
X326463Y433224D01*
X326920Y434327D01*
X327076Y435512D01*
X326920Y436696D01*
X326463Y437800D01*
X325736Y438748D01*
X324788Y439475D01*
X323684Y439932D01*
X322500Y440088D01*
D02*
G37*
G36*
X297500D02*
X296316Y439932D01*
X295212Y439475D01*
X294264Y438748D01*
X293537Y437800D01*
X293080Y436696D01*
X292924Y435512D01*
X293080Y434327D01*
X293537Y433224D01*
X294264Y432276D01*
X295212Y431549D01*
X296316Y431092D01*
X297500Y430936D01*
X298684Y431092D01*
X299788Y431549D01*
X300736Y432276D01*
X301463Y433224D01*
X301920Y434327D01*
X302076Y435512D01*
X301920Y436696D01*
X301463Y437800D01*
X300736Y438748D01*
X299788Y439475D01*
X298684Y439932D01*
X297500Y440088D01*
D02*
G37*
G36*
X262500D02*
X261316Y439932D01*
X260212Y439475D01*
X259264Y438748D01*
X258537Y437800D01*
X258080Y436696D01*
X257924Y435512D01*
X258080Y434327D01*
X258537Y433224D01*
X259264Y432276D01*
X260212Y431549D01*
X261316Y431092D01*
X262500Y430936D01*
X263684Y431092D01*
X264788Y431549D01*
X265736Y432276D01*
X266463Y433224D01*
X266920Y434327D01*
X267076Y435512D01*
X266920Y436696D01*
X266463Y437800D01*
X265736Y438748D01*
X264788Y439475D01*
X263684Y439932D01*
X262500Y440088D01*
D02*
G37*
G36*
X237500D02*
X236316Y439932D01*
X235212Y439475D01*
X234264Y438748D01*
X233537Y437800D01*
X233080Y436696D01*
X232924Y435512D01*
X233080Y434327D01*
X233537Y433224D01*
X234264Y432276D01*
X235212Y431549D01*
X236316Y431092D01*
X237500Y430936D01*
X238684Y431092D01*
X239788Y431549D01*
X240736Y432276D01*
X241463Y433224D01*
X241920Y434327D01*
X242076Y435512D01*
X241920Y436696D01*
X241463Y437800D01*
X240736Y438748D01*
X239788Y439475D01*
X238684Y439932D01*
X237500Y440088D01*
D02*
G37*
G36*
X202500D02*
X201316Y439932D01*
X200212Y439475D01*
X199264Y438748D01*
X198537Y437800D01*
X198080Y436696D01*
X197924Y435512D01*
X198080Y434327D01*
X198537Y433224D01*
X199264Y432276D01*
X200212Y431549D01*
X201316Y431092D01*
X202500Y430936D01*
X203684Y431092D01*
X204788Y431549D01*
X205736Y432276D01*
X206463Y433224D01*
X206920Y434327D01*
X207076Y435512D01*
X206920Y436696D01*
X206463Y437800D01*
X205736Y438748D01*
X204788Y439475D01*
X203684Y439932D01*
X202500Y440088D01*
D02*
G37*
G36*
X142000Y435012D02*
X137586D01*
X137690Y434223D01*
X138188Y433022D01*
X138979Y431991D01*
X140010Y431199D01*
X141211Y430702D01*
X142000Y430598D01*
Y435012D01*
D02*
G37*
G36*
X182414Y435012D02*
X178000D01*
Y430598D01*
X178789Y430702D01*
X179990Y431199D01*
X181021Y431991D01*
X181813Y433022D01*
X182310Y434223D01*
X182414Y435012D01*
D02*
G37*
G36*
X177000D02*
X172586D01*
X172690Y434223D01*
X173187Y433022D01*
X173979Y431991D01*
X175010Y431199D01*
X176211Y430702D01*
X177000Y430598D01*
Y435012D01*
D02*
G37*
G36*
X147414Y435012D02*
X143000D01*
Y430598D01*
X143789Y430702D01*
X144990Y431199D01*
X146021Y431991D01*
X146812Y433022D01*
X147310Y434223D01*
X147414Y435012D01*
D02*
G37*
G36*
X160500Y428418D02*
Y424004D01*
X164914D01*
X164810Y424793D01*
X164313Y425994D01*
X163521Y427025D01*
X162490Y427816D01*
X161289Y428314D01*
X160500Y428418D01*
D02*
G37*
G36*
X159500Y428418D02*
X158711Y428314D01*
X157510Y427816D01*
X156479Y427025D01*
X155687Y425994D01*
X155190Y424793D01*
X155086Y424004D01*
X159500D01*
Y428418D01*
D02*
G37*
G36*
X384500Y434500D02*
X370214D01*
X370357Y432681D01*
X370900Y430419D01*
X371791Y428269D01*
X373006Y426286D01*
X374517Y424517D01*
X376286Y423006D01*
X378270Y421791D01*
X380419Y420900D01*
X382681Y420357D01*
X384500Y420214D01*
Y434500D01*
D02*
G37*
G36*
X129786D02*
X115500D01*
Y420214D01*
X117319Y420357D01*
X119581Y420900D01*
X121730Y421791D01*
X123714Y423006D01*
X125483Y424517D01*
X126994Y426286D01*
X128209Y428269D01*
X129100Y430419D01*
X129643Y432681D01*
X129786Y434500D01*
D02*
G37*
G36*
X340000Y428080D02*
X338816Y427924D01*
X337712Y427467D01*
X336764Y426740D01*
X336037Y425792D01*
X335580Y424688D01*
X335424Y423504D01*
X335580Y422320D01*
X336037Y421216D01*
X336764Y420268D01*
X337712Y419541D01*
X338816Y419084D01*
X340000Y418928D01*
X341184Y419084D01*
X342288Y419541D01*
X343236Y420268D01*
X343963Y421216D01*
X344420Y422320D01*
X344576Y423504D01*
X344420Y424688D01*
X343963Y425792D01*
X343236Y426740D01*
X342288Y427467D01*
X341184Y427924D01*
X340000Y428080D01*
D02*
G37*
G36*
X280000D02*
X278816Y427924D01*
X277712Y427467D01*
X276764Y426740D01*
X276037Y425792D01*
X275580Y424688D01*
X275424Y423504D01*
X275580Y422320D01*
X276037Y421216D01*
X276764Y420268D01*
X277712Y419541D01*
X278816Y419084D01*
X280000Y418928D01*
X281184Y419084D01*
X282288Y419541D01*
X283236Y420268D01*
X283963Y421216D01*
X284420Y422320D01*
X284576Y423504D01*
X284420Y424688D01*
X283963Y425792D01*
X283236Y426740D01*
X282288Y427467D01*
X281184Y427924D01*
X280000Y428080D01*
D02*
G37*
G36*
X220000D02*
X218816Y427924D01*
X217712Y427467D01*
X216764Y426740D01*
X216037Y425792D01*
X215580Y424688D01*
X215424Y423504D01*
X215580Y422320D01*
X216037Y421216D01*
X216764Y420268D01*
X217712Y419541D01*
X218816Y419084D01*
X220000Y418928D01*
X221184Y419084D01*
X222288Y419541D01*
X223236Y420268D01*
X223963Y421216D01*
X224420Y422320D01*
X224576Y423504D01*
X224420Y424688D01*
X223963Y425792D01*
X223236Y426740D01*
X222288Y427467D01*
X221184Y427924D01*
X220000Y428080D01*
D02*
G37*
G36*
X159500Y423004D02*
X155086D01*
X155190Y422215D01*
X155687Y421014D01*
X156479Y419983D01*
X157510Y419192D01*
X158711Y418694D01*
X159500Y418590D01*
Y423004D01*
D02*
G37*
G36*
X164914D02*
X160500D01*
Y418590D01*
X161289Y418694D01*
X162490Y419192D01*
X163521Y419983D01*
X164313Y421014D01*
X164810Y422215D01*
X164914Y423004D01*
D02*
G37*
G36*
X236000Y410848D02*
Y409000D01*
X237848D01*
X237761Y409436D01*
X237230Y410230D01*
X236436Y410761D01*
X236000Y410848D01*
D02*
G37*
G36*
X235000D02*
X234564Y410761D01*
X233770Y410230D01*
X233239Y409436D01*
X233152Y409000D01*
X235000D01*
Y410848D01*
D02*
G37*
G36*
X316000Y410348D02*
Y408500D01*
X317848D01*
X317761Y408936D01*
X317230Y409730D01*
X316436Y410261D01*
X316000Y410348D01*
D02*
G37*
G36*
X315000D02*
X314564Y410261D01*
X313770Y409730D01*
X313239Y408936D01*
X313152Y408500D01*
X315000D01*
Y410348D01*
D02*
G37*
G36*
X275500D02*
Y408500D01*
X277348D01*
X277261Y408936D01*
X276730Y409730D01*
X275936Y410261D01*
X275500Y410348D01*
D02*
G37*
G36*
X274500D02*
X274064Y410261D01*
X273270Y409730D01*
X272739Y408936D01*
X272652Y408500D01*
X274500D01*
Y410348D01*
D02*
G37*
G36*
X237848Y408000D02*
X236000D01*
Y406152D01*
X236436Y406239D01*
X237230Y406770D01*
X237761Y407564D01*
X237848Y408000D01*
D02*
G37*
G36*
X235000D02*
X233152D01*
X233239Y407564D01*
X233770Y406770D01*
X234564Y406239D01*
X235000Y406152D01*
Y408000D01*
D02*
G37*
G36*
X317848Y407500D02*
X316000D01*
Y405652D01*
X316436Y405739D01*
X317230Y406270D01*
X317761Y407064D01*
X317848Y407500D01*
D02*
G37*
G36*
X315000D02*
X313152D01*
X313239Y407064D01*
X313770Y406270D01*
X314564Y405739D01*
X315000Y405652D01*
Y407500D01*
D02*
G37*
G36*
X277348D02*
X275500D01*
Y405652D01*
X275936Y405739D01*
X276730Y406270D01*
X277261Y407064D01*
X277348Y407500D01*
D02*
G37*
G36*
X274500D02*
X272652D01*
X272739Y407064D01*
X273270Y406270D01*
X274064Y405739D01*
X274500Y405652D01*
Y407500D01*
D02*
G37*
G36*
X116000Y402576D02*
X114816Y402420D01*
X113712Y401963D01*
X112764Y401236D01*
X112037Y400288D01*
X111580Y399184D01*
X111424Y398000D01*
X111580Y396816D01*
X112037Y395712D01*
X112764Y394764D01*
X113712Y394037D01*
X114816Y393580D01*
X116000Y393424D01*
X117184Y393580D01*
X118288Y394037D01*
X119236Y394764D01*
X119963Y395712D01*
X120420Y396816D01*
X120576Y398000D01*
X120420Y399184D01*
X119963Y400288D01*
X119236Y401236D01*
X118288Y401963D01*
X117184Y402420D01*
X116000Y402576D01*
D02*
G37*
G36*
X120537Y382852D02*
X111463D01*
Y373778D01*
X120537D01*
Y382852D01*
D02*
G37*
G36*
X290000Y370539D02*
X289220Y370384D01*
X288842Y370131D01*
X251158D01*
X250780Y370384D01*
X250000Y370539D01*
X249220Y370384D01*
X248842Y370131D01*
X211158D01*
X210780Y370384D01*
X210000Y370539D01*
X209220Y370384D01*
X208558Y369942D01*
X208116Y369280D01*
X207961Y368500D01*
X208116Y367720D01*
X208558Y367058D01*
X209220Y366616D01*
X210000Y366461D01*
X210780Y366616D01*
X211158Y366869D01*
X248842D01*
X249220Y366616D01*
X250000Y366461D01*
X250780Y366616D01*
X251158Y366869D01*
X288842D01*
X289220Y366616D01*
X290000Y366461D01*
X290780Y366616D01*
X291442Y367058D01*
X291884Y367720D01*
X292039Y368500D01*
X291884Y369280D01*
X291442Y369942D01*
X290780Y370384D01*
X290000Y370539D01*
D02*
G37*
G36*
X265000Y355039D02*
X264220Y354884D01*
X263558Y354442D01*
X263344Y354121D01*
X256500D01*
X256500Y354122D01*
X256071Y354036D01*
X255707Y353793D01*
X255707Y353793D01*
X249207Y347293D01*
X248964Y346929D01*
X248878Y346500D01*
X248879Y346500D01*
Y310156D01*
X248558Y309942D01*
X248116Y309280D01*
X247961Y308500D01*
X248116Y307720D01*
X248558Y307058D01*
X249220Y306616D01*
X250000Y306461D01*
X250619Y306584D01*
X250814Y306113D01*
X250558Y305942D01*
X250116Y305280D01*
X249961Y304500D01*
X250116Y303720D01*
X250558Y303058D01*
X251220Y302616D01*
X252000Y302461D01*
X252780Y302616D01*
X253442Y303058D01*
X253884Y303720D01*
X254039Y304500D01*
X253964Y304878D01*
X258793Y309707D01*
X258793Y309707D01*
X259036Y310071D01*
X259122Y310500D01*
X259121Y310500D01*
Y344344D01*
X259442Y344558D01*
X259884Y345220D01*
X260039Y346000D01*
X259884Y346780D01*
X259442Y347442D01*
X258780Y347884D01*
X258000Y348039D01*
X257220Y347884D01*
X256558Y347442D01*
X256116Y346780D01*
X255961Y346000D01*
X256116Y345220D01*
X256558Y344558D01*
X256878Y344344D01*
Y310965D01*
X252378Y306464D01*
X252000Y306539D01*
X251381Y306416D01*
X251186Y306887D01*
X251442Y307058D01*
X251884Y307720D01*
X252039Y308500D01*
X251884Y309280D01*
X251442Y309942D01*
X251121Y310156D01*
Y346035D01*
X256965Y351878D01*
X263344D01*
X263558Y351558D01*
X264220Y351116D01*
X265000Y350961D01*
X265780Y351116D01*
X266442Y351558D01*
X266884Y352220D01*
X267039Y353000D01*
X266884Y353780D01*
X266442Y354442D01*
X265780Y354884D01*
X265000Y355039D01*
D02*
G37*
G36*
X242500Y352039D02*
X241720Y351884D01*
X241058Y351442D01*
X240844Y351121D01*
X233500D01*
X233500Y351122D01*
X233071Y351036D01*
X232707Y350793D01*
X231207Y349293D01*
X230964Y348929D01*
X230878Y348500D01*
X230878Y348500D01*
Y309156D01*
X230558Y308942D01*
X230116Y308280D01*
X229961Y307500D01*
X230116Y306720D01*
X230558Y306058D01*
X231220Y305616D01*
X232000Y305461D01*
X232780Y305616D01*
X233442Y306058D01*
X233884Y306720D01*
X234039Y307500D01*
X233884Y308280D01*
X233442Y308942D01*
X233121Y309156D01*
Y344576D01*
X233622Y344820D01*
X233878Y344630D01*
Y318000D01*
X233878Y318000D01*
X233964Y317571D01*
X234207Y317207D01*
X243036Y308378D01*
X242961Y308000D01*
X243116Y307220D01*
X243558Y306558D01*
X244220Y306116D01*
X245000Y305961D01*
X245619Y306084D01*
X245814Y305613D01*
X245558Y305442D01*
X245116Y304780D01*
X244961Y304000D01*
X245116Y303220D01*
X245558Y302558D01*
X246220Y302116D01*
X247000Y301961D01*
X247378Y302036D01*
X249707Y299707D01*
X249707Y299707D01*
X250071Y299464D01*
X250500Y299378D01*
X250500Y299378D01*
X265844D01*
X266058Y299058D01*
X266720Y298616D01*
X267500Y298461D01*
X268280Y298616D01*
X268942Y299058D01*
X269384Y299720D01*
X269539Y300500D01*
X269384Y301280D01*
X268942Y301942D01*
X268280Y302384D01*
X267500Y302539D01*
X266720Y302384D01*
X266058Y301942D01*
X265844Y301622D01*
X250965D01*
X248964Y303622D01*
X249039Y304000D01*
X248884Y304780D01*
X248442Y305442D01*
X247780Y305884D01*
X247000Y306039D01*
X246381Y305916D01*
X246186Y306387D01*
X246442Y306558D01*
X246884Y307220D01*
X247039Y308000D01*
X246884Y308780D01*
X246442Y309442D01*
X245780Y309884D01*
X245000Y310039D01*
X244622Y309964D01*
X236122Y318465D01*
Y344844D01*
X236442Y345058D01*
X236884Y345720D01*
X237039Y346500D01*
X236884Y347280D01*
X236442Y347942D01*
X235780Y348384D01*
X235857Y348879D01*
X240844D01*
X241058Y348558D01*
X241720Y348116D01*
X242500Y347961D01*
X243280Y348116D01*
X243942Y348558D01*
X244384Y349220D01*
X244539Y350000D01*
X244384Y350780D01*
X243942Y351442D01*
X243280Y351884D01*
X242500Y352039D01*
D02*
G37*
G36*
X314500Y351539D02*
X313720Y351384D01*
X313058Y350942D01*
X312844Y350622D01*
X299156D01*
X298942Y350942D01*
X298280Y351384D01*
X297500Y351539D01*
X296720Y351384D01*
X296058Y350942D01*
X295616Y350280D01*
X295461Y349500D01*
X295616Y348720D01*
X296058Y348058D01*
X296720Y347616D01*
X297500Y347461D01*
X298280Y347616D01*
X298942Y348058D01*
X299156Y348378D01*
X312844D01*
X313058Y348058D01*
X313720Y347616D01*
X314500Y347461D01*
X315280Y347616D01*
X315942Y348058D01*
X316384Y348720D01*
X316539Y349500D01*
X316384Y350280D01*
X315942Y350942D01*
X315280Y351384D01*
X314500Y351539D01*
D02*
G37*
G36*
X217500Y347539D02*
X216720Y347384D01*
X216058Y346942D01*
X215844Y346621D01*
X207000D01*
X207000Y346622D01*
X206571Y346536D01*
X206207Y346293D01*
X206207Y346293D01*
X194707Y334793D01*
X194464Y334429D01*
X194378Y334000D01*
X194378Y334000D01*
Y307156D01*
X194058Y306942D01*
X193616Y306280D01*
X193461Y305500D01*
X193616Y304720D01*
X194058Y304058D01*
X194720Y303616D01*
X194643Y303121D01*
X192156D01*
X191942Y303442D01*
X191280Y303884D01*
X190500Y304039D01*
X189720Y303884D01*
X189058Y303442D01*
X188616Y302780D01*
X188461Y302000D01*
X188616Y301220D01*
X189058Y300558D01*
X189720Y300116D01*
X190500Y299961D01*
X191280Y300116D01*
X191942Y300558D01*
X191956Y300580D01*
X192064Y300569D01*
X192250Y300048D01*
X189851Y297649D01*
X189652Y297351D01*
X189582Y297000D01*
Y295292D01*
X189058Y294942D01*
X188616Y294280D01*
X188461Y293500D01*
X188616Y292720D01*
X189058Y292058D01*
X189720Y291616D01*
X190500Y291461D01*
X191280Y291616D01*
X191942Y292058D01*
X192384Y292720D01*
X192539Y293500D01*
X192384Y294280D01*
X191942Y294942D01*
X191418Y295292D01*
Y296620D01*
X193880Y299082D01*
X195698D01*
X195935Y298582D01*
X195844Y298471D01*
X195500Y298539D01*
X194720Y298384D01*
X194058Y297942D01*
X193616Y297280D01*
X193461Y296500D01*
X193616Y295720D01*
X194058Y295058D01*
X194720Y294616D01*
X195500Y294461D01*
X196280Y294616D01*
X196942Y295058D01*
X197014Y295165D01*
X197578Y295110D01*
X197646Y294944D01*
X194567Y291865D01*
X194368Y291567D01*
X194298Y291216D01*
Y282255D01*
X193774Y281905D01*
X193332Y281243D01*
X193177Y280463D01*
X193332Y279683D01*
X193774Y279021D01*
X194435Y278579D01*
X195216Y278424D01*
X195996Y278579D01*
X196658Y279021D01*
X197100Y279683D01*
X197255Y280463D01*
X197100Y281243D01*
X196658Y281905D01*
X196133Y282255D01*
Y290836D01*
X199823Y294525D01*
X200280Y294616D01*
X200942Y295058D01*
X201384Y295720D01*
X201882Y295662D01*
Y288054D01*
X201351Y287523D01*
X201152Y287225D01*
X201082Y286874D01*
Y278292D01*
X200558Y277942D01*
X200116Y277280D01*
X199961Y276500D01*
X200116Y275720D01*
X200558Y275058D01*
X201220Y274616D01*
X202000Y274461D01*
X202780Y274616D01*
X203442Y275058D01*
X203884Y275720D01*
X204039Y276500D01*
X203884Y277280D01*
X203442Y277942D01*
X202918Y278292D01*
Y286494D01*
X203449Y287025D01*
X203648Y287323D01*
X203718Y287674D01*
Y296778D01*
X204218Y296985D01*
X209851Y291351D01*
X210149Y291152D01*
X210500Y291082D01*
X212645D01*
X212797Y290582D01*
X212270Y290230D01*
X211739Y289436D01*
X211652Y289000D01*
X216348D01*
X216261Y289436D01*
X215730Y290230D01*
X215203Y290582D01*
X215355Y291082D01*
X252500D01*
X252851Y291152D01*
X253149Y291351D01*
X254382Y292584D01*
X255000Y292461D01*
X255780Y292616D01*
X256442Y293058D01*
X256884Y293720D01*
X257039Y294500D01*
X256884Y295280D01*
X256553Y295776D01*
X256680Y296264D01*
X256734Y296337D01*
X256839Y296363D01*
X261351Y291851D01*
X261649Y291652D01*
X262000Y291582D01*
X304708D01*
X305058Y291058D01*
X305720Y290616D01*
X306500Y290461D01*
X307280Y290616D01*
X307942Y291058D01*
X308384Y291720D01*
X308539Y292500D01*
X308384Y293280D01*
X307942Y293942D01*
X307280Y294384D01*
X306500Y294539D01*
X305720Y294384D01*
X305058Y293942D01*
X304708Y293418D01*
X262380D01*
X257649Y298149D01*
X257351Y298348D01*
X257000Y298418D01*
X253000D01*
X252649Y298348D01*
X252351Y298149D01*
X250120Y295918D01*
X246792D01*
X246442Y296442D01*
X245780Y296884D01*
X245000Y297039D01*
X244220Y296884D01*
X243558Y296442D01*
X243116Y295780D01*
X242961Y295000D01*
X243116Y294220D01*
X243558Y293558D01*
X243768Y293418D01*
X243617Y292918D01*
X210880D01*
X203419Y300378D01*
X203626Y300879D01*
X212844D01*
X213058Y300558D01*
X213720Y300116D01*
X214500Y299961D01*
X215280Y300116D01*
X215942Y300558D01*
X216384Y301220D01*
X216539Y302000D01*
X216384Y302780D01*
X215942Y303442D01*
X215280Y303884D01*
X214500Y304039D01*
X213720Y303884D01*
X213058Y303442D01*
X212844Y303121D01*
X196357D01*
X196280Y303616D01*
X196942Y304058D01*
X197384Y304720D01*
X197539Y305500D01*
X197384Y306280D01*
X196942Y306942D01*
X196622Y307156D01*
Y333535D01*
X207465Y344378D01*
X215844D01*
X216058Y344058D01*
X216720Y343616D01*
X217500Y343461D01*
X218280Y343616D01*
X218942Y344058D01*
X219384Y344720D01*
X219539Y345500D01*
X219384Y346280D01*
X218942Y346942D01*
X218280Y347384D01*
X217500Y347539D01*
D02*
G37*
G36*
X224500D02*
X223720Y347384D01*
X223058Y346942D01*
X222616Y346280D01*
X222461Y345500D01*
X222536Y345122D01*
X219035Y341621D01*
X212500D01*
X212071Y341536D01*
X211707Y341293D01*
X211707Y341293D01*
X199707Y329293D01*
X199464Y328929D01*
X199378Y328500D01*
X199378Y328500D01*
Y308656D01*
X199058Y308442D01*
X198616Y307780D01*
X198461Y307000D01*
X198616Y306220D01*
X199058Y305558D01*
X199720Y305116D01*
X200500Y304961D01*
X201280Y305116D01*
X201942Y305558D01*
X202384Y306220D01*
X202539Y307000D01*
X202384Y307780D01*
X201942Y308442D01*
X201622Y308656D01*
Y328035D01*
X212965Y339378D01*
X219500D01*
X219500Y339378D01*
X219929Y339464D01*
X220293Y339707D01*
X224122Y343536D01*
X224500Y343461D01*
X225280Y343616D01*
X225942Y344058D01*
X226384Y344720D01*
X226539Y345500D01*
X226384Y346280D01*
X225942Y346942D01*
X225280Y347384D01*
X224500Y347539D01*
D02*
G37*
G36*
X141000Y344348D02*
Y342500D01*
X142848D01*
X142761Y342936D01*
X142230Y343730D01*
X141436Y344261D01*
X141000Y344348D01*
D02*
G37*
G36*
X140000D02*
X139564Y344261D01*
X138770Y343730D01*
X138239Y342936D01*
X138152Y342500D01*
X140000D01*
Y344348D01*
D02*
G37*
G36*
X142848Y341500D02*
X141000D01*
Y339652D01*
X141436Y339739D01*
X142230Y340270D01*
X142761Y341064D01*
X142848Y341500D01*
D02*
G37*
G36*
X140000D02*
X138152D01*
X138239Y341064D01*
X138770Y340270D01*
X139564Y339739D01*
X140000Y339652D01*
Y341500D01*
D02*
G37*
G36*
X282500Y349039D02*
X281720Y348884D01*
X281058Y348442D01*
X280616Y347780D01*
X280461Y347000D01*
X280616Y346220D01*
X281058Y345558D01*
X281379Y345344D01*
Y320500D01*
X281378Y320500D01*
X281464Y320071D01*
X281707Y319707D01*
X293536Y307878D01*
X293461Y307500D01*
X293616Y306720D01*
X293721Y306562D01*
X293485Y306121D01*
X292965D01*
X276121Y322965D01*
Y344844D01*
X276442Y345058D01*
X276884Y345720D01*
X277039Y346500D01*
X276884Y347280D01*
X276442Y347942D01*
X275780Y348384D01*
X275000Y348539D01*
X274220Y348384D01*
X273558Y347942D01*
X273116Y347280D01*
X272961Y346500D01*
X273116Y345720D01*
X273558Y345058D01*
X273879Y344844D01*
Y322500D01*
X273878Y322500D01*
X273964Y322071D01*
X274207Y321707D01*
X291707Y304207D01*
X291707Y304207D01*
X292071Y303964D01*
X292500Y303878D01*
X292500Y303878D01*
X298399D01*
X298399Y303878D01*
X298828Y303964D01*
X299192Y304207D01*
X300038Y305053D01*
X300500Y304961D01*
X301280Y305116D01*
X301942Y305558D01*
X302384Y306220D01*
X302539Y307000D01*
X302384Y307780D01*
X301942Y308442D01*
X301280Y308884D01*
X300500Y309039D01*
X299720Y308884D01*
X299058Y308442D01*
X298616Y307780D01*
X298461Y307000D01*
X298519Y306707D01*
X297975Y306162D01*
X297565Y306198D01*
X297337Y306649D01*
X297384Y306720D01*
X297539Y307500D01*
X297384Y308280D01*
X296942Y308942D01*
X296280Y309384D01*
X295500Y309539D01*
X295122Y309464D01*
X283622Y320965D01*
Y345344D01*
X283942Y345558D01*
X284384Y346220D01*
X284539Y347000D01*
X284384Y347780D01*
X283942Y348442D01*
X283280Y348884D01*
X282500Y349039D01*
D02*
G37*
G36*
X343500Y304848D02*
Y303000D01*
X345348D01*
X345261Y303436D01*
X344730Y304230D01*
X343936Y304761D01*
X343500Y304848D01*
D02*
G37*
G36*
X342500D02*
X342064Y304761D01*
X341270Y304230D01*
X340739Y303436D01*
X340652Y303000D01*
X342500D01*
Y304848D01*
D02*
G37*
G36*
X304500Y319539D02*
X303720Y319384D01*
X303058Y318942D01*
X302616Y318280D01*
X302461Y317500D01*
X302616Y316720D01*
X303058Y316058D01*
X303379Y315844D01*
Y303465D01*
X302035Y302121D01*
X299156D01*
X298942Y302442D01*
X298280Y302884D01*
X297500Y303039D01*
X296720Y302884D01*
X296058Y302442D01*
X295616Y301780D01*
X295461Y301000D01*
X295616Y300220D01*
X296058Y299558D01*
X296720Y299116D01*
X297500Y298961D01*
X298280Y299116D01*
X298942Y299558D01*
X299156Y299879D01*
X302500D01*
X302500Y299878D01*
X302929Y299964D01*
X303293Y300207D01*
X305293Y302207D01*
X305293Y302207D01*
X305536Y302571D01*
X305622Y303000D01*
X305622Y303000D01*
Y315844D01*
X305942Y316058D01*
X306384Y316720D01*
X306539Y317500D01*
X306384Y318280D01*
X305942Y318942D01*
X305280Y319384D01*
X304500Y319539D01*
D02*
G37*
G36*
X161500Y303348D02*
Y301500D01*
X163348D01*
X163261Y301936D01*
X162730Y302730D01*
X161936Y303261D01*
X161500Y303348D01*
D02*
G37*
G36*
X160500D02*
X160064Y303261D01*
X159270Y302730D01*
X158739Y301936D01*
X158652Y301500D01*
X160500D01*
Y303348D01*
D02*
G37*
G36*
X345348Y302000D02*
X343500D01*
Y300152D01*
X343936Y300239D01*
X344730Y300770D01*
X345261Y301564D01*
X345348Y302000D01*
D02*
G37*
G36*
X342500D02*
X340652D01*
X340739Y301564D01*
X341270Y300770D01*
X342064Y300239D01*
X342500Y300152D01*
Y302000D01*
D02*
G37*
G36*
X163348Y300500D02*
X161500D01*
Y298652D01*
X161936Y298739D01*
X162730Y299270D01*
X163261Y300064D01*
X163348Y300500D01*
D02*
G37*
G36*
X160500D02*
X158652D01*
X158739Y300064D01*
X159270Y299270D01*
X160064Y298739D01*
X160500Y298652D01*
Y300500D01*
D02*
G37*
G36*
X161000Y293348D02*
Y291500D01*
X162848D01*
X162761Y291936D01*
X162230Y292730D01*
X161436Y293261D01*
X161000Y293348D01*
D02*
G37*
G36*
X160000D02*
X159564Y293261D01*
X158770Y292730D01*
X158239Y291936D01*
X158152Y291500D01*
X160000D01*
Y293348D01*
D02*
G37*
G36*
X319500Y292848D02*
Y291000D01*
X321348D01*
X321261Y291436D01*
X320730Y292230D01*
X319936Y292761D01*
X319500Y292848D01*
D02*
G37*
G36*
X318500D02*
X318064Y292761D01*
X317270Y292230D01*
X316739Y291436D01*
X316652Y291000D01*
X318500D01*
Y292848D01*
D02*
G37*
G36*
X267500Y290848D02*
Y289000D01*
X269348D01*
X269261Y289436D01*
X268730Y290230D01*
X267936Y290761D01*
X267500Y290848D01*
D02*
G37*
G36*
X266500D02*
X266064Y290761D01*
X265270Y290230D01*
X264739Y289436D01*
X264652Y289000D01*
X266500D01*
Y290848D01*
D02*
G37*
G36*
X162848Y290500D02*
X161000D01*
Y288652D01*
X161436Y288739D01*
X162230Y289270D01*
X162761Y290064D01*
X162848Y290500D01*
D02*
G37*
G36*
X160000D02*
X158152D01*
X158239Y290064D01*
X158770Y289270D01*
X159564Y288739D01*
X160000Y288652D01*
Y290500D01*
D02*
G37*
G36*
X321348Y290000D02*
X319500D01*
Y288152D01*
X319936Y288239D01*
X320730Y288770D01*
X321261Y289564D01*
X321348Y290000D01*
D02*
G37*
G36*
X318500D02*
X316652D01*
X316739Y289564D01*
X317270Y288770D01*
X318064Y288239D01*
X318500Y288152D01*
Y290000D01*
D02*
G37*
G36*
X130500Y289848D02*
Y288000D01*
X132348D01*
X132261Y288436D01*
X131730Y289230D01*
X130936Y289761D01*
X130500Y289848D01*
D02*
G37*
G36*
X129500D02*
X129064Y289761D01*
X128270Y289230D01*
X127739Y288436D01*
X127652Y288000D01*
X129500D01*
Y289848D01*
D02*
G37*
G36*
X269348Y288000D02*
X267500D01*
Y286152D01*
X267936Y286239D01*
X268730Y286770D01*
X269261Y287564D01*
X269348Y288000D01*
D02*
G37*
G36*
X266500D02*
X264652D01*
X264739Y287564D01*
X265270Y286770D01*
X266064Y286239D01*
X266500Y286152D01*
Y288000D01*
D02*
G37*
G36*
X216348D02*
X214500D01*
Y286152D01*
X214936Y286239D01*
X215730Y286770D01*
X216261Y287564D01*
X216348Y288000D01*
D02*
G37*
G36*
X213500D02*
X211652D01*
X211739Y287564D01*
X212270Y286770D01*
X213064Y286239D01*
X213500Y286152D01*
Y288000D01*
D02*
G37*
G36*
X132348Y287000D02*
X130500D01*
Y285152D01*
X130936Y285239D01*
X131730Y285770D01*
X132261Y286564D01*
X132348Y287000D01*
D02*
G37*
G36*
X129500D02*
X127652D01*
X127739Y286564D01*
X128270Y285770D01*
X129064Y285239D01*
X129500Y285152D01*
Y287000D01*
D02*
G37*
G36*
X221000Y285348D02*
Y283500D01*
X222848D01*
X222761Y283936D01*
X222230Y284730D01*
X221436Y285261D01*
X221000Y285348D01*
D02*
G37*
G36*
X220000D02*
X219564Y285261D01*
X218770Y284730D01*
X218239Y283936D01*
X218152Y283500D01*
X220000D01*
Y285348D01*
D02*
G37*
G36*
X274000Y284848D02*
Y283000D01*
X275848D01*
X275761Y283436D01*
X275230Y284230D01*
X274436Y284761D01*
X274000Y284848D01*
D02*
G37*
G36*
X273000D02*
X272564Y284761D01*
X271770Y284230D01*
X271239Y283436D01*
X271152Y283000D01*
X273000D01*
Y284848D01*
D02*
G37*
G36*
X222848Y282500D02*
X221000D01*
Y280652D01*
X221436Y280739D01*
X222230Y281270D01*
X222761Y282064D01*
X222848Y282500D01*
D02*
G37*
G36*
X220000D02*
X218152D01*
X218239Y282064D01*
X218770Y281270D01*
X219564Y280739D01*
X220000Y280652D01*
Y282500D01*
D02*
G37*
G36*
X275848Y282000D02*
X274000D01*
Y280152D01*
X274436Y280239D01*
X275230Y280770D01*
X275761Y281564D01*
X275848Y282000D01*
D02*
G37*
G36*
X273000D02*
X271152D01*
X271239Y281564D01*
X271770Y280770D01*
X272564Y280239D01*
X273000Y280152D01*
Y282000D01*
D02*
G37*
G36*
X239500Y288539D02*
X238720Y288384D01*
X238058Y287942D01*
X237616Y287280D01*
X237461Y286500D01*
X237616Y285720D01*
X238058Y285058D01*
X238720Y284616D01*
X239500Y284461D01*
X240118Y284584D01*
X243584Y281118D01*
X243461Y280500D01*
X243616Y279720D01*
X244058Y279058D01*
X244720Y278616D01*
X245500Y278461D01*
X246280Y278616D01*
X246942Y279058D01*
X247384Y279720D01*
X247539Y280500D01*
X247384Y281280D01*
X246942Y281942D01*
X246280Y282384D01*
X245500Y282539D01*
X244882Y282416D01*
X241416Y285882D01*
X241539Y286500D01*
X241384Y287280D01*
X240942Y287942D01*
X240280Y288384D01*
X239500Y288539D01*
D02*
G37*
G36*
X199000Y291539D02*
X198220Y291384D01*
X197558Y290942D01*
X197116Y290280D01*
X196961Y289500D01*
X197116Y288720D01*
X197558Y288058D01*
X198082Y287708D01*
Y279380D01*
X196620Y277918D01*
X193380D01*
X190918Y280380D01*
Y281208D01*
X191442Y281558D01*
X191884Y282220D01*
X192039Y283000D01*
X191884Y283780D01*
X191442Y284442D01*
X190780Y284884D01*
X190000Y285039D01*
X189220Y284884D01*
X188558Y284442D01*
X188116Y283780D01*
X187961Y283000D01*
X188116Y282220D01*
X188558Y281558D01*
X189082Y281208D01*
Y280000D01*
X189152Y279649D01*
X189351Y279351D01*
X192351Y276351D01*
X192649Y276152D01*
X193000Y276082D01*
X197000D01*
X197351Y276152D01*
X197649Y276351D01*
X199649Y278351D01*
X199848Y278649D01*
X199918Y279000D01*
Y287708D01*
X200442Y288058D01*
X200884Y288720D01*
X201039Y289500D01*
X200884Y290280D01*
X200442Y290942D01*
X199780Y291384D01*
X199000Y291539D01*
D02*
G37*
G36*
X360000Y277348D02*
Y275500D01*
X361848D01*
X361761Y275936D01*
X361230Y276730D01*
X360436Y277261D01*
X360000Y277348D01*
D02*
G37*
G36*
X359000D02*
X358564Y277261D01*
X357770Y276730D01*
X357239Y275936D01*
X357152Y275500D01*
X359000D01*
Y277348D01*
D02*
G37*
G36*
X167000Y280918D02*
X155000D01*
X154649Y280848D01*
X154351Y280649D01*
X151119Y277416D01*
X150500Y277539D01*
X149720Y277384D01*
X149058Y276942D01*
X148616Y276280D01*
X148461Y275500D01*
X148616Y274720D01*
X149058Y274058D01*
X149720Y273616D01*
X150500Y273461D01*
X151280Y273616D01*
X151942Y274058D01*
X152384Y274720D01*
X152539Y275500D01*
X152416Y276118D01*
X155380Y279082D01*
X166620D01*
X168084Y277618D01*
X167961Y277000D01*
X168116Y276220D01*
X168558Y275558D01*
X169220Y275116D01*
X170000Y274961D01*
X170780Y275116D01*
X171442Y275558D01*
X171884Y276220D01*
X172039Y277000D01*
X171884Y277780D01*
X171442Y278442D01*
X170780Y278884D01*
X170000Y279039D01*
X169381Y278916D01*
X167649Y280649D01*
X167351Y280848D01*
X167000Y280918D01*
D02*
G37*
G36*
X163500Y278539D02*
X162720Y278384D01*
X162058Y277942D01*
X161708Y277418D01*
X159500D01*
X159149Y277348D01*
X158851Y277149D01*
X151119Y269416D01*
X150500Y269539D01*
X149720Y269384D01*
X149058Y268942D01*
X148616Y268280D01*
X148461Y267500D01*
X148616Y266720D01*
X149058Y266058D01*
X149720Y265616D01*
X150500Y265461D01*
X151280Y265616D01*
X151942Y266058D01*
X152384Y266720D01*
X152539Y267500D01*
X152416Y268118D01*
X159880Y275582D01*
X161708D01*
X162058Y275058D01*
X162720Y274616D01*
X163500Y274461D01*
X164280Y274616D01*
X164942Y275058D01*
X165384Y275720D01*
X165539Y276500D01*
X165384Y277280D01*
X164942Y277942D01*
X164280Y278384D01*
X163500Y278539D01*
D02*
G37*
G36*
X235500Y284539D02*
X234720Y284384D01*
X234058Y283942D01*
X233616Y283280D01*
X233461Y282500D01*
X233616Y281720D01*
X234058Y281058D01*
X234720Y280616D01*
X235500Y280461D01*
X236118Y280584D01*
X240084Y276618D01*
X239961Y276000D01*
X240116Y275220D01*
X240558Y274558D01*
X241220Y274116D01*
X242000Y273961D01*
X242780Y274116D01*
X243442Y274558D01*
X243884Y275220D01*
X244039Y276000D01*
X243884Y276780D01*
X243442Y277442D01*
X242780Y277884D01*
X242000Y278039D01*
X241382Y277916D01*
X237416Y281882D01*
X237539Y282500D01*
X237384Y283280D01*
X236942Y283942D01*
X236280Y284384D01*
X235500Y284539D01*
D02*
G37*
G36*
X361848Y274500D02*
X360000D01*
Y272652D01*
X360436Y272739D01*
X361230Y273270D01*
X361761Y274064D01*
X361848Y274500D01*
D02*
G37*
G36*
X359000D02*
X357152D01*
X357239Y274064D01*
X357770Y273270D01*
X358564Y272739D01*
X359000Y272652D01*
Y274500D01*
D02*
G37*
G36*
X146000Y316039D02*
X145220Y315884D01*
X144558Y315442D01*
X144116Y314780D01*
X143961Y314000D01*
X144116Y313220D01*
X144558Y312558D01*
X144878Y312344D01*
Y292500D01*
X144878Y292500D01*
X144964Y292071D01*
X145207Y291707D01*
X154707Y282207D01*
X154707Y282207D01*
X155071Y281964D01*
X155500Y281878D01*
X155500Y281878D01*
X169535D01*
X173378Y278035D01*
Y269965D01*
X169878Y266464D01*
X169500Y266539D01*
X168720Y266384D01*
X168058Y265942D01*
X167616Y265280D01*
X167461Y264500D01*
X167616Y263720D01*
X168058Y263058D01*
X168720Y262616D01*
X169500Y262461D01*
X170280Y262616D01*
X170942Y263058D01*
X171384Y263720D01*
X171539Y264500D01*
X171464Y264878D01*
X175293Y268707D01*
X175293Y268707D01*
X175536Y269071D01*
X175622Y269500D01*
X175622Y269500D01*
Y278500D01*
X175622Y278500D01*
X175536Y278929D01*
X175293Y279293D01*
X175293Y279293D01*
X170793Y283793D01*
X170429Y284036D01*
X170000Y284122D01*
X170000Y284121D01*
X155965D01*
X147122Y292965D01*
Y312344D01*
X147442Y312558D01*
X147884Y313220D01*
X148039Y314000D01*
X147884Y314780D01*
X147442Y315442D01*
X146780Y315884D01*
X146000Y316039D01*
D02*
G37*
G36*
X241000Y265348D02*
Y263500D01*
X242848D01*
X242761Y263936D01*
X242230Y264730D01*
X241436Y265261D01*
X241000Y265348D01*
D02*
G37*
G36*
X240000D02*
X239564Y265261D01*
X238770Y264730D01*
X238239Y263936D01*
X238152Y263500D01*
X240000D01*
Y265348D01*
D02*
G37*
G36*
X242848Y262500D02*
X241000D01*
Y260652D01*
X241436Y260739D01*
X242230Y261270D01*
X242761Y262064D01*
X242848Y262500D01*
D02*
G37*
G36*
X240000D02*
X238152D01*
X238239Y262064D01*
X238770Y261270D01*
X239564Y260739D01*
X240000Y260652D01*
Y262500D01*
D02*
G37*
G36*
X182500Y261348D02*
Y259500D01*
X184348D01*
X184261Y259936D01*
X183730Y260730D01*
X182936Y261261D01*
X182500Y261348D01*
D02*
G37*
G36*
X181500D02*
X181064Y261261D01*
X180270Y260730D01*
X179739Y259936D01*
X179652Y259500D01*
X181500D01*
Y261348D01*
D02*
G37*
G36*
X184348Y258500D02*
X182500D01*
Y256652D01*
X182936Y256739D01*
X183730Y257270D01*
X184261Y258064D01*
X184348Y258500D01*
D02*
G37*
G36*
X181500D02*
X179652D01*
X179739Y258064D01*
X180270Y257270D01*
X181064Y256739D01*
X181500Y256652D01*
Y258500D01*
D02*
G37*
G36*
X208000Y252348D02*
Y250500D01*
X209848D01*
X209761Y250936D01*
X209230Y251730D01*
X208436Y252261D01*
X208000Y252348D01*
D02*
G37*
G36*
X207000D02*
X206564Y252261D01*
X205770Y251730D01*
X205239Y250936D01*
X205152Y250500D01*
X207000D01*
Y252348D01*
D02*
G37*
G36*
X209848Y249500D02*
X208000D01*
Y247652D01*
X208436Y247739D01*
X209230Y248270D01*
X209761Y249064D01*
X209848Y249500D01*
D02*
G37*
G36*
X207000D02*
X205152D01*
X205239Y249064D01*
X205770Y248270D01*
X206564Y247739D01*
X207000Y247652D01*
Y249500D01*
D02*
G37*
G36*
X169500Y246348D02*
Y244500D01*
X171348D01*
X171261Y244936D01*
X170730Y245730D01*
X169936Y246261D01*
X169500Y246348D01*
D02*
G37*
G36*
X168500D02*
X168064Y246261D01*
X167270Y245730D01*
X166739Y244936D01*
X166652Y244500D01*
X168500D01*
Y246348D01*
D02*
G37*
G36*
X362500Y245348D02*
Y243500D01*
X364348D01*
X364261Y243936D01*
X363730Y244730D01*
X362936Y245261D01*
X362500Y245348D01*
D02*
G37*
G36*
X361500D02*
X361064Y245261D01*
X360270Y244730D01*
X359739Y243936D01*
X359652Y243500D01*
X361500D01*
Y245348D01*
D02*
G37*
G36*
X208000Y244348D02*
Y242500D01*
X209848D01*
X209761Y242936D01*
X209230Y243730D01*
X208436Y244261D01*
X208000Y244348D01*
D02*
G37*
G36*
X207000D02*
X206564Y244261D01*
X205770Y243730D01*
X205239Y242936D01*
X205152Y242500D01*
X207000D01*
Y244348D01*
D02*
G37*
G36*
X171348Y243500D02*
X169500D01*
Y241652D01*
X169936Y241739D01*
X170730Y242270D01*
X171261Y243064D01*
X171348Y243500D01*
D02*
G37*
G36*
X168500D02*
X166652D01*
X166739Y243064D01*
X167270Y242270D01*
X168064Y241739D01*
X168500Y241652D01*
Y243500D01*
D02*
G37*
G36*
X364348Y242500D02*
X362500D01*
Y240652D01*
X362936Y240739D01*
X363730Y241270D01*
X364261Y242064D01*
X364348Y242500D01*
D02*
G37*
G36*
X361500D02*
X359652D01*
X359739Y242064D01*
X360270Y241270D01*
X361064Y240739D01*
X361500Y240652D01*
Y242500D01*
D02*
G37*
G36*
X209848Y241500D02*
X208000D01*
Y239652D01*
X208436Y239739D01*
X209230Y240270D01*
X209761Y241064D01*
X209848Y241500D01*
D02*
G37*
G36*
X207000D02*
X205152D01*
X205239Y241064D01*
X205770Y240270D01*
X206564Y239739D01*
X207000Y239652D01*
Y241500D01*
D02*
G37*
G36*
X341000Y239848D02*
Y238000D01*
X342848D01*
X342761Y238436D01*
X342230Y239230D01*
X341436Y239761D01*
X341000Y239848D01*
D02*
G37*
G36*
X340000D02*
X339564Y239761D01*
X338770Y239230D01*
X338239Y238436D01*
X338152Y238000D01*
X340000D01*
Y239848D01*
D02*
G37*
G36*
X169500Y239348D02*
Y237500D01*
X171348D01*
X171261Y237936D01*
X170730Y238730D01*
X169936Y239261D01*
X169500Y239348D01*
D02*
G37*
G36*
X168500D02*
X168064Y239261D01*
X167270Y238730D01*
X166739Y237936D01*
X166652Y237500D01*
X168500D01*
Y239348D01*
D02*
G37*
G36*
X207500Y237348D02*
Y235500D01*
X209348D01*
X209261Y235936D01*
X208730Y236730D01*
X207936Y237261D01*
X207500Y237348D01*
D02*
G37*
G36*
X206500D02*
X206064Y237261D01*
X205270Y236730D01*
X204739Y235936D01*
X204652Y235500D01*
X206500D01*
Y237348D01*
D02*
G37*
G36*
X342848Y237000D02*
X341000D01*
Y235152D01*
X341436Y235239D01*
X342230Y235770D01*
X342761Y236564D01*
X342848Y237000D01*
D02*
G37*
G36*
X340000D02*
X338152D01*
X338239Y236564D01*
X338770Y235770D01*
X339564Y235239D01*
X340000Y235152D01*
Y237000D01*
D02*
G37*
G36*
X171348Y236500D02*
X169500D01*
Y234652D01*
X169936Y234739D01*
X170730Y235270D01*
X171261Y236064D01*
X171348Y236500D01*
D02*
G37*
G36*
X168500D02*
X166652D01*
X166739Y236064D01*
X167270Y235270D01*
X168064Y234739D01*
X168500Y234652D01*
Y236500D01*
D02*
G37*
G36*
X209348Y234500D02*
X207500D01*
Y232652D01*
X207936Y232739D01*
X208730Y233270D01*
X209261Y234064D01*
X209348Y234500D01*
D02*
G37*
G36*
X206500D02*
X204652D01*
X204739Y234064D01*
X205270Y233270D01*
X206064Y232739D01*
X206500Y232652D01*
Y234500D01*
D02*
G37*
G36*
X169000Y232348D02*
Y230500D01*
X170848D01*
X170761Y230936D01*
X170230Y231730D01*
X169436Y232261D01*
X169000Y232348D01*
D02*
G37*
G36*
X168000D02*
X167564Y232261D01*
X166770Y231730D01*
X166239Y230936D01*
X166152Y230500D01*
X168000D01*
Y232348D01*
D02*
G37*
G36*
X170848Y229500D02*
X169000D01*
Y227652D01*
X169436Y227739D01*
X170230Y228270D01*
X170761Y229064D01*
X170848Y229500D01*
D02*
G37*
G36*
X168000D02*
X166152D01*
X166239Y229064D01*
X166770Y228270D01*
X167564Y227739D01*
X168000Y227652D01*
Y229500D01*
D02*
G37*
G36*
X139000Y227039D02*
X138220Y226884D01*
X137558Y226442D01*
X137344Y226121D01*
X126656D01*
X126442Y226442D01*
X125780Y226884D01*
X125000Y227039D01*
X124220Y226884D01*
X123558Y226442D01*
X123116Y225780D01*
X122961Y225000D01*
X123116Y224220D01*
X123558Y223558D01*
X124220Y223116D01*
X125000Y222961D01*
X125780Y223116D01*
X126442Y223558D01*
X126656Y223879D01*
X137344D01*
X137558Y223558D01*
X138220Y223116D01*
X139000Y222961D01*
X139780Y223116D01*
X140442Y223558D01*
X140884Y224220D01*
X141039Y225000D01*
X140884Y225780D01*
X140442Y226442D01*
X139780Y226884D01*
X139000Y227039D01*
D02*
G37*
G36*
X340000Y221072D02*
X338816Y220916D01*
X337712Y220459D01*
X336764Y219732D01*
X336037Y218784D01*
X335580Y217681D01*
X335424Y216496D01*
X335580Y215312D01*
X336037Y214208D01*
X336764Y213260D01*
X337712Y212533D01*
X338816Y212076D01*
X340000Y211920D01*
X341184Y212076D01*
X342288Y212533D01*
X343236Y213260D01*
X343963Y214208D01*
X344420Y215312D01*
X344576Y216496D01*
X344420Y217681D01*
X343963Y218784D01*
X343236Y219732D01*
X342288Y220459D01*
X341184Y220916D01*
X340000Y221072D01*
D02*
G37*
G36*
X280000D02*
X278816Y220916D01*
X277712Y220459D01*
X276764Y219732D01*
X276037Y218784D01*
X275580Y217681D01*
X275424Y216496D01*
X275580Y215312D01*
X276037Y214208D01*
X276764Y213260D01*
X277712Y212533D01*
X278816Y212076D01*
X280000Y211920D01*
X281184Y212076D01*
X282288Y212533D01*
X283236Y213260D01*
X283963Y214208D01*
X284420Y215312D01*
X284576Y216496D01*
X284420Y217681D01*
X283963Y218784D01*
X283236Y219732D01*
X282288Y220459D01*
X281184Y220916D01*
X280000Y221072D01*
D02*
G37*
G36*
X220000D02*
X218816Y220916D01*
X217712Y220459D01*
X216764Y219732D01*
X216037Y218784D01*
X215580Y217681D01*
X215424Y216496D01*
X215580Y215312D01*
X216037Y214208D01*
X216764Y213260D01*
X217712Y212533D01*
X218816Y212076D01*
X220000Y211920D01*
X221184Y212076D01*
X222288Y212533D01*
X223236Y213260D01*
X223963Y214208D01*
X224420Y215312D01*
X224576Y216496D01*
X224420Y217681D01*
X223963Y218784D01*
X223236Y219732D01*
X222288Y220459D01*
X221184Y220916D01*
X220000Y221072D01*
D02*
G37*
G36*
X160000D02*
X158816Y220916D01*
X157712Y220459D01*
X156764Y219732D01*
X156037Y218784D01*
X155580Y217681D01*
X155424Y216496D01*
X155580Y215312D01*
X156037Y214208D01*
X156764Y213260D01*
X157712Y212533D01*
X158816Y212076D01*
X160000Y211920D01*
X161184Y212076D01*
X162288Y212533D01*
X163236Y213260D01*
X163963Y214208D01*
X164420Y215312D01*
X164576Y216496D01*
X164420Y217681D01*
X163963Y218784D01*
X163236Y219732D01*
X162288Y220459D01*
X161184Y220916D01*
X160000Y221072D01*
D02*
G37*
G36*
X357500Y209064D02*
X356316Y208908D01*
X355212Y208451D01*
X354264Y207724D01*
X353537Y206776D01*
X353080Y205673D01*
X352924Y204488D01*
X353080Y203304D01*
X353537Y202200D01*
X354264Y201252D01*
X355212Y200525D01*
X356316Y200068D01*
X357500Y199912D01*
X358684Y200068D01*
X359788Y200525D01*
X360736Y201252D01*
X361463Y202200D01*
X361920Y203304D01*
X362076Y204488D01*
X361920Y205673D01*
X361463Y206776D01*
X360736Y207724D01*
X359788Y208451D01*
X358684Y208908D01*
X357500Y209064D01*
D02*
G37*
G36*
X322500D02*
X321316Y208908D01*
X320212Y208451D01*
X319264Y207724D01*
X318537Y206776D01*
X318080Y205673D01*
X317924Y204488D01*
X318080Y203304D01*
X318537Y202200D01*
X319264Y201252D01*
X320212Y200525D01*
X321316Y200068D01*
X322500Y199912D01*
X323684Y200068D01*
X324788Y200525D01*
X325736Y201252D01*
X326463Y202200D01*
X326920Y203304D01*
X327076Y204488D01*
X326920Y205673D01*
X326463Y206776D01*
X325736Y207724D01*
X324788Y208451D01*
X323684Y208908D01*
X322500Y209064D01*
D02*
G37*
G36*
X297500D02*
X296316Y208908D01*
X295212Y208451D01*
X294264Y207724D01*
X293537Y206776D01*
X293080Y205673D01*
X292924Y204488D01*
X293080Y203304D01*
X293537Y202200D01*
X294264Y201252D01*
X295212Y200525D01*
X296316Y200068D01*
X297500Y199912D01*
X298684Y200068D01*
X299788Y200525D01*
X300736Y201252D01*
X301463Y202200D01*
X301920Y203304D01*
X302076Y204488D01*
X301920Y205673D01*
X301463Y206776D01*
X300736Y207724D01*
X299788Y208451D01*
X298684Y208908D01*
X297500Y209064D01*
D02*
G37*
G36*
X262500D02*
X261316Y208908D01*
X260212Y208451D01*
X259264Y207724D01*
X258537Y206776D01*
X258080Y205673D01*
X257924Y204488D01*
X258080Y203304D01*
X258537Y202200D01*
X259264Y201252D01*
X260212Y200525D01*
X261316Y200068D01*
X262500Y199912D01*
X263684Y200068D01*
X264788Y200525D01*
X265736Y201252D01*
X266463Y202200D01*
X266920Y203304D01*
X267076Y204488D01*
X266920Y205673D01*
X266463Y206776D01*
X265736Y207724D01*
X264788Y208451D01*
X263684Y208908D01*
X262500Y209064D01*
D02*
G37*
G36*
X237500D02*
X236316Y208908D01*
X235212Y208451D01*
X234264Y207724D01*
X233537Y206776D01*
X233080Y205673D01*
X232924Y204488D01*
X233080Y203304D01*
X233537Y202200D01*
X234264Y201252D01*
X235212Y200525D01*
X236316Y200068D01*
X237500Y199912D01*
X238684Y200068D01*
X239788Y200525D01*
X240736Y201252D01*
X241463Y202200D01*
X241920Y203304D01*
X242076Y204488D01*
X241920Y205673D01*
X241463Y206776D01*
X240736Y207724D01*
X239788Y208451D01*
X238684Y208908D01*
X237500Y209064D01*
D02*
G37*
G36*
X202500D02*
X201316Y208908D01*
X200212Y208451D01*
X199264Y207724D01*
X198537Y206776D01*
X198080Y205673D01*
X197924Y204488D01*
X198080Y203304D01*
X198537Y202200D01*
X199264Y201252D01*
X200212Y200525D01*
X201316Y200068D01*
X202500Y199912D01*
X203684Y200068D01*
X204788Y200525D01*
X205736Y201252D01*
X206463Y202200D01*
X206920Y203304D01*
X207076Y204488D01*
X206920Y205673D01*
X206463Y206776D01*
X205736Y207724D01*
X204788Y208451D01*
X203684Y208908D01*
X202500Y209064D01*
D02*
G37*
G36*
X177500D02*
X176316Y208908D01*
X175212Y208451D01*
X174264Y207724D01*
X173537Y206776D01*
X173080Y205673D01*
X172924Y204488D01*
X173080Y203304D01*
X173537Y202200D01*
X174264Y201252D01*
X175212Y200525D01*
X176316Y200068D01*
X177500Y199912D01*
X178684Y200068D01*
X179788Y200525D01*
X180736Y201252D01*
X181463Y202200D01*
X181920Y203304D01*
X182076Y204488D01*
X181920Y205673D01*
X181463Y206776D01*
X180736Y207724D01*
X179788Y208451D01*
X178684Y208908D01*
X177500Y209064D01*
D02*
G37*
G36*
X142500D02*
X141316Y208908D01*
X140212Y208451D01*
X139264Y207724D01*
X138537Y206776D01*
X138080Y205673D01*
X137924Y204488D01*
X138080Y203304D01*
X138537Y202200D01*
X139264Y201252D01*
X140212Y200525D01*
X141316Y200068D01*
X142500Y199912D01*
X143684Y200068D01*
X144788Y200525D01*
X145736Y201252D01*
X146463Y202200D01*
X146920Y203304D01*
X147076Y204488D01*
X146920Y205673D01*
X146463Y206776D01*
X145736Y207724D01*
X144788Y208451D01*
X143684Y208908D01*
X142500Y209064D01*
D02*
G37*
G36*
X392000Y193671D02*
X390816Y193515D01*
X389712Y193058D01*
X388764Y192330D01*
X388037Y191383D01*
X387580Y190279D01*
X387424Y189094D01*
X387580Y187910D01*
X388037Y186806D01*
X388764Y185859D01*
X389712Y185131D01*
X390816Y184674D01*
X392000Y184518D01*
X393184Y184674D01*
X394288Y185131D01*
X395236Y185859D01*
X395963Y186806D01*
X396420Y187910D01*
X396576Y189094D01*
X396420Y190279D01*
X395963Y191383D01*
X395236Y192330D01*
X394288Y193058D01*
X393184Y193515D01*
X392000Y193671D01*
D02*
G37*
G36*
X344094Y192301D02*
X342653Y192111D01*
X341310Y191555D01*
X340157Y190670D01*
X339272Y189517D01*
X338715Y188174D01*
X338526Y186732D01*
X338715Y185291D01*
X339272Y183948D01*
X340157Y182794D01*
X341310Y181910D01*
X342653Y181353D01*
X344094Y181163D01*
X345536Y181353D01*
X346879Y181910D01*
X348032Y182794D01*
X348917Y183948D01*
X349474Y185291D01*
X349663Y186732D01*
X349474Y188174D01*
X348917Y189517D01*
X348032Y190670D01*
X346879Y191555D01*
X345536Y192111D01*
X344094Y192301D01*
D02*
G37*
G36*
X155905D02*
X154464Y192111D01*
X153121Y191555D01*
X151968Y190670D01*
X151083Y189517D01*
X150526Y188174D01*
X150337Y186732D01*
X150526Y185291D01*
X151083Y183948D01*
X151968Y182794D01*
X153121Y181910D01*
X154464Y181353D01*
X155905Y181163D01*
X157347Y181353D01*
X158690Y181910D01*
X159843Y182794D01*
X160728Y183948D01*
X161285Y185291D01*
X161474Y186732D01*
X161285Y188174D01*
X160728Y189517D01*
X159843Y190670D01*
X158690Y191555D01*
X157347Y192111D01*
X155905Y192301D01*
D02*
G37*
G36*
X135343Y181804D02*
Y177390D01*
X139756D01*
X139652Y178179D01*
X139155Y179380D01*
X138364Y180411D01*
X137332Y181202D01*
X136131Y181700D01*
X135343Y181804D01*
D02*
G37*
G36*
X134343D02*
X133554Y181700D01*
X132353Y181202D01*
X131321Y180411D01*
X130530Y179380D01*
X130033Y178179D01*
X129929Y177390D01*
X134343D01*
Y181804D01*
D02*
G37*
G36*
X392000Y180663D02*
X391278Y180568D01*
X390605Y180290D01*
X390028Y179846D01*
X389584Y179269D01*
X389306Y178596D01*
X389211Y177874D01*
X389306Y177152D01*
X389584Y176479D01*
X390028Y175902D01*
X390605Y175459D01*
X391278Y175180D01*
X392000Y175085D01*
X392722Y175180D01*
X393395Y175459D01*
X393972Y175902D01*
X394415Y176479D01*
X394694Y177152D01*
X394789Y177874D01*
X394694Y178596D01*
X394415Y179269D01*
X393972Y179846D01*
X393395Y180290D01*
X392722Y180568D01*
X392000Y180663D01*
D02*
G37*
G36*
X365158Y181466D02*
X363973Y181310D01*
X362869Y180853D01*
X361922Y180126D01*
X361194Y179178D01*
X360737Y178074D01*
X360581Y176890D01*
X360737Y175705D01*
X361194Y174602D01*
X361922Y173654D01*
X362869Y172927D01*
X363973Y172469D01*
X365158Y172314D01*
X366342Y172469D01*
X367446Y172927D01*
X368393Y173654D01*
X369121Y174602D01*
X369578Y175705D01*
X369734Y176890D01*
X369578Y178074D01*
X369121Y179178D01*
X368393Y180126D01*
X367446Y180853D01*
X366342Y181310D01*
X365158Y181466D01*
D02*
G37*
G36*
X139756Y176390D02*
X135343D01*
Y171976D01*
X136131Y172080D01*
X137332Y172577D01*
X138364Y173369D01*
X139155Y174400D01*
X139652Y175601D01*
X139756Y176390D01*
D02*
G37*
G36*
X134343D02*
X129929D01*
X130033Y175601D01*
X130530Y174400D01*
X131321Y173369D01*
X132353Y172577D01*
X133554Y172080D01*
X134343Y171976D01*
Y176390D01*
D02*
G37*
G36*
X115000Y172539D02*
X114220Y172384D01*
X113558Y171942D01*
X113116Y171280D01*
X113005Y170722D01*
X112495D01*
X112384Y171280D01*
X111942Y171942D01*
X111280Y172384D01*
X110500Y172539D01*
X109720Y172384D01*
X109058Y171942D01*
X108616Y171280D01*
X108461Y170500D01*
X108616Y169720D01*
X109058Y169058D01*
X109720Y168616D01*
X110500Y168461D01*
X110878Y168536D01*
X114878Y164535D01*
Y155656D01*
X114558Y155442D01*
X114116Y154780D01*
X113961Y154000D01*
X114116Y153220D01*
X114558Y152558D01*
X115220Y152116D01*
X116000Y151961D01*
X116780Y152116D01*
X117442Y152558D01*
X117884Y153220D01*
X117985Y153726D01*
X117995Y153778D01*
X118505D01*
X118515Y153726D01*
X118616Y153220D01*
X119058Y152558D01*
X119720Y152116D01*
X120500Y151961D01*
X121280Y152116D01*
X121942Y152558D01*
X122384Y153220D01*
X122539Y154000D01*
X122384Y154780D01*
X121942Y155442D01*
X121622Y155656D01*
Y165000D01*
X121536Y165429D01*
X121293Y165793D01*
X121293Y165793D01*
X116964Y170122D01*
X117039Y170500D01*
X116884Y171280D01*
X116442Y171942D01*
X115780Y172384D01*
X115000Y172539D01*
D02*
G37*
G36*
X392000Y172789D02*
X391278Y172694D01*
X390605Y172415D01*
X390028Y171972D01*
X389584Y171395D01*
X389306Y170722D01*
X389211Y170000D01*
X389306Y169278D01*
X389584Y168605D01*
X390028Y168028D01*
X390605Y167585D01*
X391278Y167306D01*
X392000Y167211D01*
X392722Y167306D01*
X393395Y167585D01*
X393972Y168028D01*
X394415Y168605D01*
X394694Y169278D01*
X394789Y170000D01*
X394694Y170722D01*
X394415Y171395D01*
X393972Y171972D01*
X393395Y172415D01*
X392722Y172694D01*
X392000Y172789D01*
D02*
G37*
G36*
Y164915D02*
X391278Y164820D01*
X390605Y164541D01*
X390028Y164098D01*
X389584Y163521D01*
X389306Y162848D01*
X389211Y162126D01*
X389306Y161404D01*
X389584Y160731D01*
X390028Y160154D01*
X390605Y159710D01*
X391278Y159432D01*
X392000Y159337D01*
X392722Y159432D01*
X393395Y159710D01*
X393972Y160154D01*
X394415Y160731D01*
X394694Y161404D01*
X394789Y162126D01*
X394694Y162848D01*
X394415Y163521D01*
X393972Y164098D01*
X393395Y164541D01*
X392722Y164820D01*
X392000Y164915D01*
D02*
G37*
G36*
X134843Y167686D02*
X133658Y167531D01*
X132554Y167073D01*
X131607Y166346D01*
X130879Y165398D01*
X130422Y164295D01*
X130266Y163110D01*
X130422Y161926D01*
X130879Y160822D01*
X131607Y159874D01*
X132554Y159147D01*
X133658Y158690D01*
X134843Y158534D01*
X136027Y158690D01*
X137131Y159147D01*
X138078Y159874D01*
X138806Y160822D01*
X139263Y161926D01*
X139419Y163110D01*
X139263Y164295D01*
X138806Y165398D01*
X138078Y166346D01*
X137131Y167073D01*
X136027Y167531D01*
X134843Y167686D01*
D02*
G37*
G36*
X348819Y158837D02*
X347378Y158647D01*
X346035Y158090D01*
X344881Y157205D01*
X343996Y156052D01*
X343440Y154709D01*
X343250Y153268D01*
X343440Y151826D01*
X343996Y150483D01*
X344881Y149330D01*
X346035Y148445D01*
X347378Y147889D01*
X348819Y147699D01*
X350260Y147889D01*
X351603Y148445D01*
X352757Y149330D01*
X353642Y150483D01*
X354198Y151826D01*
X354388Y153268D01*
X354198Y154709D01*
X353642Y156052D01*
X352757Y157205D01*
X351603Y158090D01*
X350260Y158647D01*
X348819Y158837D01*
D02*
G37*
G36*
X151181D02*
X149740Y158647D01*
X148397Y158090D01*
X147243Y157205D01*
X146358Y156052D01*
X145802Y154709D01*
X145612Y153268D01*
X145802Y151826D01*
X146358Y150483D01*
X147243Y149330D01*
X148397Y148445D01*
X149740Y147889D01*
X151181Y147699D01*
X152622Y147889D01*
X153966Y148445D01*
X155119Y149330D01*
X156004Y150483D01*
X156560Y151826D01*
X156750Y153268D01*
X156560Y154709D01*
X156004Y156052D01*
X155119Y157205D01*
X153966Y158090D01*
X152622Y158647D01*
X151181Y158837D01*
D02*
G37*
G36*
X392000Y155482D02*
X390816Y155326D01*
X389712Y154869D01*
X388764Y154141D01*
X388037Y153194D01*
X387580Y152090D01*
X387424Y150906D01*
X387580Y149721D01*
X388037Y148617D01*
X388764Y147670D01*
X389712Y146942D01*
X390816Y146485D01*
X392000Y146329D01*
X393184Y146485D01*
X394288Y146942D01*
X395236Y147670D01*
X395963Y148617D01*
X396420Y149721D01*
X396576Y150906D01*
X396420Y152090D01*
X395963Y153194D01*
X395236Y154141D01*
X394288Y154869D01*
X393184Y155326D01*
X392000Y155482D01*
D02*
G37*
G36*
X116500Y145348D02*
Y143500D01*
X118348D01*
X118261Y143936D01*
X117730Y144730D01*
X116936Y145261D01*
X116500Y145348D01*
D02*
G37*
G36*
X115500D02*
X115064Y145261D01*
X114270Y144730D01*
X113739Y143936D01*
X113652Y143500D01*
X115500D01*
Y145348D01*
D02*
G37*
G36*
X118348Y142500D02*
X116500D01*
Y140652D01*
X116936Y140739D01*
X117730Y141270D01*
X118261Y142064D01*
X118348Y142500D01*
D02*
G37*
G36*
X115500D02*
X113652D01*
X113739Y142064D01*
X114270Y141270D01*
X115064Y140739D01*
X115500Y140652D01*
Y142500D01*
D02*
G37*
G36*
X180500Y120348D02*
Y118500D01*
X182348D01*
X182261Y118936D01*
X181730Y119730D01*
X180936Y120261D01*
X180500Y120348D01*
D02*
G37*
G36*
X179500D02*
X179064Y120261D01*
X178270Y119730D01*
X177739Y118936D01*
X177652Y118500D01*
X179500D01*
Y120348D01*
D02*
G37*
G36*
X182348Y117500D02*
X180500D01*
Y115652D01*
X180936Y115739D01*
X181730Y116270D01*
X182261Y117064D01*
X182348Y117500D01*
D02*
G37*
G36*
X179500D02*
X177652D01*
X177739Y117064D01*
X178270Y116270D01*
X179064Y115739D01*
X179500Y115652D01*
Y117500D01*
D02*
G37*
G36*
X384500Y129786D02*
X382681Y129643D01*
X380419Y129100D01*
X378270Y128209D01*
X376286Y126994D01*
X374517Y125483D01*
X373006Y123714D01*
X371791Y121730D01*
X370900Y119581D01*
X370357Y117319D01*
X370214Y115500D01*
X384500D01*
Y129786D01*
D02*
G37*
G36*
X115500D02*
Y115500D01*
X129786D01*
X129643Y117319D01*
X129100Y119581D01*
X128209Y121730D01*
X126994Y123714D01*
X125483Y125483D01*
X123714Y126994D01*
X121730Y128209D01*
X119581Y129100D01*
X117319Y129643D01*
X115500Y129786D01*
D02*
G37*
G36*
X190500Y114348D02*
Y112500D01*
X192348D01*
X192261Y112936D01*
X191730Y113730D01*
X190936Y114261D01*
X190500Y114348D01*
D02*
G37*
G36*
X189500D02*
X189064Y114261D01*
X188270Y113730D01*
X187739Y112936D01*
X187652Y112500D01*
X189500D01*
Y114348D01*
D02*
G37*
G36*
X177500Y113348D02*
Y111500D01*
X179348D01*
X179261Y111936D01*
X178730Y112730D01*
X177936Y113261D01*
X177500Y113348D01*
D02*
G37*
G36*
X176500D02*
X176064Y113261D01*
X175270Y112730D01*
X174739Y111936D01*
X174652Y111500D01*
X176500D01*
Y113348D01*
D02*
G37*
G36*
X192348Y111500D02*
X190500D01*
Y109652D01*
X190936Y109739D01*
X191730Y110270D01*
X192261Y111064D01*
X192348Y111500D01*
D02*
G37*
G36*
X189500D02*
X187652D01*
X187739Y111064D01*
X188270Y110270D01*
X189064Y109739D01*
X189500Y109652D01*
Y111500D01*
D02*
G37*
G36*
X179348Y110500D02*
X177500D01*
Y108652D01*
X177936Y108739D01*
X178730Y109270D01*
X179261Y110064D01*
X179348Y110500D01*
D02*
G37*
G36*
X176500D02*
X174652D01*
X174739Y110064D01*
X175270Y109270D01*
X176064Y108739D01*
X176500Y108652D01*
Y110500D01*
D02*
G37*
%LPD*%
G36*
X119378Y164535D02*
Y155656D01*
X119058Y155442D01*
X118616Y154780D01*
X118515Y154274D01*
X118505Y154222D01*
X117995D01*
X117985Y154274D01*
X117884Y154780D01*
X117442Y155442D01*
X117122Y155656D01*
Y165000D01*
X117036Y165429D01*
X116793Y165793D01*
X116793Y165793D01*
X114544Y168042D01*
X114791Y168502D01*
X115000Y168461D01*
X115378Y168536D01*
X119378Y164535D01*
D02*
G37*
D14*
X155500Y283000D02*
X170000D01*
X146000Y292500D02*
X155500Y283000D01*
X146000Y292500D02*
Y314000D01*
X297500Y349500D02*
X314500D01*
X292500Y305000D02*
X298399D01*
X275000Y322500D02*
X292500Y305000D01*
X275000Y322500D02*
Y346500D01*
X282500Y320500D02*
Y347000D01*
Y320500D02*
X295500Y307500D01*
X298399Y305000D02*
X300399Y307000D01*
X300500D01*
X258000Y310500D02*
Y346000D01*
X252000Y304500D02*
X258000Y310500D01*
X256500Y353000D02*
X265000D01*
X250000Y346500D02*
X256500Y353000D01*
X250000Y308500D02*
Y346500D01*
X233500Y350000D02*
X242500D01*
X232000Y348500D02*
X233500Y350000D01*
X232000Y307500D02*
Y348500D01*
X235000Y318000D02*
Y346500D01*
Y318000D02*
X245000Y308000D01*
X219500Y340500D02*
X224500Y345500D01*
X212500Y340500D02*
X219500D01*
X200500Y328500D02*
X212500Y340500D01*
X200500Y307000D02*
Y328500D01*
X207000Y345500D02*
X217500D01*
X195500Y334000D02*
X207000Y345500D01*
X195500Y305500D02*
Y334000D01*
X250500Y300500D02*
X267500D01*
X247000Y304000D02*
X250500Y300500D01*
X297500Y301000D02*
X302500D01*
X304500Y303000D01*
Y317500D01*
X190500Y302000D02*
X214500D01*
X125000Y225000D02*
X139000D01*
X174500Y269500D02*
Y278500D01*
X170000Y283000D02*
X174500Y278500D01*
X169500Y264500D02*
X174500Y269500D01*
X115000Y170500D02*
X120500Y165000D01*
Y154000D02*
Y165000D01*
X110500Y170500D02*
X116000Y165000D01*
Y154000D02*
Y165000D01*
D18*
X253000Y297500D02*
X257000D01*
X250500Y295000D02*
X253000Y297500D01*
X257000D02*
X262000Y292500D01*
X245000Y295000D02*
X250500D01*
X262000Y292500D02*
X306500D01*
X199500Y295500D02*
Y296500D01*
X195216Y291216D02*
X199500Y295500D01*
X210500Y292000D02*
X252500D01*
X202500Y300000D02*
X210500Y292000D01*
X193500Y300000D02*
X202500D01*
X190500Y297000D02*
X193500Y300000D01*
X190500Y293500D02*
Y297000D01*
X197800Y298800D02*
X201453D01*
X195500Y296500D02*
X197800Y298800D01*
X202000Y286874D02*
X202800Y287674D01*
Y297453D01*
X201453Y298800D02*
X202800Y297453D01*
X252500Y292000D02*
X255000Y294500D01*
X167000Y280000D02*
X170000Y277000D01*
X155000Y280000D02*
X167000D01*
X150500Y275500D02*
X155000Y280000D01*
X150500Y267500D02*
X159500Y276500D01*
X163500D01*
X199000Y279000D02*
Y289500D01*
X197000Y277000D02*
X199000Y279000D01*
X193000Y277000D02*
X197000D01*
X190000Y280000D02*
X193000Y277000D01*
X190000Y280000D02*
Y283000D01*
X202000Y276500D02*
Y286874D01*
X195216Y280463D02*
Y291216D01*
X235500Y282500D02*
X242000Y276000D01*
X239500Y286500D02*
X245500Y280500D01*
D19*
X250000Y368500D02*
X290000D01*
X210000D02*
X250000D01*
D57*
X392000Y162126D02*
D03*
Y177874D02*
D03*
Y170000D02*
D03*
D58*
Y150906D02*
D03*
Y189094D02*
D03*
X365158Y176890D02*
D03*
X134843Y163110D02*
D03*
Y176890D02*
D03*
X116000Y398000D02*
D03*
X142500Y204488D02*
D03*
X177500Y435512D02*
D03*
X142500D02*
D03*
X177500Y204488D02*
D03*
X160000Y216496D02*
D03*
Y423504D02*
D03*
X237500Y435512D02*
D03*
X202500Y204488D02*
D03*
X237500D02*
D03*
X202500Y435512D02*
D03*
X220000Y423504D02*
D03*
Y216496D02*
D03*
X262500Y204488D02*
D03*
X297500Y435512D02*
D03*
X262500D02*
D03*
X297500Y204488D02*
D03*
X280000Y216496D02*
D03*
Y423504D02*
D03*
X357500Y435512D02*
D03*
X322500Y204488D02*
D03*
X357500D02*
D03*
X322500Y435512D02*
D03*
X340000Y423504D02*
D03*
Y216496D02*
D03*
D59*
X348819Y153268D02*
D03*
X151181D02*
D03*
X155905Y186732D02*
D03*
X344094D02*
D03*
D60*
X385000Y115000D02*
D03*
X115000D02*
D03*
Y435000D02*
D03*
X385000D02*
D03*
D61*
X116000Y378315D02*
D03*
D62*
X190000Y112000D02*
D03*
X225500Y147500D02*
D03*
X161000Y301000D02*
D03*
X290000Y368500D02*
D03*
X250000D02*
D03*
X210000D02*
D03*
X146000Y314000D02*
D03*
X314500Y349500D02*
D03*
X297500D02*
D03*
X242500Y350000D02*
D03*
X232000Y307500D02*
D03*
X252000Y304500D02*
D03*
X250000Y308500D02*
D03*
X267500Y300500D02*
D03*
X304500Y317500D02*
D03*
X282500Y347000D02*
D03*
X275000Y346500D02*
D03*
X265000Y353000D02*
D03*
X258000Y346000D02*
D03*
X235000Y346500D02*
D03*
X224500Y345500D02*
D03*
X217500D02*
D03*
X214500Y302000D02*
D03*
X195500Y305500D02*
D03*
X297500Y301000D02*
D03*
X300500Y307000D02*
D03*
X295500Y307500D02*
D03*
X247000Y304000D02*
D03*
X245000Y308000D02*
D03*
X200500Y307000D02*
D03*
X190500Y302000D02*
D03*
X180000Y118000D02*
D03*
X240500Y263000D02*
D03*
X199500Y296500D02*
D03*
X195500D02*
D03*
X255000Y294500D02*
D03*
X190500Y293500D02*
D03*
X207500Y242000D02*
D03*
Y250000D02*
D03*
X139000Y225000D02*
D03*
X125000D02*
D03*
X207000Y235000D02*
D03*
X150500Y267500D02*
D03*
Y275500D02*
D03*
X163500Y276500D02*
D03*
X170000Y277000D02*
D03*
X130000Y287500D02*
D03*
X169500Y264500D02*
D03*
X182000Y259000D02*
D03*
X169000Y237000D02*
D03*
X168500Y230000D02*
D03*
X169000Y244000D02*
D03*
X160500Y291000D02*
D03*
X115000Y170500D02*
D03*
X110500D02*
D03*
X120500Y154000D02*
D03*
X116000D02*
D03*
X199000Y289500D02*
D03*
X190000Y283000D02*
D03*
X202000Y276500D02*
D03*
X195216Y280463D02*
D03*
X242000Y276000D02*
D03*
X235500Y282500D02*
D03*
X245500Y280500D02*
D03*
X239500Y286500D02*
D03*
X306500Y292500D02*
D03*
X245000Y295000D02*
D03*
X315500Y408000D02*
D03*
X275000D02*
D03*
X235500Y408500D02*
D03*
X214000Y288500D02*
D03*
X267000D02*
D03*
X319000Y290500D02*
D03*
X220500Y283000D02*
D03*
X273500Y282500D02*
D03*
X140500Y342000D02*
D03*
X362000Y243000D02*
D03*
X343000Y302500D02*
D03*
X359500Y275000D02*
D03*
X340500Y237500D02*
D03*
X116000Y143000D02*
D03*
X177000Y111000D02*
D03*
M02*
