M48
;Layer_Color=9474304
;FILE_FORMAT=2:5
INCH,LZ
;TYPE=PLATED
T1F00S00C0.01400
T2F00S00C0.02756
T3F00S00C0.04724
T4F00S00C0.05118
T5F00S00C0.05512
T6F00S00C0.05709
T7F00S00C0.06693
T8F00S00C0.13780
%
T01
X0116Y0143
Y0154
X01205
X018Y0118
X0177Y0111
X019Y0112
X02255Y01475
X03405Y02375
X0362Y0243
X03595Y0275
X0343Y03025
X0319Y02905
X03065Y02925
X02975Y0301
X02955Y03075
X03005Y0307
X02675Y03005
X0267Y02885
X02735Y02825
X02455Y02805
X0242Y0276
X02355Y02825
X02395Y02865
X0245Y0295
X0255Y02945
X0252Y03045
X0247Y0304
X0245Y0308
X025Y03085
X0232Y03075
X02145Y0302
X0214Y02885
X02205Y0283
X0202Y02765
X0195216Y0280463
X019Y0283
X01905Y02935
X01955Y02965
X01995
X0199Y02895
X02005Y0307
X01955Y03055
X01905Y0302
X0161Y0301
X01605Y0291
X01635Y02765
X017Y0277
X01695Y02645
X0182Y0259
X0169Y0244
Y0237
X01685Y023
X0207Y0235
X02075Y0242
Y025
X02405Y0263
X01505Y02675
Y02755
X013Y02875
X0125Y0225
X0139
X0115Y01705
X01105
X0146Y0314
X01405Y0342
X02175Y03455
X02245
X0235Y03465
X02425Y035
X0258Y0346
X0265Y0353
X0275Y03465
X02825Y0347
X02975Y03495
X029Y03685
X025
X021
X02355Y04085
X0275Y0408
X03045Y03175
X03145Y03495
X03155Y0408
T02
X0392Y0162126
Y017
Y0177874
T03
X0365158Y017689
X0134843
Y016311
T04
X0116Y0378315
Y0398
T05
X0392Y0150906
Y0189094
T06
X03225Y0204488
X034Y0216496
X03575Y0204488
X02975
X028Y0216496
X02625Y0204488
X02375
X022Y0216496
X02025Y0204488
X01775
X016Y0216496
X01425Y0204488
Y0435512
X016Y0423504
X01775Y0435512
X02025
X022Y0423504
X02375Y0435512
X02625
X028Y0423504
X02975Y0435512
X03225
X034Y0423504
X03575Y0435512
T07
X0151181Y0153268
X0348819
X0344094Y0186732
X0155905
T08
X0115Y0115
X0385
X0115Y0435
X0385
M30
