G04*
G04 #@! TF.GenerationSoftware,Altium Limited,Altium Designer,19.1.8 (144)*
G04*
G04 Layer_Physical_Order=1*
G04 Layer_Color=255*
%FSLAX25Y25*%
%MOIN*%
G70*
G01*
G75*
%ADD14C,0.01000*%
%ADD18C,0.00600*%
%ADD19C,0.02000*%
%ADD43O,0.02362X0.03937*%
%ADD44R,0.08465X0.12598*%
%ADD45R,0.08465X0.03543*%
%ADD46R,0.03150X0.05906*%
%ADD47R,0.02362X0.01181*%
%ADD48O,0.01476X0.05512*%
%ADD49R,0.02362X0.06063*%
%ADD50O,0.05512X0.01476*%
%ADD51R,0.06299X0.03937*%
%ADD52R,0.03937X0.06299*%
%ADD53R,0.03740X0.03740*%
%ADD54R,0.03740X0.03740*%
%ADD55R,0.05906X0.11811*%
G04:AMPARAMS|DCode=56|XSize=29.92mil|YSize=94.49mil|CornerRadius=7.48mil|HoleSize=0mil|Usage=FLASHONLY|Rotation=180.000|XOffset=0mil|YOffset=0mil|HoleType=Round|Shape=RoundedRectangle|*
%AMROUNDEDRECTD56*
21,1,0.02992,0.07953,0,0,180.0*
21,1,0.01496,0.09449,0,0,180.0*
1,1,0.01496,-0.00748,0.03976*
1,1,0.01496,0.00748,0.03976*
1,1,0.01496,0.00748,-0.03976*
1,1,0.01496,-0.00748,-0.03976*
%
%ADD56ROUNDEDRECTD56*%
%ADD57C,0.04331*%
%ADD58C,0.07874*%
%ADD59C,0.09843*%
%ADD60C,0.27559*%
%ADD61R,0.07874X0.07874*%
%ADD62C,0.02800*%
G36*
X303878Y349500D02*
X303878Y349500D01*
X303964Y349071D01*
X304207Y348707D01*
X309878Y343035D01*
Y322000D01*
X309878Y322000D01*
X309964Y321571D01*
X310207Y321207D01*
X318645Y312769D01*
X318621Y312672D01*
X318067Y312519D01*
X315793Y314793D01*
X315429Y315036D01*
X315000Y315122D01*
X315000Y315122D01*
X305357D01*
X305280Y315616D01*
X305942Y316058D01*
X306384Y316720D01*
X306539Y317500D01*
X306384Y318280D01*
X305942Y318942D01*
X305622Y319156D01*
Y328967D01*
X308513D01*
Y341978D01*
X301533D01*
X301408Y341978D01*
X301033D01*
X300908Y341978D01*
X294053D01*
X293928Y341978D01*
X293553D01*
X293428Y341978D01*
X291631D01*
Y367342D01*
X291884Y367720D01*
X292039Y368500D01*
X291884Y369280D01*
X291631Y369658D01*
Y388022D01*
X293428D01*
X293553Y388022D01*
X293928D01*
X294053Y388022D01*
X296359D01*
Y351143D01*
X296058Y350942D01*
X295616Y350280D01*
X295461Y349500D01*
X295616Y348720D01*
X296058Y348058D01*
X296720Y347616D01*
X297500Y347461D01*
X298280Y347616D01*
X298942Y348058D01*
X299384Y348720D01*
X299539Y349500D01*
X299384Y350280D01*
X298942Y350942D01*
X298602Y351169D01*
Y388022D01*
X300908D01*
X301033Y388022D01*
X301408D01*
X301533Y388022D01*
X303878D01*
Y349500D01*
D02*
G37*
G36*
X208369Y369658D02*
X208116Y369280D01*
X207961Y368500D01*
X208116Y367720D01*
X208369Y367342D01*
Y341978D01*
X206572D01*
X206447Y341978D01*
X206072D01*
X205947Y341978D01*
X198967D01*
Y341978D01*
X198592D01*
Y341978D01*
X191487D01*
Y328967D01*
X193918D01*
Y315504D01*
X189492Y311078D01*
X187134D01*
X186926Y311217D01*
X186404Y311321D01*
X182368D01*
X181846Y311217D01*
X181403Y310922D01*
X181108Y310479D01*
X181004Y309957D01*
X181108Y309435D01*
X181299Y309148D01*
X181094Y308665D01*
X181078Y308648D01*
X179938D01*
X179622Y308965D01*
Y311535D01*
X189793Y321707D01*
X189793Y321707D01*
X190036Y322071D01*
X190122Y322500D01*
Y343035D01*
X203293Y356207D01*
X203293Y356207D01*
X203536Y356571D01*
X203622Y357000D01*
Y388022D01*
X205947D01*
X206072Y388022D01*
X206447D01*
X206572Y388022D01*
X208369D01*
Y369658D01*
D02*
G37*
G36*
X201378Y357465D02*
X188207Y344293D01*
X187964Y343929D01*
X187878Y343500D01*
X187878Y343500D01*
Y322965D01*
X177707Y312793D01*
X177464Y312429D01*
X177378Y312000D01*
X177378Y312000D01*
Y308500D01*
X177378Y308500D01*
X177464Y308071D01*
X177707Y307707D01*
X178681Y306733D01*
X178681Y306733D01*
X179044Y306490D01*
X179196Y306460D01*
X179147Y305960D01*
X178126D01*
X176622Y307465D01*
Y314035D01*
X186293Y323707D01*
X186293Y323707D01*
X186536Y324071D01*
X186622Y324500D01*
X186622Y324500D01*
Y344535D01*
X195832Y353746D01*
X195832Y353746D01*
X196075Y354110D01*
X196161Y354539D01*
X196161Y354539D01*
Y388022D01*
X198592D01*
Y388022D01*
X198967D01*
Y388022D01*
X201378D01*
Y357465D01*
D02*
G37*
G36*
X303379Y319156D02*
X303058Y318942D01*
X302616Y318280D01*
X302461Y317500D01*
X302616Y316720D01*
X303058Y316058D01*
X303720Y315616D01*
X303643Y315122D01*
X300965D01*
X298622Y317465D01*
Y328967D01*
X300908D01*
X301033Y328967D01*
X301408D01*
X301533Y328967D01*
X303379D01*
Y319156D01*
D02*
G37*
G36*
X296378Y317000D02*
X296378Y317000D01*
X296464Y316571D01*
X296707Y316207D01*
X299707Y313207D01*
X300071Y312964D01*
X300500Y312878D01*
X300500Y312878D01*
X314535D01*
X316338Y311075D01*
X316282Y310748D01*
X316041Y310600D01*
X315847Y310547D01*
X315597Y310922D01*
X315154Y311217D01*
X314632Y311321D01*
X310596D01*
X310074Y311217D01*
X309866Y311078D01*
X298508D01*
X283641Y325945D01*
Y328967D01*
X285947D01*
X286072Y328967D01*
X286447D01*
X286572Y328967D01*
X293428D01*
X293553Y328967D01*
X293928D01*
X294053Y328967D01*
X296378D01*
Y317000D01*
D02*
G37*
G36*
X256359Y326520D02*
X256359Y326520D01*
X256444Y326091D01*
X256687Y325727D01*
X265879Y316535D01*
Y309465D01*
X265339Y308925D01*
X265175Y308957D01*
X264943Y309349D01*
X264909Y309518D01*
X264996Y309957D01*
X264892Y310479D01*
X264597Y310922D01*
X264154Y311217D01*
X263632Y311321D01*
X259596D01*
X259074Y311217D01*
X258866Y311078D01*
X256508D01*
X243641Y323945D01*
Y328967D01*
X245947D01*
X246072Y328967D01*
X246447D01*
X246572Y328967D01*
X253428D01*
X253553Y328967D01*
X253928D01*
X254053Y328967D01*
X256359D01*
Y326520D01*
D02*
G37*
G36*
X223839Y316925D02*
X219041Y312128D01*
X218581Y312374D01*
X218602Y312480D01*
X218602Y312480D01*
Y328967D01*
X220908D01*
X221033Y328967D01*
X221408D01*
X221533Y328967D01*
X223839D01*
Y316925D01*
D02*
G37*
G36*
X216359Y312945D02*
X211933Y308519D01*
X210789D01*
X210647Y308869D01*
X210615Y309019D01*
X210892Y309435D01*
X210996Y309957D01*
X210892Y310479D01*
X210597Y310922D01*
X210154Y311217D01*
X209632Y311321D01*
X205596D01*
X205074Y311217D01*
X204866Y311078D01*
X204008D01*
X203641Y311445D01*
Y328967D01*
X205947D01*
X206072Y328967D01*
X206447D01*
X206572Y328967D01*
X213428D01*
X213553Y328967D01*
X213928D01*
X214053Y328967D01*
X216359D01*
Y312945D01*
D02*
G37*
G36*
X281398Y325480D02*
X281398Y325480D01*
X281484Y325051D01*
X281727Y324687D01*
X296727Y309687D01*
X296408Y309298D01*
X296280Y309384D01*
X295500Y309539D01*
X294720Y309384D01*
X294058Y308942D01*
X293810Y308570D01*
X292637D01*
X292510Y308771D01*
X292421Y309070D01*
X292664Y309435D01*
X292768Y309957D01*
X292664Y310479D01*
X292368Y310922D01*
X291926Y311217D01*
X291404Y311321D01*
X287368D01*
X286846Y311217D01*
X286638Y311078D01*
X284008D01*
X276161Y318925D01*
Y328967D01*
X278592D01*
Y328967D01*
X278967D01*
Y328967D01*
X281398D01*
Y325480D01*
D02*
G37*
G36*
X241398Y323480D02*
X241398Y323480D01*
X241483Y323051D01*
X241727Y322687D01*
X255250Y309164D01*
X255250Y309164D01*
X255614Y308921D01*
X256043Y308835D01*
X258439D01*
X258582Y308485D01*
X258613Y308335D01*
X258336Y307920D01*
X258232Y307398D01*
X258336Y306875D01*
X258613Y306460D01*
X258582Y306310D01*
X258439Y305960D01*
X256626D01*
X253293Y309293D01*
X252929Y309536D01*
X252500Y309622D01*
X252500Y309622D01*
X251656D01*
X251442Y309942D01*
X250780Y310384D01*
X250000Y310539D01*
X249220Y310384D01*
X248558Y309942D01*
X248116Y309280D01*
X247961Y308500D01*
X248116Y307720D01*
X248558Y307058D01*
X249220Y306616D01*
X250000Y306461D01*
X250619Y306584D01*
X250814Y306113D01*
X250558Y305942D01*
X250116Y305280D01*
X249961Y304500D01*
X250116Y303720D01*
X250558Y303058D01*
X251220Y302616D01*
X252000Y302461D01*
X252378Y302536D01*
X253427Y301486D01*
X253427Y301486D01*
X253791Y301243D01*
X254221Y301158D01*
X254221Y301158D01*
X257858D01*
X258124Y300658D01*
X258112Y300640D01*
X258107Y300638D01*
X253921D01*
X253569Y300568D01*
X253272Y300369D01*
X249515Y296613D01*
X249149Y296649D01*
X245428Y300369D01*
X245131Y300568D01*
X244779Y300638D01*
X241893D01*
X241888Y300640D01*
X241876Y300658D01*
X242142Y301158D01*
X245280D01*
X245280Y301158D01*
X245709Y301243D01*
X246073Y301486D01*
X246622Y302036D01*
X247000Y301961D01*
X247780Y302116D01*
X248442Y302558D01*
X248884Y303220D01*
X249039Y304000D01*
X248884Y304780D01*
X248442Y305442D01*
X247780Y305884D01*
X247000Y306039D01*
X246381Y305916D01*
X246186Y306387D01*
X246442Y306558D01*
X246884Y307220D01*
X247039Y308000D01*
X246884Y308780D01*
X246442Y309442D01*
X245780Y309884D01*
X245000Y310039D01*
X244220Y309884D01*
X243558Y309442D01*
X243116Y308780D01*
X242961Y308000D01*
X243036Y307622D01*
X242097Y306683D01*
X242006Y306723D01*
X241684Y306978D01*
X241768Y307398D01*
X241664Y307920D01*
X241368Y308362D01*
X241347Y308377D01*
Y308978D01*
X241368Y308992D01*
X241664Y309435D01*
X241768Y309957D01*
X241664Y310479D01*
X241368Y310922D01*
X240926Y311217D01*
X240404Y311321D01*
X236368D01*
X235846Y311217D01*
X235638Y311078D01*
X235508D01*
X234622Y311965D01*
Y328967D01*
X238592D01*
Y328967D01*
X238967D01*
Y328967D01*
X241398D01*
Y323480D01*
D02*
G37*
G36*
X201398Y310980D02*
X201398Y310980D01*
X201483Y310551D01*
X201727Y310187D01*
X202750Y309164D01*
X202750Y309164D01*
X203114Y308921D01*
X203543Y308835D01*
X204439D01*
X204582Y308485D01*
X204613Y308335D01*
X204336Y307920D01*
X204232Y307398D01*
X204336Y306875D01*
X204527Y306589D01*
X204322Y306106D01*
X204306Y306089D01*
X202997D01*
X202464Y306622D01*
X202539Y307000D01*
X202384Y307780D01*
X201942Y308442D01*
X201280Y308884D01*
X200500Y309039D01*
X199720Y308884D01*
X199058Y308442D01*
X198616Y307780D01*
X198461Y307000D01*
X198616Y306220D01*
X199058Y305558D01*
X199720Y305116D01*
X200500Y304961D01*
X200878Y305036D01*
X201740Y304174D01*
X202103Y303931D01*
X202255Y303901D01*
X202206Y303401D01*
X199185D01*
X197464Y305122D01*
X197539Y305500D01*
X197384Y306280D01*
X196942Y306942D01*
X196280Y307384D01*
X195500Y307539D01*
X194720Y307384D01*
X194058Y306942D01*
X193616Y306280D01*
X193461Y305500D01*
X193616Y304720D01*
X194058Y304058D01*
X194720Y303616D01*
X195500Y303461D01*
X195878Y303536D01*
X197927Y301486D01*
X197927Y301486D01*
X198291Y301243D01*
X198721Y301158D01*
X203991D01*
X204283Y300658D01*
X204247Y300594D01*
X204142Y300528D01*
X198610D01*
X198259Y300458D01*
X197961Y300259D01*
X196118Y298416D01*
X195500Y298539D01*
X194720Y298384D01*
X194058Y297942D01*
X193616Y297280D01*
X193468Y296537D01*
X193325Y296445D01*
X192989Y296309D01*
X189684Y299613D01*
X189931Y300074D01*
X190500Y299961D01*
X191280Y300116D01*
X191942Y300558D01*
X192384Y301220D01*
X192539Y302000D01*
X192384Y302780D01*
X191942Y303442D01*
X191280Y303884D01*
X190500Y304039D01*
X189720Y303884D01*
X189058Y303442D01*
X188945Y303272D01*
X187815D01*
X187640Y303454D01*
X187368Y303874D01*
X187664Y304316D01*
X187768Y304839D01*
X187664Y305361D01*
X187368Y305803D01*
X187347Y305817D01*
Y306419D01*
X187368Y306433D01*
X187664Y306875D01*
X187768Y307398D01*
X187664Y307920D01*
X187387Y308335D01*
X187418Y308485D01*
X187561Y308835D01*
X189957D01*
X189957Y308835D01*
X190386Y308921D01*
X190750Y309164D01*
X195832Y314246D01*
X196075Y314610D01*
X196161Y315039D01*
X196161Y315039D01*
Y328967D01*
X198592D01*
Y328967D01*
X198967D01*
Y328967D01*
X201398D01*
Y310980D01*
D02*
G37*
G36*
X309582Y308485D02*
X309613Y308335D01*
X309336Y307920D01*
X309232Y307398D01*
X309336Y306875D01*
X309632Y306433D01*
X309653Y306419D01*
Y305817D01*
X309632Y305803D01*
X309336Y305361D01*
X309232Y304839D01*
X309336Y304316D01*
X309632Y303874D01*
X309653Y303860D01*
Y303258D01*
X309632Y303244D01*
X309336Y302802D01*
X309232Y302279D01*
X309336Y301757D01*
X309632Y301315D01*
X309415Y300877D01*
X309178Y300638D01*
X300220D01*
X299928Y300580D01*
X299706Y300746D01*
X299528Y300941D01*
X299539Y301000D01*
X299384Y301780D01*
X298942Y302442D01*
X298280Y302884D01*
X297500Y303039D01*
X297200Y302979D01*
X296942Y303220D01*
X297099Y303717D01*
X298339D01*
X298339Y303717D01*
X298768Y303802D01*
X299132Y304046D01*
X300122Y305036D01*
X300500Y304961D01*
X301280Y305116D01*
X301942Y305558D01*
X302384Y306220D01*
X302539Y307000D01*
X302384Y307780D01*
X302013Y308335D01*
X302185Y308835D01*
X309439D01*
X309582Y308485D01*
D02*
G37*
G36*
X156351Y282851D02*
X156649Y282652D01*
X157000Y282582D01*
X175395D01*
X175515Y282412D01*
X175250Y281918D01*
X154880D01*
X148724Y288074D01*
X148426Y288273D01*
X148075Y288343D01*
X145817D01*
Y289895D01*
X144264D01*
Y292154D01*
X144194Y292505D01*
X143995Y292802D01*
X142649Y294149D01*
X142351Y294348D01*
X142000Y294418D01*
X131000D01*
X130649Y294348D01*
X130351Y294149D01*
X114351Y278149D01*
X114152Y277851D01*
X114082Y277500D01*
Y172292D01*
X113558Y171942D01*
X113116Y171280D01*
X113005Y170722D01*
X112495D01*
X112384Y171280D01*
X111942Y171942D01*
X111418Y172292D01*
Y278620D01*
X128880Y296082D01*
X143120D01*
X156351Y282851D01*
D02*
G37*
G36*
X208354Y275651D02*
X208652Y275452D01*
X209003Y275382D01*
X234326D01*
X234517Y274920D01*
X231014Y271418D01*
X196380D01*
X195874Y271923D01*
Y272600D01*
X195922Y272632D01*
X195935Y272653D01*
X196537D01*
X196551Y272632D01*
X196994Y272336D01*
X197516Y272232D01*
X198038Y272336D01*
X198480Y272632D01*
X198776Y273074D01*
X198880Y273597D01*
Y275582D01*
X200208D01*
X200558Y275058D01*
X201220Y274616D01*
X202000Y274461D01*
X202780Y274616D01*
X203442Y275058D01*
X203884Y275720D01*
X204039Y276500D01*
X203884Y277280D01*
X203442Y277942D01*
X202780Y278384D01*
X202000Y278539D01*
X201220Y278384D01*
X200558Y277942D01*
X200208Y277418D01*
X198880D01*
Y277632D01*
X198776Y278154D01*
X198480Y278597D01*
X198433Y278628D01*
Y280136D01*
X199680Y281382D01*
X202623D01*
X208354Y275651D01*
D02*
G37*
G36*
X152582Y266117D02*
Y258380D01*
X150750Y256548D01*
X146649Y260649D01*
X146351Y260848D01*
X146000Y260918D01*
X141750D01*
Y262568D01*
X134250D01*
Y257432D01*
X141750D01*
Y259082D01*
X145620D01*
X149452Y255250D01*
X133351Y239149D01*
X133152Y238851D01*
X133082Y238500D01*
Y204000D01*
X133152Y203649D01*
X133351Y203351D01*
X140351Y196351D01*
X140649Y196152D01*
X141000Y196082D01*
X190620D01*
X218000Y168703D01*
Y145649D01*
X212000D01*
Y172917D01*
X211930Y173268D01*
X211732Y173566D01*
X190149Y195149D01*
X189851Y195348D01*
X189500Y195418D01*
X140380D01*
X132418Y203380D01*
Y250082D01*
X134250D01*
Y248431D01*
X141750D01*
Y253569D01*
X134250D01*
Y251918D01*
X132418D01*
Y261620D01*
X134880Y264082D01*
X148000D01*
X148351Y264152D01*
X148649Y264351D01*
X149882Y265584D01*
X150500Y265461D01*
X151280Y265616D01*
X151942Y266058D01*
X152082Y266268D01*
X152582Y266117D01*
D02*
G37*
G36*
X400000Y100000D02*
X360649D01*
Y145000D01*
X360459Y145459D01*
X360000Y145649D01*
X227751D01*
X227484Y146149D01*
X227761Y146564D01*
X227848Y147000D01*
X223152D01*
X223239Y146564D01*
X223516Y146149D01*
X223249Y145649D01*
X219835D01*
Y169083D01*
X219765Y169434D01*
X219566Y169731D01*
X191649Y197649D01*
X191351Y197848D01*
X191000Y197918D01*
X141380D01*
X134918Y204380D01*
Y238120D01*
X151399Y254601D01*
X154149Y257351D01*
X154348Y257649D01*
X154418Y258000D01*
Y272500D01*
X154348Y272851D01*
X154149Y273149D01*
X152416Y274882D01*
X152539Y275500D01*
X152426Y276069D01*
X152887Y276315D01*
X163582Y265620D01*
Y263000D01*
X163652Y262649D01*
X163851Y262351D01*
X165551Y260651D01*
X165849Y260452D01*
X166200Y260382D01*
X179988D01*
X180224Y259941D01*
X180116Y259780D01*
X179961Y259000D01*
X180116Y258220D01*
X180558Y257558D01*
X181220Y257116D01*
X182000Y256961D01*
X182378Y257036D01*
X182869Y256545D01*
X182661Y256156D01*
Y252386D01*
X181661D01*
Y256076D01*
X181483Y256041D01*
X180908Y255657D01*
X180908Y255657D01*
X180896Y255642D01*
X180567Y255368D01*
X180124Y255664D01*
X179602Y255768D01*
X179080Y255664D01*
X178638Y255368D01*
X178623Y255347D01*
X178022D01*
X178008Y255368D01*
X177566Y255664D01*
X177043Y255768D01*
X176521Y255664D01*
X176078Y255368D01*
X176065Y255347D01*
X175463D01*
X175449Y255368D01*
X175006Y255664D01*
X174484Y255768D01*
X173962Y255664D01*
X173520Y255368D01*
X173224Y254926D01*
X173120Y254403D01*
Y250368D01*
X173224Y249846D01*
X173520Y249403D01*
X173962Y249108D01*
X174484Y249004D01*
X175006Y249108D01*
X175449Y249403D01*
X175463Y249424D01*
X176065D01*
X176078Y249403D01*
X176521Y249108D01*
X177043Y249004D01*
X177566Y249108D01*
X178008Y249403D01*
X178022Y249424D01*
X178623D01*
X178638Y249403D01*
X179080Y249108D01*
X179602Y249004D01*
X180124Y249108D01*
X180567Y249403D01*
X180896Y249130D01*
X180908Y249115D01*
X180908Y249115D01*
X181040Y249027D01*
Y246870D01*
X178476D01*
Y246224D01*
X177213D01*
X177124Y246284D01*
Y246470D01*
X172184D01*
Y245122D01*
X170656D01*
X170442Y245442D01*
X169780Y245884D01*
X169000Y246039D01*
X168220Y245884D01*
X167558Y245442D01*
X167116Y244780D01*
X166961Y244000D01*
X167116Y243220D01*
X167558Y242558D01*
X168220Y242116D01*
X169000Y241961D01*
X169780Y242116D01*
X170442Y242558D01*
X170656Y242879D01*
X172184D01*
Y241530D01*
X177124D01*
Y241716D01*
X177213Y241776D01*
X178476D01*
Y241130D01*
X180225D01*
Y239870D01*
X178476D01*
Y239224D01*
X177213D01*
X177124Y239284D01*
Y239470D01*
X172184D01*
Y238122D01*
X170656D01*
X170442Y238442D01*
X169780Y238884D01*
X169000Y239039D01*
X168220Y238884D01*
X167558Y238442D01*
X167116Y237780D01*
X166961Y237000D01*
X167116Y236220D01*
X167558Y235558D01*
X168220Y235116D01*
X169000Y234961D01*
X169780Y235116D01*
X170442Y235558D01*
X170656Y235878D01*
X172184D01*
Y234530D01*
X177124D01*
Y234716D01*
X177213Y234776D01*
X178476D01*
Y234130D01*
X180847D01*
Y237000D01*
X181346D01*
Y237500D01*
X184216D01*
Y239870D01*
X182468D01*
Y241130D01*
X184216D01*
Y243500D01*
X181346D01*
Y244500D01*
X184216D01*
Y246870D01*
X183283D01*
Y249027D01*
X183415Y249115D01*
X183415Y249115D01*
X183427Y249130D01*
X183756Y249403D01*
X184198Y249108D01*
X184721Y249004D01*
X185243Y249108D01*
X185685Y249403D01*
X186123Y249187D01*
X186362Y248950D01*
Y232660D01*
X184620Y230918D01*
X183817D01*
Y232470D01*
X178876D01*
Y232284D01*
X178787Y232224D01*
X177213D01*
X177124Y232284D01*
Y232470D01*
X172184D01*
Y230918D01*
X170292D01*
X169942Y231442D01*
X169280Y231884D01*
X168500Y232039D01*
X167720Y231884D01*
X167058Y231442D01*
X166616Y230780D01*
X166461Y230000D01*
X166616Y229220D01*
X167058Y228558D01*
X167720Y228116D01*
X168500Y227961D01*
X169280Y228116D01*
X169942Y228558D01*
X170292Y229082D01*
X172184D01*
Y227530D01*
X177124D01*
Y227716D01*
X177213Y227776D01*
X178787D01*
X178876Y227716D01*
Y227530D01*
X183817D01*
Y229082D01*
X185000D01*
X185351Y229152D01*
X185649Y229351D01*
X187928Y231631D01*
X188127Y231928D01*
X188197Y232279D01*
Y249372D01*
X188244Y249403D01*
X188258Y249424D01*
X188860D01*
X188874Y249403D01*
X189316Y249108D01*
X189839Y249004D01*
X190361Y249108D01*
X190776Y249385D01*
X190926Y249353D01*
X191276Y249211D01*
Y233602D01*
X191276Y233602D01*
X191361Y233173D01*
X191605Y232809D01*
X195207Y229207D01*
X195207Y229207D01*
X195571Y228964D01*
X196000Y228878D01*
X196000Y228878D01*
X198184D01*
Y227530D01*
X199532D01*
Y225118D01*
X196035Y221621D01*
X170965D01*
X166793Y225793D01*
X166429Y226036D01*
X166000Y226122D01*
X166000Y226121D01*
X140656D01*
X140442Y226442D01*
X139780Y226884D01*
X139000Y227039D01*
X138220Y226884D01*
X137558Y226442D01*
X137116Y225780D01*
X136961Y225000D01*
X137116Y224220D01*
X137558Y223558D01*
X138220Y223116D01*
X139000Y222961D01*
X139780Y223116D01*
X140442Y223558D01*
X140656Y223879D01*
X165535D01*
X169707Y219707D01*
X169707Y219707D01*
X170071Y219464D01*
X170500Y219378D01*
X170500Y219378D01*
X196500D01*
X196500Y219378D01*
X196929Y219464D01*
X197293Y219707D01*
X201118Y223532D01*
X217154D01*
X217154Y223532D01*
X217583Y223617D01*
X217947Y223861D01*
X222965Y228878D01*
X226250D01*
Y227432D01*
X233750D01*
Y232569D01*
X226250D01*
Y231121D01*
X222500D01*
X222500Y231122D01*
X222071Y231036D01*
X221707Y230793D01*
X221707Y230793D01*
X216689Y225775D01*
X201775D01*
Y227530D01*
X203124D01*
Y227716D01*
X203213Y227776D01*
X204787D01*
X204876Y227716D01*
Y227530D01*
X209817D01*
Y232470D01*
X208121D01*
Y233344D01*
X208442Y233558D01*
X208884Y234220D01*
X209039Y235000D01*
X208884Y235780D01*
X208442Y236442D01*
X207780Y236884D01*
X207000Y237039D01*
X206220Y236884D01*
X205558Y236442D01*
X205116Y235780D01*
X204961Y235000D01*
X205116Y234220D01*
X205558Y233558D01*
X205878Y233344D01*
Y232470D01*
X204876D01*
Y232284D01*
X204787Y232224D01*
X203213D01*
X203124Y232284D01*
Y232470D01*
X198184D01*
Y231121D01*
X196465D01*
X193519Y234067D01*
Y249211D01*
X193869Y249353D01*
X194019Y249385D01*
X194434Y249108D01*
X194957Y249004D01*
X195479Y249108D01*
X195922Y249403D01*
X195935Y249424D01*
X196537D01*
X196551Y249403D01*
X196994Y249108D01*
X197516Y249004D01*
X198038Y249108D01*
X198480Y249403D01*
X198776Y249846D01*
X198880Y250368D01*
Y254403D01*
X198776Y254926D01*
X198480Y255368D01*
X198038Y255664D01*
X197516Y255768D01*
X196994Y255664D01*
X196608Y255406D01*
X196156Y255586D01*
X196109Y256023D01*
X196965Y256878D01*
X200035D01*
X203707Y253207D01*
X203707Y253207D01*
X204071Y252964D01*
X204500Y252878D01*
X210962D01*
X211184Y252470D01*
Y251121D01*
X209156D01*
X208942Y251442D01*
X208280Y251884D01*
X207500Y252039D01*
X206720Y251884D01*
X206058Y251442D01*
X205616Y250780D01*
X205461Y250000D01*
X205616Y249220D01*
X206058Y248558D01*
X206720Y248116D01*
X207500Y247961D01*
X208280Y248116D01*
X208942Y248558D01*
X209156Y248879D01*
X211184D01*
Y247530D01*
X216124D01*
Y247716D01*
X216213Y247776D01*
X217787D01*
X217876Y247716D01*
Y247530D01*
X219225D01*
Y244470D01*
X217876D01*
Y244284D01*
X217787Y244224D01*
X216213D01*
X216124Y244284D01*
Y244470D01*
X211184D01*
Y243122D01*
X209156D01*
X208942Y243442D01*
X208280Y243884D01*
X207500Y244039D01*
X206720Y243884D01*
X206058Y243442D01*
X205616Y242780D01*
X205461Y242000D01*
X205616Y241220D01*
X206058Y240558D01*
X206720Y240116D01*
X207500Y239961D01*
X208280Y240116D01*
X208942Y240558D01*
X209156Y240879D01*
X211184D01*
Y239530D01*
X216124D01*
Y239716D01*
X216213Y239776D01*
X217787D01*
X217876Y239716D01*
Y239530D01*
X222816D01*
Y244470D01*
X221468D01*
Y247530D01*
X222816D01*
Y248879D01*
X243250D01*
Y247431D01*
X250750D01*
Y252569D01*
X243250D01*
Y251121D01*
X222816D01*
Y252470D01*
X221468D01*
Y255530D01*
X222816D01*
Y260470D01*
X217876D01*
Y260284D01*
X217787Y260224D01*
X216213D01*
X216124Y260284D01*
Y260470D01*
X214775D01*
Y263530D01*
X216124D01*
Y263716D01*
X216213Y263776D01*
X217787D01*
X217876Y263716D01*
Y263530D01*
X222816D01*
Y264879D01*
X226535D01*
X236207Y255207D01*
X236207Y255207D01*
X236571Y254964D01*
X237000Y254878D01*
X237000Y254878D01*
X319250D01*
Y253432D01*
X326750D01*
Y254841D01*
X346652D01*
Y254573D01*
X351369D01*
Y244631D01*
X349816D01*
Y245470D01*
X344876D01*
Y245284D01*
X344787Y245224D01*
X343213D01*
X343124Y245284D01*
Y245470D01*
X338183D01*
Y240530D01*
X338869D01*
Y238658D01*
X338616Y238280D01*
X338461Y237500D01*
X338616Y236720D01*
X339058Y236058D01*
X339720Y235616D01*
X340500Y235461D01*
X341280Y235616D01*
X341942Y236058D01*
X342384Y236720D01*
X342539Y237500D01*
X342384Y238280D01*
X342131Y238658D01*
Y240530D01*
X343124D01*
Y240716D01*
X343213Y240776D01*
X344787D01*
X344876Y240716D01*
Y240530D01*
X349816D01*
Y241369D01*
X352324D01*
X377369Y216324D01*
Y176500D01*
X377493Y175876D01*
X377847Y175347D01*
X384347Y168846D01*
X384876Y168493D01*
X385500Y168369D01*
X389766D01*
X390028Y168028D01*
X390605Y167585D01*
X391278Y167306D01*
X392000Y167211D01*
X392722Y167306D01*
X393395Y167585D01*
X393972Y168028D01*
X394415Y168605D01*
X394694Y169278D01*
X394789Y170000D01*
X394694Y170722D01*
X394415Y171395D01*
X393972Y171972D01*
X393395Y172415D01*
X392722Y172694D01*
X392000Y172789D01*
X391278Y172694D01*
X390605Y172415D01*
X390028Y171972D01*
X389766Y171631D01*
X386176D01*
X380631Y177176D01*
Y217000D01*
X380507Y217624D01*
X380153Y218154D01*
X354631Y243676D01*
Y254573D01*
X356316D01*
Y259316D01*
X346652D01*
Y258104D01*
X339131D01*
Y293981D01*
X339250Y294431D01*
X339631Y294431D01*
X346750D01*
Y299569D01*
X344631D01*
Y301342D01*
X344884Y301720D01*
X345039Y302500D01*
X344884Y303280D01*
X344442Y303942D01*
X343780Y304384D01*
X343000Y304539D01*
X342220Y304384D01*
X341558Y303942D01*
X341116Y303280D01*
X340961Y302500D01*
X341116Y301720D01*
X341369Y301342D01*
Y299569D01*
X339250Y299569D01*
X339131Y300019D01*
Y388000D01*
X339007Y388624D01*
X338653Y389154D01*
X322654Y405154D01*
X322124Y405507D01*
X321500Y405631D01*
X316467D01*
X316296Y406094D01*
X316303Y406131D01*
X316942Y406558D01*
X317384Y407220D01*
X317539Y408000D01*
X317384Y408780D01*
X316942Y409442D01*
X316280Y409884D01*
X315500Y410039D01*
X314720Y409884D01*
X314058Y409442D01*
X313844Y409122D01*
X298816D01*
Y410470D01*
X293876D01*
Y410284D01*
X293787Y410224D01*
X292213D01*
X292124Y410284D01*
Y410470D01*
X287183D01*
Y405530D01*
X288195D01*
Y401033D01*
X286572D01*
X286447Y401033D01*
X286072D01*
X285947Y401033D01*
X279092D01*
X278967Y401033D01*
X278592D01*
X278467Y401033D01*
X271487D01*
Y388022D01*
X273879D01*
Y348156D01*
X273558Y347942D01*
X273116Y347280D01*
X272961Y346500D01*
X273116Y345720D01*
X273558Y345058D01*
X274220Y344616D01*
X275000Y344461D01*
X275780Y344616D01*
X276442Y345058D01*
X276884Y345720D01*
X277039Y346500D01*
X276884Y347280D01*
X276442Y347942D01*
X276121Y348156D01*
Y388022D01*
X278467D01*
X278592Y388022D01*
X278967D01*
X279092Y388022D01*
X281379D01*
Y348656D01*
X281058Y348442D01*
X280616Y347780D01*
X280461Y347000D01*
X280616Y346220D01*
X281058Y345558D01*
X281720Y345116D01*
X282500Y344961D01*
X283280Y345116D01*
X283942Y345558D01*
X284384Y346220D01*
X284539Y347000D01*
X284384Y347780D01*
X283942Y348442D01*
X283622Y348656D01*
Y388022D01*
X285947D01*
X286072Y388022D01*
X286447D01*
X286572Y388022D01*
X288369D01*
Y369658D01*
X288116Y369280D01*
X287961Y368500D01*
X288116Y367720D01*
X288369Y367342D01*
Y341978D01*
X286572D01*
X286447Y341978D01*
X286072D01*
X285947Y341978D01*
X278967D01*
Y341978D01*
X278592D01*
Y341978D01*
X271487D01*
Y328967D01*
X273918D01*
Y318461D01*
X273918Y318461D01*
X274003Y318031D01*
X274246Y317668D01*
X282750Y309164D01*
X282750Y309164D01*
X283114Y308921D01*
X283543Y308835D01*
X286211D01*
X286353Y308485D01*
X286385Y308335D01*
X286108Y307920D01*
X286004Y307398D01*
X286108Y306875D01*
X286403Y306433D01*
X286424Y306419D01*
Y305817D01*
X286403Y305803D01*
X286108Y305361D01*
X286004Y304839D01*
X286108Y304316D01*
X286403Y303874D01*
X286424Y303860D01*
Y303258D01*
X286403Y303244D01*
X286108Y302802D01*
X286004Y302279D01*
X286108Y301757D01*
X286403Y301315D01*
X286424Y301301D01*
Y300699D01*
X286403Y300685D01*
X286108Y300243D01*
X286004Y299721D01*
X286108Y299198D01*
X286403Y298756D01*
X286424Y298742D01*
Y298140D01*
X286403Y298126D01*
X286108Y297684D01*
X286004Y297161D01*
X286108Y296639D01*
X286385Y296224D01*
X286353Y296074D01*
X286211Y295724D01*
X283362D01*
X281468Y297618D01*
Y299530D01*
X282817D01*
Y304470D01*
X277876D01*
Y304284D01*
X277787Y304224D01*
X276213D01*
X276124Y304284D01*
Y304470D01*
X271183D01*
Y299530D01*
X272532D01*
Y290470D01*
X271183D01*
Y285530D01*
X272378D01*
Y284156D01*
X272058Y283942D01*
X271616Y283280D01*
X271461Y282500D01*
X271616Y281720D01*
X272058Y281058D01*
X272720Y280616D01*
X273500Y280461D01*
X274280Y280616D01*
X274942Y281058D01*
X275384Y281720D01*
X275539Y282500D01*
X275384Y283280D01*
X274942Y283942D01*
X274622Y284156D01*
Y285530D01*
X276124D01*
Y285716D01*
X276213Y285776D01*
X277476D01*
Y285130D01*
X279847D01*
Y288000D01*
Y290870D01*
X277476D01*
Y290224D01*
X276213D01*
X276124Y290284D01*
Y290470D01*
X274775D01*
Y299530D01*
X276124D01*
Y299716D01*
X276213Y299776D01*
X277787D01*
X277876Y299716D01*
Y299530D01*
X279225D01*
Y297154D01*
X279225Y297153D01*
X279310Y296724D01*
X279553Y296360D01*
X282105Y293809D01*
X282468Y293566D01*
X282898Y293481D01*
X282898Y293481D01*
X283661D01*
X283813Y292981D01*
X283597Y292836D01*
X283597Y292836D01*
X281630Y290870D01*
X280847D01*
Y288500D01*
X283217D01*
Y289284D01*
X284854Y290922D01*
X286027D01*
X286115Y290790D01*
X286690Y290406D01*
X287368Y290271D01*
X288886D01*
Y292043D01*
X289386D01*
Y292543D01*
X293076D01*
X293041Y292722D01*
X292657Y293297D01*
X292657Y293297D01*
X292642Y293309D01*
X292642Y293309D01*
X292642Y293309D01*
X292368Y293638D01*
X292664Y294080D01*
X292768Y294602D01*
X292664Y295125D01*
X292368Y295567D01*
X292347Y295581D01*
Y296183D01*
X292368Y296197D01*
X292664Y296639D01*
X292768Y297161D01*
X292664Y297684D01*
X292368Y298126D01*
X292585Y298564D01*
X292822Y298803D01*
X293399D01*
X295082Y297120D01*
Y287380D01*
X286120Y278418D01*
X248880D01*
X247416Y279882D01*
X247539Y280500D01*
X247384Y281280D01*
X246942Y281942D01*
X246280Y282384D01*
X245500Y282539D01*
X245423Y282524D01*
X245176Y282985D01*
X251549Y289357D01*
X251748Y289655D01*
X251818Y290006D01*
Y294623D01*
X252687Y295493D01*
X252889Y295393D01*
X253100Y295198D01*
X252961Y294500D01*
X253116Y293720D01*
X253558Y293058D01*
X254220Y292616D01*
X255000Y292461D01*
X255780Y292616D01*
X256442Y293058D01*
X256792Y293582D01*
X258289D01*
X258400Y293443D01*
X258632Y293008D01*
X258336Y292565D01*
X258232Y292043D01*
X258336Y291521D01*
X258632Y291078D01*
X259074Y290783D01*
X259596Y290679D01*
X263632D01*
X264154Y290783D01*
X264362Y290922D01*
X265440D01*
X265790Y290557D01*
X265745Y290067D01*
X265558Y289942D01*
X265116Y289280D01*
X264961Y288500D01*
X265116Y287720D01*
X265558Y287058D01*
X266220Y286616D01*
X267000Y286461D01*
X267780Y286616D01*
X268442Y287058D01*
X268884Y287720D01*
X269039Y288500D01*
X268884Y289280D01*
X268442Y289942D01*
X268122Y290156D01*
Y291000D01*
X268036Y291429D01*
X267793Y291793D01*
X267793Y291793D01*
X266750Y292836D01*
X266386Y293079D01*
X265957Y293165D01*
X265957Y293165D01*
X264789D01*
X264647Y293515D01*
X264615Y293665D01*
X264892Y294080D01*
X264996Y294602D01*
X264892Y295125D01*
X264597Y295567D01*
X264576Y295581D01*
Y296183D01*
X264597Y296197D01*
X264892Y296639D01*
X264996Y297161D01*
X264892Y297684D01*
X264597Y298126D01*
X264576Y298140D01*
Y298742D01*
X264597Y298756D01*
X264892Y299198D01*
X264996Y299721D01*
X264892Y300243D01*
X264597Y300685D01*
X264576Y300699D01*
Y301301D01*
X264597Y301315D01*
X264892Y301757D01*
X264996Y302279D01*
X264892Y302802D01*
X264597Y303244D01*
X264576Y303258D01*
Y303860D01*
X264597Y303874D01*
X264892Y304316D01*
X264996Y304839D01*
X264892Y305361D01*
X264597Y305803D01*
X264868Y306223D01*
X265043Y306405D01*
X265526D01*
X265527Y306405D01*
X265956Y306490D01*
X266319Y306733D01*
X267793Y308207D01*
X267793Y308207D01*
X268036Y308571D01*
X268122Y309000D01*
Y317000D01*
X268036Y317429D01*
X267793Y317793D01*
X267793Y317793D01*
X258602Y326984D01*
Y328967D01*
X260908D01*
X261033Y328967D01*
X261408D01*
X261533Y328967D01*
X263878D01*
Y324000D01*
X263878Y324000D01*
X263964Y323571D01*
X264207Y323207D01*
X269378Y318035D01*
Y308465D01*
X266707Y305793D01*
X266464Y305429D01*
X266378Y305000D01*
X266378Y305000D01*
Y302156D01*
X266058Y301942D01*
X265616Y301280D01*
X265461Y300500D01*
X265616Y299720D01*
X266058Y299058D01*
X266720Y298616D01*
X267500Y298461D01*
X268280Y298616D01*
X268942Y299058D01*
X269384Y299720D01*
X269539Y300500D01*
X269384Y301280D01*
X268942Y301942D01*
X268621Y302156D01*
Y304535D01*
X271293Y307207D01*
X271536Y307571D01*
X271622Y308000D01*
X271621Y308000D01*
Y318500D01*
X271536Y318929D01*
X271293Y319293D01*
X271293Y319293D01*
X266122Y324465D01*
Y328967D01*
X268513D01*
Y341978D01*
X261533D01*
X261408Y341978D01*
X261033D01*
X260908Y341978D01*
X254053D01*
X253928Y341978D01*
X253553D01*
X253428Y341978D01*
X251631D01*
Y367342D01*
X251884Y367720D01*
X252039Y368500D01*
X251884Y369280D01*
X251631Y369658D01*
Y388022D01*
X253428D01*
X253553Y388022D01*
X253928D01*
X254053Y388022D01*
X256878D01*
Y347656D01*
X256558Y347442D01*
X256116Y346780D01*
X255961Y346000D01*
X256116Y345220D01*
X256558Y344558D01*
X257220Y344116D01*
X258000Y343961D01*
X258780Y344116D01*
X259442Y344558D01*
X259884Y345220D01*
X260039Y346000D01*
X259884Y346780D01*
X259442Y347442D01*
X259121Y347656D01*
Y388022D01*
X260908D01*
X261033Y388022D01*
X261408D01*
X261533Y388022D01*
X263878D01*
Y354656D01*
X263558Y354442D01*
X263116Y353780D01*
X262961Y353000D01*
X263116Y352220D01*
X263558Y351558D01*
X264220Y351116D01*
X265000Y350961D01*
X265780Y351116D01*
X266442Y351558D01*
X266884Y352220D01*
X267039Y353000D01*
X266884Y353780D01*
X266442Y354442D01*
X266122Y354656D01*
Y388022D01*
X268513D01*
Y401033D01*
X261533D01*
X261408Y401033D01*
X261033D01*
X260908Y401033D01*
X254053D01*
X253928Y401033D01*
X253553D01*
X253428Y401033D01*
X251631D01*
Y405530D01*
X252624D01*
Y405716D01*
X252713Y405776D01*
X254287D01*
X254376Y405716D01*
Y405530D01*
X259316D01*
Y406879D01*
X273344D01*
X273558Y406558D01*
X274220Y406116D01*
X275000Y405961D01*
X275780Y406116D01*
X276442Y406558D01*
X276884Y407220D01*
X277039Y408000D01*
X276884Y408780D01*
X276442Y409442D01*
X275780Y409884D01*
X275000Y410039D01*
X274220Y409884D01*
X273558Y409442D01*
X273344Y409122D01*
X259316D01*
Y410470D01*
X254376D01*
Y410284D01*
X254287Y410224D01*
X252713D01*
X252624Y410284D01*
Y410470D01*
X247684D01*
Y405530D01*
X248369D01*
Y401033D01*
X246572D01*
X246447Y401033D01*
X246072D01*
X245947Y401033D01*
X239092D01*
X238967Y401033D01*
X238592D01*
X238467Y401033D01*
X231487D01*
Y388022D01*
X233878D01*
Y348156D01*
X233558Y347942D01*
X233116Y347280D01*
X232961Y346500D01*
X233116Y345720D01*
X233558Y345058D01*
X234220Y344616D01*
X235000Y344461D01*
X235780Y344616D01*
X236442Y345058D01*
X236884Y345720D01*
X237039Y346500D01*
X236884Y347280D01*
X236442Y347942D01*
X236122Y348156D01*
Y388022D01*
X238467D01*
X238592Y388022D01*
X238967D01*
X239092Y388022D01*
X241378D01*
Y351656D01*
X241058Y351442D01*
X240616Y350780D01*
X240461Y350000D01*
X240616Y349220D01*
X241058Y348558D01*
X241720Y348116D01*
X242500Y347961D01*
X243280Y348116D01*
X243942Y348558D01*
X244384Y349220D01*
X244539Y350000D01*
X244384Y350780D01*
X243942Y351442D01*
X243621Y351656D01*
Y388022D01*
X245947D01*
X246072Y388022D01*
X246447D01*
X246572Y388022D01*
X248369D01*
Y369658D01*
X248116Y369280D01*
X247961Y368500D01*
X248116Y367720D01*
X248369Y367342D01*
Y341978D01*
X246572D01*
X246447Y341978D01*
X246072D01*
X245947Y341978D01*
X238967D01*
Y341978D01*
X238592D01*
Y341978D01*
X231487D01*
Y333128D01*
X231465Y333020D01*
X231487Y332911D01*
Y328967D01*
X232379D01*
Y311500D01*
X232378Y311500D01*
X232464Y311071D01*
X232707Y310707D01*
X234250Y309164D01*
X234250Y309164D01*
X234313Y309121D01*
X234162Y308622D01*
X233656D01*
X233442Y308942D01*
X232780Y309384D01*
X232000Y309539D01*
X231220Y309384D01*
X230558Y308942D01*
X230116Y308280D01*
X229961Y307500D01*
X230116Y306720D01*
X230558Y306058D01*
X231220Y305616D01*
X232000Y305461D01*
X232780Y305616D01*
X233442Y306058D01*
X233656Y306379D01*
X235056D01*
X235169Y306238D01*
X235403Y305803D01*
X235108Y305361D01*
X235004Y304839D01*
X235108Y304316D01*
X235403Y303874D01*
X235424Y303860D01*
Y303258D01*
X235403Y303244D01*
X235108Y302802D01*
X235004Y302279D01*
X235108Y301757D01*
X235403Y301315D01*
X235424Y301301D01*
Y300699D01*
X235403Y300685D01*
X235108Y300243D01*
X235004Y299721D01*
X235108Y299198D01*
X235403Y298756D01*
X235424Y298742D01*
Y298140D01*
X235403Y298126D01*
X235108Y297684D01*
X235004Y297161D01*
X235108Y296639D01*
X235385Y296224D01*
X235353Y296074D01*
X235211Y295724D01*
X232362D01*
X229121Y298965D01*
Y299530D01*
X229817D01*
Y304470D01*
X224876D01*
Y304284D01*
X224787Y304224D01*
X223213D01*
X223124Y304284D01*
Y304470D01*
X218183D01*
Y299530D01*
X219532D01*
Y290470D01*
X218183D01*
Y285530D01*
X219378D01*
Y284656D01*
X219058Y284442D01*
X218616Y283780D01*
X218461Y283000D01*
X218616Y282220D01*
X219058Y281558D01*
X219720Y281116D01*
X220500Y280961D01*
X221280Y281116D01*
X221942Y281558D01*
X222384Y282220D01*
X222539Y283000D01*
X222384Y283780D01*
X221942Y284442D01*
X221621Y284656D01*
Y285530D01*
X223124D01*
Y285716D01*
X223213Y285776D01*
X224476D01*
Y285130D01*
X226847D01*
Y288000D01*
Y290870D01*
X224476D01*
Y290224D01*
X223213D01*
X223124Y290284D01*
Y290470D01*
X221775D01*
Y299530D01*
X223124D01*
Y299716D01*
X223213Y299776D01*
X224787D01*
X224876Y299716D01*
Y299530D01*
X226878D01*
Y298500D01*
X226878Y298500D01*
X226964Y298071D01*
X227207Y297707D01*
X231105Y293809D01*
X231105Y293809D01*
X231347Y293647D01*
X231349Y293623D01*
X231254Y293138D01*
X230961Y293079D01*
X230597Y292836D01*
X230597Y292836D01*
X228630Y290870D01*
X227847D01*
Y288500D01*
X230217D01*
Y289284D01*
X231854Y290922D01*
X235027D01*
X235115Y290790D01*
X235690Y290406D01*
X236368Y290271D01*
X237886D01*
Y292043D01*
X238386D01*
Y292543D01*
X242076D01*
X242041Y292722D01*
X241657Y293297D01*
X241657Y293297D01*
X241642Y293309D01*
X241642Y293309D01*
X241642Y293309D01*
X241368Y293638D01*
X241664Y294080D01*
X241768Y294602D01*
X241664Y295125D01*
X241368Y295567D01*
X241585Y296005D01*
X241822Y296244D01*
X242459D01*
X243084Y295618D01*
X242961Y295000D01*
X243116Y294220D01*
X243558Y293558D01*
X244220Y293116D01*
X245000Y292961D01*
X245780Y293116D01*
X246442Y293558D01*
X246884Y294220D01*
X247039Y295000D01*
X247015Y295123D01*
X247464Y295429D01*
X247582Y295353D01*
Y291380D01*
X241750Y285548D01*
X241416Y285882D01*
X241539Y286500D01*
X241384Y287280D01*
X240942Y287942D01*
X240280Y288384D01*
X239500Y288539D01*
X238720Y288384D01*
X238058Y287942D01*
X237708Y287418D01*
X235000D01*
X234649Y287348D01*
X234351Y287149D01*
X231851Y284649D01*
X231652Y284351D01*
X231582Y284000D01*
Y278880D01*
X231120Y278418D01*
X209880D01*
X204149Y284149D01*
X203851Y284348D01*
X203500Y284418D01*
X195918D01*
Y293000D01*
X195848Y293351D01*
X195649Y293649D01*
X195309Y293989D01*
X195445Y294325D01*
X195537Y294468D01*
X196280Y294616D01*
X196942Y295058D01*
X197200Y295444D01*
X197800D01*
X198058Y295058D01*
X198720Y294616D01*
X199500Y294461D01*
X200280Y294616D01*
X200942Y295058D01*
X201292Y295582D01*
X202500D01*
X202851Y295652D01*
X203149Y295851D01*
X203541Y296244D01*
X204192D01*
X204400Y295744D01*
X204178Y295520D01*
X204102D01*
X203751Y295450D01*
X203453Y295251D01*
X199618Y291416D01*
X199000Y291539D01*
X198220Y291384D01*
X197558Y290942D01*
X197116Y290280D01*
X196961Y289500D01*
X197116Y288720D01*
X197558Y288058D01*
X198220Y287616D01*
X199000Y287461D01*
X199780Y287616D01*
X200442Y288058D01*
X200884Y288720D01*
X201039Y289500D01*
X200916Y290118D01*
X204153Y293355D01*
X204269Y293342D01*
X204290Y293328D01*
X204632Y293008D01*
X204336Y292565D01*
X204232Y292043D01*
X204336Y291521D01*
X204632Y291078D01*
X205074Y290783D01*
X205596Y290679D01*
X209632D01*
X210154Y290783D01*
X210362Y290922D01*
X212440D01*
X212790Y290557D01*
X212745Y290067D01*
X212558Y289942D01*
X212116Y289280D01*
X211961Y288500D01*
X212116Y287720D01*
X212558Y287058D01*
X213220Y286616D01*
X214000Y286461D01*
X214780Y286616D01*
X215442Y287058D01*
X215884Y287720D01*
X216039Y288500D01*
X215884Y289280D01*
X215442Y289942D01*
X215122Y290156D01*
Y291000D01*
X215036Y291429D01*
X214793Y291793D01*
X214793Y291793D01*
X213750Y292836D01*
X213386Y293079D01*
X212957Y293165D01*
X212957Y293165D01*
X210789D01*
X210647Y293515D01*
X210615Y293665D01*
X210892Y294080D01*
X210996Y294602D01*
X210892Y295125D01*
X210597Y295567D01*
X210576Y295581D01*
Y296183D01*
X210597Y296197D01*
X210892Y296639D01*
X210996Y297161D01*
X210892Y297684D01*
X210597Y298126D01*
X210576Y298140D01*
Y298742D01*
X210597Y298756D01*
X210892Y299198D01*
X210996Y299721D01*
X210892Y300243D01*
X210597Y300685D01*
X210576Y300699D01*
Y301301D01*
X210597Y301315D01*
X210892Y301757D01*
X210996Y302279D01*
X210892Y302802D01*
X210597Y303244D01*
X210576Y303258D01*
Y303860D01*
X210597Y303874D01*
X210892Y304316D01*
X210996Y304839D01*
X210892Y305361D01*
X210615Y305776D01*
X210647Y305926D01*
X210789Y306276D01*
X212398D01*
X212398Y306276D01*
X212827Y306362D01*
X212958Y306449D01*
X213408Y306148D01*
X213378Y306000D01*
X213379Y306000D01*
Y303656D01*
X213058Y303442D01*
X212616Y302780D01*
X212461Y302000D01*
X212616Y301220D01*
X213058Y300558D01*
X213720Y300116D01*
X214500Y299961D01*
X215280Y300116D01*
X215942Y300558D01*
X216384Y301220D01*
X216539Y302000D01*
X216384Y302780D01*
X215942Y303442D01*
X215621Y303656D01*
Y305535D01*
X225754Y315668D01*
X225754Y315668D01*
X225997Y316031D01*
X226082Y316461D01*
Y328967D01*
X228513D01*
Y341978D01*
X221533D01*
X221408Y341978D01*
X221033D01*
X220908Y341978D01*
X214053D01*
X213928Y341978D01*
X213553D01*
X213428Y341978D01*
X211631D01*
Y367342D01*
X211884Y367720D01*
X212039Y368500D01*
X211884Y369280D01*
X211631Y369658D01*
Y388022D01*
X213428D01*
X213553Y388022D01*
X213928D01*
X214053Y388022D01*
X216378D01*
Y347156D01*
X216058Y346942D01*
X215616Y346280D01*
X215461Y345500D01*
X215616Y344720D01*
X216058Y344058D01*
X216720Y343616D01*
X217500Y343461D01*
X218280Y343616D01*
X218942Y344058D01*
X219384Y344720D01*
X219539Y345500D01*
X219384Y346280D01*
X218942Y346942D01*
X218621Y347156D01*
Y388022D01*
X220908D01*
X221033Y388022D01*
X221408D01*
X221533Y388022D01*
X223378D01*
Y347156D01*
X223058Y346942D01*
X222616Y346280D01*
X222461Y345500D01*
X222616Y344720D01*
X223058Y344058D01*
X223720Y343616D01*
X224500Y343461D01*
X225280Y343616D01*
X225942Y344058D01*
X226384Y344720D01*
X226539Y345500D01*
X226384Y346280D01*
X225942Y346942D01*
X225622Y347156D01*
Y388022D01*
X228513D01*
Y401033D01*
X221533D01*
X221408Y401033D01*
X221033D01*
X220908Y401033D01*
X214053D01*
X213928Y401033D01*
X213553D01*
X213428Y401033D01*
X211631D01*
Y406030D01*
X212624D01*
Y406216D01*
X212713Y406276D01*
X214287D01*
X214376Y406216D01*
Y406030D01*
X219317D01*
Y407378D01*
X233844D01*
X234058Y407058D01*
X234720Y406616D01*
X235500Y406461D01*
X236280Y406616D01*
X236942Y407058D01*
X237384Y407720D01*
X237539Y408500D01*
X237384Y409280D01*
X236942Y409942D01*
X236280Y410384D01*
X235500Y410539D01*
X234720Y410384D01*
X234058Y409942D01*
X233844Y409622D01*
X219317D01*
Y410970D01*
X214376D01*
Y410784D01*
X214287Y410724D01*
X212713D01*
X212624Y410784D01*
Y410970D01*
X207683D01*
Y406030D01*
X208369D01*
Y401033D01*
X206572D01*
X206447Y401033D01*
X206072D01*
X205947Y401033D01*
X198967D01*
Y401033D01*
X198592D01*
Y401033D01*
X191487D01*
Y388022D01*
X193918D01*
Y355004D01*
X184707Y345793D01*
X184464Y345429D01*
X184378Y345000D01*
X184378Y345000D01*
Y324965D01*
X174707Y315293D01*
X174464Y314929D01*
X174378Y314500D01*
X174378Y314500D01*
Y307000D01*
X174378Y307000D01*
X174464Y306571D01*
X174707Y306207D01*
X176868Y304046D01*
X176868Y304046D01*
X177232Y303802D01*
X177661Y303717D01*
X177662Y303717D01*
X181211D01*
X181353Y303367D01*
X181385Y303217D01*
X181108Y302802D01*
X181004Y302279D01*
X181108Y301757D01*
X181403Y301315D01*
X181424Y301301D01*
Y300699D01*
X181403Y300685D01*
X181108Y300243D01*
X181004Y299721D01*
X181108Y299198D01*
X181403Y298756D01*
X181424Y298742D01*
Y298140D01*
X181403Y298126D01*
X181108Y297684D01*
X181004Y297161D01*
X181108Y296639D01*
X181385Y296224D01*
X181353Y296074D01*
X181211Y295724D01*
X180209D01*
X175817Y300116D01*
Y303470D01*
X170876D01*
Y303284D01*
X170787Y303224D01*
X169213D01*
X169124Y303284D01*
Y303470D01*
X164183D01*
Y302121D01*
X162656D01*
X162442Y302442D01*
X161780Y302884D01*
X161000Y303039D01*
X160220Y302884D01*
X159558Y302442D01*
X159116Y301780D01*
X158961Y301000D01*
X159116Y300220D01*
X159558Y299558D01*
X160220Y299116D01*
X161000Y298961D01*
X161780Y299116D01*
X162442Y299558D01*
X162656Y299879D01*
X164183D01*
Y298530D01*
X169124D01*
Y298716D01*
X169213Y298776D01*
X170787D01*
X170876Y298716D01*
Y298530D01*
X174230D01*
X178951Y293809D01*
X178951Y293809D01*
X179167Y293665D01*
X179016Y293165D01*
X178390D01*
X178390Y293165D01*
X177961Y293079D01*
X177597Y292836D01*
X177597Y292836D01*
X174630Y289870D01*
X173846D01*
Y287500D01*
X176216D01*
Y288284D01*
X178854Y290922D01*
X181027D01*
X181115Y290790D01*
X181690Y290406D01*
X182368Y290271D01*
X183886D01*
Y292043D01*
X184386D01*
Y292543D01*
X188076D01*
X188041Y292722D01*
X187657Y293297D01*
X187642Y293309D01*
X187446Y293688D01*
X187578Y293951D01*
X187664Y294080D01*
X187768Y294602D01*
X187664Y295125D01*
X187368Y295567D01*
X187585Y296005D01*
X187822Y296244D01*
X188459D01*
X189200Y295502D01*
X189151Y295004D01*
X189058Y294942D01*
X188616Y294280D01*
X188461Y293500D01*
X188616Y292720D01*
X189058Y292058D01*
X189720Y291616D01*
X190500Y291461D01*
X191280Y291616D01*
X191942Y292058D01*
X192384Y292720D01*
X192532Y293463D01*
X192675Y293555D01*
X193011Y293691D01*
X194082Y292620D01*
Y283880D01*
X192387Y282185D01*
X191926Y282431D01*
X192039Y283000D01*
X191884Y283780D01*
X191442Y284442D01*
X190780Y284884D01*
X190000Y285039D01*
X189220Y284884D01*
X188558Y284442D01*
X188116Y283780D01*
X187961Y283000D01*
X188116Y282220D01*
X188558Y281558D01*
X189002Y281262D01*
Y278682D01*
X188874Y278597D01*
X188860Y278576D01*
X188258D01*
X188244Y278597D01*
X187802Y278892D01*
X187279Y278996D01*
X186757Y278892D01*
X186315Y278597D01*
X186301Y278576D01*
X185699D01*
X185685Y278597D01*
X185243Y278892D01*
X184721Y278996D01*
X184198Y278892D01*
X183756Y278597D01*
X183742Y278576D01*
X183140D01*
X183126Y278597D01*
X182684Y278892D01*
X182161Y278996D01*
X181639Y278892D01*
X181197Y278597D01*
X180759Y278813D01*
X180520Y279050D01*
Y279898D01*
X180450Y280249D01*
X180251Y280546D01*
X176649Y284149D01*
X176351Y284348D01*
X176216Y284375D01*
Y286500D01*
X173346D01*
Y287000D01*
X172846D01*
Y289870D01*
X170476D01*
Y289224D01*
X169213D01*
X169124Y289284D01*
Y289470D01*
X164183D01*
Y288122D01*
X161965D01*
X161622Y288465D01*
Y289344D01*
X161942Y289558D01*
X162384Y290220D01*
X162539Y291000D01*
X162384Y291780D01*
X161942Y292442D01*
X161280Y292884D01*
X160500Y293039D01*
X159720Y292884D01*
X159058Y292442D01*
X158616Y291780D01*
X158461Y291000D01*
X158616Y290220D01*
X159058Y289558D01*
X159378Y289344D01*
Y288000D01*
X159378Y288000D01*
X159464Y287571D01*
X159707Y287207D01*
X160707Y286207D01*
X160707Y286207D01*
X161071Y285964D01*
X161500Y285878D01*
X164183D01*
Y284530D01*
X163730Y284418D01*
X157380D01*
X144149Y297649D01*
X143851Y297848D01*
X143500Y297918D01*
X128500D01*
X128149Y297848D01*
X127851Y297649D01*
X109851Y279649D01*
X109652Y279351D01*
X109582Y279000D01*
Y172292D01*
X109058Y171942D01*
X108616Y171280D01*
X108461Y170500D01*
X108616Y169720D01*
X109058Y169058D01*
X109720Y168616D01*
X110500Y168461D01*
X111280Y168616D01*
X111942Y169058D01*
X112384Y169720D01*
X112495Y170278D01*
X113005D01*
X113116Y169720D01*
X113558Y169058D01*
X114220Y168616D01*
X115000Y168461D01*
X115780Y168616D01*
X116442Y169058D01*
X116884Y169720D01*
X117039Y170500D01*
X116884Y171280D01*
X116442Y171942D01*
X115918Y172292D01*
Y277120D01*
X131380Y292582D01*
X141620D01*
X142429Y291774D01*
Y289895D01*
X140876D01*
Y289709D01*
X140787Y289649D01*
X139213D01*
X139124Y289709D01*
Y289895D01*
X134184D01*
Y288621D01*
X131656D01*
X131442Y288942D01*
X130780Y289384D01*
X130000Y289539D01*
X129220Y289384D01*
X128558Y288942D01*
X128116Y288280D01*
X127961Y287500D01*
X128116Y286720D01*
X128558Y286058D01*
X129220Y285616D01*
X130000Y285461D01*
X130780Y285616D01*
X131442Y286058D01*
X131656Y286379D01*
X134184D01*
Y284955D01*
X139124D01*
Y285141D01*
X139213Y285201D01*
X140787D01*
X140876Y285141D01*
Y284955D01*
X145817D01*
Y286508D01*
X147695D01*
X153851Y280351D01*
X154149Y280152D01*
X154500Y280082D01*
X175120D01*
X176107Y279095D01*
X176078Y278597D01*
X176065Y278576D01*
X175463D01*
X175449Y278597D01*
X175006Y278892D01*
X174484Y278996D01*
X173962Y278892D01*
X173520Y278597D01*
X173224Y278154D01*
X173120Y277632D01*
Y273597D01*
X173224Y273074D01*
X173520Y272632D01*
X173840Y272418D01*
X173697Y271918D01*
X172880D01*
X170918Y273880D01*
Y275208D01*
X171442Y275558D01*
X171884Y276220D01*
X172039Y277000D01*
X171884Y277780D01*
X171442Y278442D01*
X170780Y278884D01*
X170000Y279039D01*
X169220Y278884D01*
X168558Y278442D01*
X168116Y277780D01*
X167961Y277000D01*
X168116Y276220D01*
X168558Y275558D01*
X169082Y275208D01*
Y273500D01*
X169152Y273149D01*
X169351Y272851D01*
X171785Y270418D01*
X171734Y270149D01*
X171600Y269918D01*
X168880D01*
X164537Y274261D01*
X164577Y274814D01*
X164942Y275058D01*
X165384Y275720D01*
X165539Y276500D01*
X165384Y277280D01*
X164942Y277942D01*
X164280Y278384D01*
X163500Y278539D01*
X162720Y278384D01*
X162058Y277942D01*
X161616Y277280D01*
X161461Y276500D01*
X161616Y275720D01*
X162058Y275058D01*
X162582Y274708D01*
Y274000D01*
X162652Y273649D01*
X162851Y273351D01*
X167851Y268351D01*
X168149Y268152D01*
X168500Y268082D01*
X183000D01*
X183351Y268152D01*
X183649Y268351D01*
X185369Y270072D01*
X185568Y270369D01*
X185638Y270721D01*
Y272600D01*
X185685Y272632D01*
X185699Y272653D01*
X186301D01*
X186315Y272632D01*
X186757Y272336D01*
X187279Y272232D01*
X187802Y272336D01*
X188244Y272632D01*
X188258Y272653D01*
X188860D01*
X188874Y272632D01*
X189316Y272336D01*
X189839Y272232D01*
X190361Y272336D01*
X190803Y272632D01*
X190817Y272653D01*
X191419D01*
X191433Y272632D01*
X191876Y272336D01*
X192398Y272232D01*
X192920Y272336D01*
X193362Y272632D01*
X193800Y272415D01*
X194039Y272178D01*
Y271543D01*
X194109Y271192D01*
X194308Y270895D01*
X195351Y269851D01*
X195649Y269652D01*
X196000Y269582D01*
X231394D01*
X231745Y269652D01*
X232043Y269851D01*
X236947Y274755D01*
X238651Y273051D01*
X238949Y272852D01*
X239300Y272782D01*
X243200D01*
X243551Y272852D01*
X243849Y273051D01*
X244980Y274182D01*
X287494D01*
X287845Y274252D01*
X288143Y274451D01*
X299049Y285357D01*
X299248Y285655D01*
X299318Y286006D01*
Y293620D01*
X301941Y296244D01*
X309192D01*
X309400Y295744D01*
X309178Y295520D01*
X308602D01*
X308251Y295450D01*
X307954Y295251D01*
X307118Y294416D01*
X306500Y294539D01*
X305720Y294384D01*
X305058Y293942D01*
X304616Y293280D01*
X304461Y292500D01*
X304616Y291720D01*
X305058Y291058D01*
X305720Y290616D01*
X306500Y290461D01*
X307280Y290616D01*
X307942Y291058D01*
X308384Y291720D01*
X308539Y292500D01*
X308416Y293118D01*
X308982Y293685D01*
X309600D01*
X309632Y293638D01*
X309653Y293623D01*
Y293022D01*
X309632Y293008D01*
X309336Y292565D01*
X309232Y292043D01*
X309336Y291521D01*
X309632Y291078D01*
X310074Y290783D01*
X310596Y290679D01*
X314632D01*
X315154Y290783D01*
X315362Y290922D01*
X316505D01*
X316969Y290458D01*
X317116Y289720D01*
X317558Y289058D01*
X318220Y288616D01*
X319000Y288461D01*
X319780Y288616D01*
X320442Y289058D01*
X320884Y289720D01*
X321039Y290500D01*
X320884Y291280D01*
X320442Y291942D01*
X319780Y292384D01*
X319000Y292539D01*
X318220Y292384D01*
X318217Y292382D01*
X317763Y292836D01*
X317399Y293079D01*
X316970Y293165D01*
X316970Y293165D01*
X315789D01*
X315647Y293515D01*
X315615Y293665D01*
X315892Y294080D01*
X315996Y294602D01*
X315892Y295125D01*
X315597Y295567D01*
X315576Y295581D01*
Y296183D01*
X315597Y296197D01*
X315892Y296639D01*
X315996Y297161D01*
X315892Y297684D01*
X315597Y298126D01*
X315576Y298140D01*
Y298742D01*
X315597Y298756D01*
X315892Y299198D01*
X315996Y299721D01*
X315892Y300243D01*
X315597Y300685D01*
X315868Y301105D01*
X316043Y301287D01*
X317408D01*
X317408Y301287D01*
X317838Y301372D01*
X318201Y301615D01*
X323293Y306707D01*
X323293Y306707D01*
X323536Y307071D01*
X323622Y307500D01*
Y315000D01*
X323622Y315000D01*
X323536Y315429D01*
X323293Y315793D01*
X323293Y315793D01*
X315621Y323465D01*
Y347844D01*
X315942Y348058D01*
X316384Y348720D01*
X316539Y349500D01*
X316384Y350280D01*
X315942Y350942D01*
X315280Y351384D01*
X314500Y351539D01*
X313720Y351384D01*
X313058Y350942D01*
X312616Y350280D01*
X312461Y349500D01*
X312616Y348720D01*
X313058Y348058D01*
X313379Y347844D01*
Y323000D01*
X313378Y323000D01*
X313464Y322571D01*
X313707Y322207D01*
X321378Y314535D01*
Y313817D01*
X320879Y313665D01*
X320793Y313793D01*
X320793Y313793D01*
X312122Y322465D01*
Y343500D01*
X312122Y343500D01*
X312036Y343929D01*
X311793Y344293D01*
X311793Y344293D01*
X306121Y349965D01*
Y388022D01*
X308513D01*
Y401033D01*
X301533D01*
X301408Y401033D01*
X301033D01*
X300908Y401033D01*
X294053D01*
X293928Y401033D01*
X293553D01*
X293428Y401033D01*
X291458D01*
Y402369D01*
X320824D01*
X335869Y387324D01*
Y258104D01*
X326750D01*
Y258569D01*
X319250D01*
Y257121D01*
X237465D01*
X227793Y266793D01*
X227429Y267036D01*
X227000Y267122D01*
X227000Y267122D01*
X222816D01*
Y268470D01*
X217876D01*
Y268284D01*
X217787Y268224D01*
X216213D01*
X216124Y268284D01*
Y268470D01*
X211184D01*
Y263530D01*
X212532D01*
Y260470D01*
X211184D01*
Y255530D01*
X210962Y255121D01*
X204965D01*
X201293Y258793D01*
X200929Y259036D01*
X200500Y259122D01*
X200500Y259121D01*
X196500D01*
X196500Y259122D01*
X196071Y259036D01*
X195707Y258793D01*
X194164Y257250D01*
X193921Y256886D01*
X193835Y256457D01*
X193835Y256457D01*
Y255561D01*
X193485Y255418D01*
X193335Y255386D01*
X192920Y255664D01*
X192398Y255768D01*
X191876Y255664D01*
X191460Y255386D01*
X191310Y255418D01*
X190960Y255561D01*
Y260161D01*
X190960Y260161D01*
X190875Y260591D01*
X190632Y260954D01*
X190632Y260954D01*
X186293Y265293D01*
X185929Y265536D01*
X185500Y265622D01*
X185500Y265621D01*
X171156D01*
X170942Y265942D01*
X170280Y266384D01*
X169500Y266539D01*
X168720Y266384D01*
X168058Y265942D01*
X167616Y265280D01*
X167461Y264500D01*
X167616Y263720D01*
X168058Y263058D01*
X168568Y262718D01*
X168416Y262218D01*
X166580D01*
X165418Y263380D01*
Y266000D01*
X165348Y266351D01*
X165149Y266649D01*
X147649Y284149D01*
X147351Y284348D01*
X147000Y284418D01*
X127000D01*
X126649Y284348D01*
X126351Y284149D01*
X118851Y276649D01*
X118652Y276351D01*
X118582Y276000D01*
Y167880D01*
X117120Y166418D01*
X114000D01*
X113649Y166348D01*
X113351Y166149D01*
X111611Y164409D01*
X111412Y164111D01*
X111342Y163760D01*
Y161631D01*
X110976Y161387D01*
X110582Y160797D01*
X110444Y160102D01*
Y159085D01*
X107707Y156348D01*
X107464Y155984D01*
X107378Y155555D01*
X107378Y155555D01*
Y139000D01*
X107378Y139000D01*
X107464Y138571D01*
X107707Y138207D01*
X112707Y133207D01*
X112707Y133207D01*
X113071Y132964D01*
X113500Y132878D01*
X113500Y132878D01*
X138535D01*
X141878Y129535D01*
Y124000D01*
X141878Y124000D01*
X141964Y123571D01*
X142207Y123207D01*
X148207Y117207D01*
X148207Y117207D01*
X148571Y116964D01*
X149000Y116878D01*
X149000Y116878D01*
X169000D01*
X169000Y116878D01*
X169429Y116964D01*
X169793Y117207D01*
X170793Y118207D01*
X170793Y118207D01*
X171036Y118571D01*
X171122Y119000D01*
Y120401D01*
X171274Y120431D01*
X171720Y120729D01*
X172018Y121175D01*
X172123Y121701D01*
Y129654D01*
X172018Y130180D01*
X171720Y130625D01*
X171274Y130923D01*
X170748Y131028D01*
X169252D01*
X168726Y130923D01*
X168280Y130625D01*
X167982Y130180D01*
X167877Y129654D01*
Y121701D01*
X167982Y121175D01*
X168280Y120729D01*
X168726Y120431D01*
X168878Y120401D01*
Y119465D01*
X168535Y119122D01*
X149465D01*
X148650Y119936D01*
X148896Y120397D01*
X149252Y120326D01*
X150748D01*
X151274Y120431D01*
X151720Y120729D01*
X152018Y121175D01*
X152122Y121701D01*
Y129654D01*
X152018Y130180D01*
X151720Y130625D01*
X151274Y130923D01*
X151122Y130954D01*
Y132000D01*
X151036Y132429D01*
X150793Y132793D01*
X150793Y132793D01*
X145293Y138293D01*
X144929Y138536D01*
X144500Y138622D01*
X144500Y138622D01*
X116965D01*
X114773Y140813D01*
X115092Y141201D01*
X115220Y141116D01*
X116000Y140961D01*
X116780Y141116D01*
X117442Y141558D01*
X117884Y142220D01*
X118039Y143000D01*
X117884Y143780D01*
X117442Y144442D01*
X117122Y144656D01*
Y146505D01*
X117284Y146614D01*
X117592Y147075D01*
X117696Y147103D01*
X118044D01*
X118148Y147075D01*
X118456Y146614D01*
X118619Y146505D01*
Y144260D01*
X118619Y144260D01*
X118704Y143831D01*
X118947Y143467D01*
X122207Y140207D01*
X122207Y140207D01*
X122571Y139964D01*
X123000Y139878D01*
X146535D01*
X153878Y132535D01*
Y130954D01*
X153726Y130923D01*
X153280Y130625D01*
X152982Y130180D01*
X152877Y129654D01*
Y121701D01*
X152982Y121175D01*
X153280Y120729D01*
X153726Y120431D01*
X154252Y120326D01*
X155748D01*
X156274Y120431D01*
X156720Y120729D01*
X157018Y121175D01*
X157123Y121701D01*
Y129654D01*
X157018Y130180D01*
X156720Y130625D01*
X156274Y130923D01*
X156122Y130954D01*
Y133000D01*
X156122Y133000D01*
X156036Y133429D01*
X155793Y133793D01*
X155793Y133793D01*
X147793Y141793D01*
X147429Y142036D01*
X147000Y142122D01*
X147000Y142122D01*
X123465D01*
X120862Y144724D01*
Y146505D01*
X121024Y146614D01*
X121418Y147203D01*
X121556Y147898D01*
Y149472D01*
X121418Y150167D01*
X121024Y150757D01*
X120862Y150865D01*
Y152033D01*
X121280Y152116D01*
X121942Y152558D01*
X122384Y153220D01*
X122539Y154000D01*
X122484Y154278D01*
X122945Y154524D01*
X123378Y154091D01*
Y146000D01*
X123378Y146000D01*
X123464Y145571D01*
X123707Y145207D01*
X125207Y143707D01*
X125571Y143464D01*
X126000Y143378D01*
X126000Y143378D01*
X149035D01*
X158878Y133535D01*
Y130954D01*
X158726Y130923D01*
X158280Y130625D01*
X157982Y130180D01*
X157878Y129654D01*
Y121701D01*
X157982Y121175D01*
X158280Y120729D01*
X158726Y120431D01*
X159252Y120326D01*
X160748D01*
X161274Y120431D01*
X161720Y120729D01*
X162018Y121175D01*
X162122Y121701D01*
Y129654D01*
X162018Y130180D01*
X161720Y130625D01*
X161274Y130923D01*
X161122Y130954D01*
Y134000D01*
X161036Y134429D01*
X160793Y134793D01*
X160793Y134793D01*
X150293Y145293D01*
X149929Y145536D01*
X149500Y145622D01*
X149500Y145622D01*
X126465D01*
X125622Y146465D01*
Y154555D01*
X125622Y154555D01*
X125536Y154984D01*
X125293Y155348D01*
X121556Y159085D01*
Y160102D01*
X121418Y160797D01*
X121024Y161387D01*
X120435Y161780D01*
X119740Y161918D01*
X119045Y161780D01*
X118456Y161387D01*
X118411Y161319D01*
X117810D01*
X117572Y161675D01*
X116851Y162157D01*
X116500Y162227D01*
Y159315D01*
X115500D01*
Y162227D01*
X115149Y162157D01*
X114427Y161675D01*
X114190Y161319D01*
X113589Y161319D01*
X113544Y161387D01*
X113178Y161631D01*
Y163380D01*
X114380Y164582D01*
X117500D01*
X117851Y164652D01*
X118149Y164851D01*
X120149Y166851D01*
X120348Y167149D01*
X120418Y167500D01*
Y275620D01*
X127380Y282582D01*
X133402D01*
X133783Y282295D01*
X133783Y282082D01*
Y279925D01*
X136653D01*
Y279425D01*
X137153D01*
Y276555D01*
X139524D01*
Y277201D01*
X140787D01*
X140876Y277141D01*
Y276955D01*
X145817D01*
Y278213D01*
X146317Y278386D01*
X148584Y276118D01*
X148461Y275500D01*
X148616Y274720D01*
X149058Y274058D01*
X149720Y273616D01*
X150500Y273461D01*
X151119Y273584D01*
X152582Y272120D01*
Y268883D01*
X152082Y268732D01*
X151942Y268942D01*
X151280Y269384D01*
X150500Y269539D01*
X149881Y269416D01*
X147224Y272074D01*
X146926Y272273D01*
X146575Y272343D01*
X145817D01*
Y273895D01*
X140876D01*
Y273709D01*
X140787Y273649D01*
X139524D01*
Y274295D01*
X137153D01*
Y271425D01*
Y268555D01*
X139524D01*
Y269201D01*
X140787D01*
X140876Y269142D01*
Y268955D01*
X145817D01*
Y270213D01*
X146317Y270386D01*
X148584Y268118D01*
X148461Y267500D01*
X148584Y266882D01*
X147620Y265918D01*
X134500D01*
X134149Y265848D01*
X133851Y265649D01*
X130851Y262649D01*
X130652Y262351D01*
X130582Y262000D01*
Y251000D01*
Y203000D01*
X130652Y202649D01*
X130851Y202351D01*
X139351Y193851D01*
X139649Y193652D01*
X140000Y193582D01*
X189120D01*
X210165Y172537D01*
Y145649D01*
X195000D01*
X194541Y145459D01*
X194351Y145000D01*
Y119122D01*
X181656D01*
X181442Y119442D01*
X180780Y119884D01*
X180000Y120039D01*
X179220Y119884D01*
X178558Y119442D01*
X178116Y118780D01*
X177961Y118000D01*
X178116Y117220D01*
X178558Y116558D01*
X179220Y116116D01*
X180000Y115961D01*
X180780Y116116D01*
X181442Y116558D01*
X181656Y116878D01*
X194351D01*
Y113122D01*
X191656D01*
X191442Y113442D01*
X190780Y113884D01*
X190000Y114039D01*
X189220Y113884D01*
X188558Y113442D01*
X188116Y112780D01*
X187961Y112000D01*
X188116Y111220D01*
X188558Y110558D01*
X189220Y110116D01*
X190000Y109961D01*
X190780Y110116D01*
X191442Y110558D01*
X191656Y110878D01*
X194351D01*
Y100000D01*
X100000D01*
Y450000D01*
X400000D01*
Y100000D01*
D02*
G37*
G36*
X114190Y157310D02*
X114427Y156955D01*
X115149Y156473D01*
X115384Y156426D01*
Y155917D01*
X115220Y155884D01*
X114558Y155442D01*
X114344Y155122D01*
X113500D01*
X113500Y155122D01*
X113071Y155036D01*
X112707Y154793D01*
X112707Y154793D01*
X111467Y153553D01*
X111224Y153189D01*
X111138Y152760D01*
X111138Y152760D01*
Y150865D01*
X110976Y150757D01*
X110582Y150167D01*
X110444Y149472D01*
Y147898D01*
X110582Y147203D01*
X110976Y146614D01*
X111138Y146505D01*
Y141740D01*
X111138Y141740D01*
X111224Y141311D01*
X111467Y140947D01*
X115707Y136707D01*
X115707Y136707D01*
X116071Y136464D01*
X116500Y136378D01*
X144035D01*
X148878Y131535D01*
Y130954D01*
X148726Y130923D01*
X148280Y130625D01*
X147982Y130180D01*
X147878Y129654D01*
Y121701D01*
X147948Y121345D01*
X147487Y121099D01*
X144122Y124465D01*
Y130000D01*
X144036Y130429D01*
X143793Y130793D01*
X143793Y130793D01*
X139793Y134793D01*
X139429Y135036D01*
X139000Y135122D01*
X139000Y135122D01*
X113965D01*
X109622Y139465D01*
Y155091D01*
X111454Y156923D01*
X111565Y156850D01*
X112260Y156712D01*
X112955Y156850D01*
X113544Y157244D01*
X113589Y157310D01*
X114190Y157310D01*
D02*
G37*
%LPC*%
G36*
X177500Y440088D02*
X176316Y439932D01*
X175212Y439475D01*
X174264Y438748D01*
X173537Y437800D01*
X173080Y436696D01*
X172924Y435512D01*
X173080Y434327D01*
X173537Y433224D01*
X174264Y432276D01*
X175212Y431549D01*
X176316Y431092D01*
X177500Y430936D01*
X178684Y431092D01*
X179788Y431549D01*
X180736Y432276D01*
X181463Y433224D01*
X181920Y434327D01*
X182076Y435512D01*
X181920Y436696D01*
X181463Y437800D01*
X180736Y438748D01*
X179788Y439475D01*
X178684Y439932D01*
X177500Y440088D01*
D02*
G37*
G36*
X142500D02*
X141316Y439932D01*
X140212Y439475D01*
X139264Y438748D01*
X138537Y437800D01*
X138080Y436696D01*
X137924Y435512D01*
X138080Y434327D01*
X138537Y433224D01*
X139264Y432276D01*
X140212Y431549D01*
X141316Y431092D01*
X142500Y430936D01*
X143684Y431092D01*
X144788Y431549D01*
X145736Y432276D01*
X146463Y433224D01*
X146920Y434327D01*
X147076Y435512D01*
X146920Y436696D01*
X146463Y437800D01*
X145736Y438748D01*
X144788Y439475D01*
X143684Y439932D01*
X142500Y440088D01*
D02*
G37*
G36*
X357500D02*
X356316Y439932D01*
X355212Y439475D01*
X354264Y438748D01*
X353537Y437800D01*
X353080Y436696D01*
X352924Y435512D01*
X353080Y434327D01*
X353352Y433671D01*
X349722Y430041D01*
X344905D01*
X344281Y429916D01*
X343752Y429563D01*
X341841Y427652D01*
X341184Y427924D01*
X340000Y428080D01*
X338816Y427924D01*
X338159Y427652D01*
X336248Y429563D01*
X335719Y429916D01*
X335095Y430041D01*
X330278D01*
X326648Y433671D01*
X326920Y434327D01*
X327076Y435512D01*
X326920Y436696D01*
X326463Y437800D01*
X325736Y438748D01*
X324788Y439475D01*
X323684Y439932D01*
X322500Y440088D01*
X321316Y439932D01*
X320212Y439475D01*
X319264Y438748D01*
X318537Y437800D01*
X318080Y436696D01*
X317924Y435512D01*
X318080Y434327D01*
X318537Y433224D01*
X319264Y432276D01*
X320212Y431549D01*
X321316Y431092D01*
X322500Y430936D01*
X323684Y431092D01*
X324341Y431364D01*
X328449Y427256D01*
X328978Y426902D01*
X329603Y426778D01*
X334419D01*
X335852Y425345D01*
X335580Y424688D01*
X335424Y423504D01*
X335580Y422320D01*
X336037Y421216D01*
X336764Y420268D01*
X337712Y419541D01*
X338816Y419084D01*
X340000Y418928D01*
X341184Y419084D01*
X341841Y419356D01*
X345850Y415346D01*
X346380Y414993D01*
X347004Y414869D01*
X367824D01*
X381369Y401324D01*
Y181000D01*
X381493Y180376D01*
X381846Y179847D01*
X384972Y176720D01*
X385502Y176367D01*
X386126Y176243D01*
X389766D01*
X390028Y175902D01*
X390605Y175459D01*
X391278Y175180D01*
X392000Y175085D01*
X392722Y175180D01*
X393395Y175459D01*
X393972Y175902D01*
X394415Y176479D01*
X394694Y177152D01*
X394789Y177874D01*
X394694Y178596D01*
X394415Y179269D01*
X393972Y179846D01*
X393395Y180290D01*
X392722Y180568D01*
X392000Y180663D01*
X391278Y180568D01*
X390605Y180290D01*
X390028Y179846D01*
X389766Y179505D01*
X386802D01*
X384631Y181676D01*
Y402000D01*
X384507Y402624D01*
X384154Y403154D01*
X369654Y417654D01*
X369124Y418007D01*
X368500Y418131D01*
X347680D01*
X344148Y421663D01*
X344420Y422320D01*
X344576Y423504D01*
X344420Y424688D01*
X344148Y425345D01*
X345581Y426778D01*
X350397D01*
X351022Y426902D01*
X351551Y427256D01*
X355659Y431364D01*
X356316Y431092D01*
X357500Y430936D01*
X358684Y431092D01*
X359788Y431549D01*
X360736Y432276D01*
X361463Y433224D01*
X361920Y434327D01*
X362076Y435512D01*
X361920Y436696D01*
X361463Y437800D01*
X360736Y438748D01*
X359788Y439475D01*
X358684Y439932D01*
X357500Y440088D01*
D02*
G37*
G36*
X297500D02*
X296316Y439932D01*
X295212Y439475D01*
X294264Y438748D01*
X293537Y437800D01*
X293080Y436696D01*
X292924Y435512D01*
X293080Y434327D01*
X293352Y433671D01*
X290812Y431131D01*
X285996D01*
X285372Y431007D01*
X284842Y430653D01*
X281841Y427652D01*
X281184Y427924D01*
X280000Y428080D01*
X278816Y427924D01*
X278159Y427652D01*
X275157Y430653D01*
X274628Y431007D01*
X274004Y431131D01*
X269187D01*
X266648Y433671D01*
X266920Y434327D01*
X267076Y435512D01*
X266920Y436696D01*
X266463Y437800D01*
X265736Y438748D01*
X264788Y439475D01*
X263684Y439932D01*
X262500Y440088D01*
X261316Y439932D01*
X260212Y439475D01*
X259264Y438748D01*
X258537Y437800D01*
X258265Y437143D01*
X241735D01*
X241463Y437800D01*
X240736Y438748D01*
X239788Y439475D01*
X238684Y439932D01*
X237500Y440088D01*
X236316Y439932D01*
X235212Y439475D01*
X234264Y438748D01*
X233537Y437800D01*
X233080Y436696D01*
X232924Y435512D01*
X233080Y434327D01*
X233352Y433671D01*
X230813Y431131D01*
X225996D01*
X225372Y431007D01*
X224843Y430653D01*
X221841Y427652D01*
X221184Y427924D01*
X220000Y428080D01*
X218816Y427924D01*
X218159Y427652D01*
X215158Y430653D01*
X214628Y431007D01*
X214004Y431131D01*
X209188D01*
X206648Y433671D01*
X206920Y434327D01*
X207076Y435512D01*
X206920Y436696D01*
X206463Y437800D01*
X205736Y438748D01*
X204788Y439475D01*
X203684Y439932D01*
X202500Y440088D01*
X201316Y439932D01*
X200212Y439475D01*
X199264Y438748D01*
X198537Y437800D01*
X198080Y436696D01*
X197924Y435512D01*
X198080Y434327D01*
X198537Y433224D01*
X199264Y432276D01*
X200212Y431549D01*
X201316Y431092D01*
X202500Y430936D01*
X203684Y431092D01*
X204341Y431364D01*
X207358Y428346D01*
X207888Y427993D01*
X208512Y427869D01*
X213328D01*
X215852Y425345D01*
X215580Y424688D01*
X215424Y423504D01*
X215580Y422320D01*
X216037Y421216D01*
X216764Y420268D01*
X217712Y419541D01*
X218816Y419084D01*
X220000Y418928D01*
X221184Y419084D01*
X222288Y419541D01*
X223236Y420268D01*
X223963Y421216D01*
X224420Y422320D01*
X224576Y423504D01*
X224420Y424688D01*
X224148Y425345D01*
X226672Y427869D01*
X231488D01*
X232113Y427993D01*
X232642Y428346D01*
X235659Y431364D01*
X236316Y431092D01*
X237500Y430936D01*
X238684Y431092D01*
X239788Y431549D01*
X240736Y432276D01*
X241463Y433224D01*
X241735Y433881D01*
X258265D01*
X258537Y433224D01*
X259264Y432276D01*
X260212Y431549D01*
X261316Y431092D01*
X262500Y430936D01*
X263684Y431092D01*
X264341Y431364D01*
X267358Y428346D01*
X267887Y427993D01*
X268512Y427869D01*
X273328D01*
X275852Y425345D01*
X275580Y424688D01*
X275424Y423504D01*
X275580Y422320D01*
X276037Y421216D01*
X276764Y420268D01*
X277712Y419541D01*
X278816Y419084D01*
X280000Y418928D01*
X281184Y419084D01*
X282288Y419541D01*
X283236Y420268D01*
X283963Y421216D01*
X284420Y422320D01*
X284576Y423504D01*
X284420Y424688D01*
X284148Y425345D01*
X286672Y427869D01*
X291488D01*
X292112Y427993D01*
X292642Y428346D01*
X295659Y431364D01*
X296316Y431092D01*
X297500Y430936D01*
X298684Y431092D01*
X299788Y431549D01*
X300736Y432276D01*
X301463Y433224D01*
X301920Y434327D01*
X302076Y435512D01*
X301920Y436696D01*
X301463Y437800D01*
X300736Y438748D01*
X299788Y439475D01*
X298684Y439932D01*
X297500Y440088D01*
D02*
G37*
G36*
X385000Y449424D02*
X382744Y449246D01*
X380543Y448718D01*
X378452Y447852D01*
X376522Y446669D01*
X374801Y445199D01*
X373331Y443478D01*
X372148Y441548D01*
X371282Y439457D01*
X370754Y437256D01*
X370576Y435000D01*
X370754Y432744D01*
X371282Y430543D01*
X372148Y428452D01*
X373331Y426522D01*
X374801Y424801D01*
X376522Y423331D01*
X378452Y422148D01*
X380543Y421282D01*
X382744Y420754D01*
X385000Y420576D01*
X387256Y420754D01*
X389457Y421282D01*
X391548Y422148D01*
X393478Y423331D01*
X395199Y424801D01*
X396669Y426522D01*
X397852Y428452D01*
X398718Y430543D01*
X399246Y432744D01*
X399424Y435000D01*
X399246Y437256D01*
X398718Y439457D01*
X397852Y441548D01*
X396669Y443478D01*
X395199Y445199D01*
X393478Y446669D01*
X391548Y447852D01*
X389457Y448718D01*
X387256Y449246D01*
X385000Y449424D01*
D02*
G37*
G36*
X115000D02*
X112744Y449246D01*
X110543Y448718D01*
X108452Y447852D01*
X106522Y446669D01*
X104801Y445199D01*
X103331Y443478D01*
X102148Y441548D01*
X101282Y439457D01*
X100754Y437256D01*
X100576Y435000D01*
X100754Y432744D01*
X101282Y430543D01*
X102148Y428452D01*
X103331Y426522D01*
X104801Y424801D01*
X106522Y423331D01*
X108452Y422148D01*
X110543Y421282D01*
X112744Y420754D01*
X115000Y420576D01*
X117256Y420754D01*
X119457Y421282D01*
X121548Y422148D01*
X123478Y423331D01*
X125199Y424801D01*
X126669Y426522D01*
X127852Y428452D01*
X128718Y430543D01*
X129246Y432744D01*
X129424Y435000D01*
X129246Y437256D01*
X128718Y439457D01*
X127852Y441548D01*
X126669Y443478D01*
X125199Y445199D01*
X123478Y446669D01*
X121548Y447852D01*
X119457Y448718D01*
X117256Y449246D01*
X115000Y449424D01*
D02*
G37*
G36*
X160000Y428080D02*
X158816Y427924D01*
X157712Y427467D01*
X156764Y426740D01*
X156037Y425792D01*
X155580Y424688D01*
X155424Y423504D01*
X155580Y422320D01*
X156037Y421216D01*
X156764Y420268D01*
X157712Y419541D01*
X158816Y419084D01*
X160000Y418928D01*
X161184Y419084D01*
X162288Y419541D01*
X163236Y420268D01*
X163963Y421216D01*
X164420Y422320D01*
X164576Y423504D01*
X164420Y424688D01*
X163963Y425792D01*
X163236Y426740D01*
X162288Y427467D01*
X161184Y427924D01*
X160000Y428080D01*
D02*
G37*
G36*
X329000Y416622D02*
X329000Y416622D01*
X167500D01*
X167500Y416622D01*
X167071Y416536D01*
X166707Y416293D01*
X154207Y403793D01*
X153964Y403429D01*
X153878Y403000D01*
X153878Y403000D01*
Y337965D01*
X145207Y329293D01*
X144964Y328929D01*
X144878Y328500D01*
X144878Y328500D01*
Y326750D01*
X143431D01*
Y324978D01*
X131470D01*
Y325816D01*
X130631D01*
Y331758D01*
X130781D01*
Y339021D01*
X127219D01*
Y331758D01*
X127369D01*
Y325816D01*
X126530D01*
Y320876D01*
X126716D01*
X126776Y320787D01*
Y319524D01*
X126130D01*
Y317154D01*
X129000D01*
X131870D01*
Y319524D01*
X131224D01*
Y320787D01*
X131284Y320876D01*
X131470D01*
Y321715D01*
X143431D01*
Y319250D01*
X144878D01*
Y315656D01*
X144558Y315442D01*
X144116Y314780D01*
X143961Y314000D01*
X144116Y313220D01*
X144558Y312558D01*
X145220Y312116D01*
X146000Y311961D01*
X146780Y312116D01*
X147442Y312558D01*
X147884Y313220D01*
X148039Y314000D01*
X147884Y314780D01*
X147442Y315442D01*
X147122Y315656D01*
Y319250D01*
X148568D01*
Y326750D01*
X147122D01*
Y328035D01*
X155793Y336707D01*
X155793Y336707D01*
X156036Y337071D01*
X156122Y337500D01*
Y402535D01*
X167965Y414378D01*
X328535D01*
X361878Y381035D01*
Y354465D01*
X360535Y353121D01*
X359391D01*
Y354470D01*
X354451D01*
Y354284D01*
X354362Y354224D01*
X352787D01*
X352698Y354284D01*
Y354470D01*
X351456D01*
Y357530D01*
X352911D01*
Y357716D01*
X353000Y357776D01*
X354575D01*
X354664Y357716D01*
Y357530D01*
X359604D01*
Y362470D01*
X358255D01*
Y365530D01*
X359604D01*
Y370470D01*
X354664D01*
Y370284D01*
X354574Y370224D01*
X353311D01*
Y370870D01*
X350941D01*
Y368000D01*
Y365130D01*
X353311D01*
Y365775D01*
X354574D01*
X354664Y365716D01*
Y365530D01*
X356012D01*
Y362470D01*
X354664D01*
Y362284D01*
X354575Y362224D01*
X353000D01*
X352911Y362284D01*
Y362470D01*
X347971D01*
Y357530D01*
X349213D01*
Y354470D01*
X347758D01*
Y349530D01*
X352698D01*
Y349716D01*
X352787Y349776D01*
X354362D01*
X354451Y349716D01*
Y349530D01*
X359391D01*
Y350879D01*
X361000D01*
X361000Y350878D01*
X361429Y350964D01*
X361793Y351207D01*
X363793Y353207D01*
X363793Y353207D01*
X364036Y353571D01*
X364122Y354000D01*
X364122Y354000D01*
Y381500D01*
X364122Y381500D01*
X364036Y381929D01*
X363793Y382293D01*
X363793Y382293D01*
X329793Y416293D01*
X329429Y416536D01*
X329000Y416622D01*
D02*
G37*
G36*
X116000Y402576D02*
X114816Y402420D01*
X113712Y401963D01*
X112764Y401236D01*
X112037Y400288D01*
X111580Y399184D01*
X111424Y398000D01*
X111580Y396816D01*
X111852Y396159D01*
X105847Y390154D01*
X105493Y389624D01*
X105369Y389000D01*
Y368500D01*
X105493Y367876D01*
X105847Y367347D01*
X109846Y363347D01*
X110376Y362993D01*
X111000Y362869D01*
X116824D01*
X117369Y362324D01*
Y360242D01*
X117219D01*
Y352979D01*
X120781D01*
Y360242D01*
X120631D01*
Y363000D01*
X120507Y363624D01*
X120153Y364154D01*
X118654Y365653D01*
X118124Y366007D01*
X117500Y366131D01*
X111676D01*
X108631Y369176D01*
Y388324D01*
X114159Y393852D01*
X114816Y393580D01*
X116000Y393424D01*
X117184Y393580D01*
X118288Y394037D01*
X119236Y394764D01*
X119963Y395712D01*
X120235Y396369D01*
X134824D01*
X144369Y386824D01*
Y381750D01*
X143431D01*
Y374250D01*
X148568D01*
Y381750D01*
X147631D01*
Y387500D01*
X147507Y388124D01*
X147153Y388653D01*
X136653Y399153D01*
X136124Y399507D01*
X135500Y399631D01*
X120235D01*
X119963Y400288D01*
X119236Y401236D01*
X118288Y401963D01*
X117184Y402420D01*
X116000Y402576D01*
D02*
G37*
G36*
X349941Y370870D02*
X347571D01*
Y368500D01*
X349941D01*
Y370870D01*
D02*
G37*
G36*
Y367500D02*
X347571D01*
Y365130D01*
X349941D01*
Y367500D01*
D02*
G37*
G36*
X120537Y382852D02*
X111463D01*
Y373778D01*
X120537D01*
Y376684D01*
X125009D01*
X127369Y374324D01*
Y360242D01*
X127219D01*
Y352979D01*
X130781D01*
Y356400D01*
X143431D01*
Y355250D01*
X148568D01*
Y362750D01*
X143431D01*
Y359663D01*
X130781D01*
Y360242D01*
X130631D01*
Y375000D01*
X130507Y375624D01*
X130154Y376153D01*
X126839Y379468D01*
X126309Y379822D01*
X125685Y379946D01*
X120537D01*
Y382852D01*
D02*
G37*
G36*
X148568Y345750D02*
X143431D01*
Y343631D01*
X141658D01*
X141280Y343884D01*
X140500Y344039D01*
X139720Y343884D01*
X139058Y343442D01*
X138616Y342780D01*
X138461Y342000D01*
X138616Y341220D01*
X139058Y340558D01*
X139720Y340116D01*
X140500Y339961D01*
X141280Y340116D01*
X141658Y340369D01*
X143431D01*
Y338250D01*
X148568D01*
Y345750D01*
D02*
G37*
G36*
X120781Y339021D02*
X117219D01*
Y331758D01*
X117369D01*
Y325816D01*
X116530D01*
Y320876D01*
X116716D01*
X116776Y320787D01*
Y319524D01*
X116130D01*
Y317154D01*
X119000D01*
X121870D01*
Y319524D01*
X121224D01*
Y320787D01*
X121284Y320876D01*
X121470D01*
Y325816D01*
X120631D01*
Y331758D01*
X120781D01*
Y339021D01*
D02*
G37*
G36*
X131870Y316154D02*
X129500D01*
Y313784D01*
X131870D01*
Y316154D01*
D02*
G37*
G36*
X128500D02*
X126130D01*
Y313784D01*
X128500D01*
Y316154D01*
D02*
G37*
G36*
X121870D02*
X119500D01*
Y313784D01*
X121870D01*
Y316154D01*
D02*
G37*
G36*
X118500D02*
X116130D01*
Y313784D01*
X118500D01*
Y316154D01*
D02*
G37*
G36*
X379150Y299969D02*
X375500D01*
Y297500D01*
X379150D01*
Y299969D01*
D02*
G37*
G36*
X374500D02*
X370850D01*
Y297500D01*
X374500D01*
Y299969D01*
D02*
G37*
G36*
X293076Y291543D02*
X289886D01*
Y290271D01*
X291404D01*
X292082Y290406D01*
X292657Y290790D01*
X293041Y291365D01*
X293076Y291543D01*
D02*
G37*
G36*
X242076D02*
X238886D01*
Y290271D01*
X240404D01*
X241082Y290406D01*
X241657Y290790D01*
X242041Y291365D01*
X242076Y291543D01*
D02*
G37*
G36*
X188076D02*
X184886D01*
Y290271D01*
X186404D01*
X187082Y290406D01*
X187657Y290790D01*
X188041Y291365D01*
X188076Y291543D01*
D02*
G37*
G36*
X283217Y287500D02*
X280847D01*
Y285130D01*
X283217D01*
Y287500D01*
D02*
G37*
G36*
X230217D02*
X227847D01*
Y285130D01*
X230217D01*
Y287500D01*
D02*
G37*
G36*
X136153Y278925D02*
X133783D01*
Y276555D01*
X136153D01*
Y278925D01*
D02*
G37*
G36*
X356316Y277427D02*
X346652D01*
Y272684D01*
X356316D01*
Y273369D01*
X358342D01*
X358720Y273116D01*
X359500Y272961D01*
X360280Y273116D01*
X360942Y273558D01*
X361384Y274220D01*
X361539Y275000D01*
X361384Y275780D01*
X360942Y276442D01*
X360280Y276884D01*
X359500Y277039D01*
X358720Y276884D01*
X358342Y276631D01*
X356316D01*
Y277427D01*
D02*
G37*
G36*
X136153Y274295D02*
X133783D01*
Y271925D01*
X136153D01*
Y274295D01*
D02*
G37*
G36*
Y270925D02*
X133783D01*
Y268555D01*
X136153D01*
Y270925D01*
D02*
G37*
G36*
X379150Y296500D02*
X375000D01*
X370850D01*
Y294032D01*
X373369D01*
Y273299D01*
X369284D01*
Y267631D01*
X356716D01*
Y268772D01*
X351984D01*
Y266000D01*
Y263228D01*
X356716D01*
Y264369D01*
X369284D01*
Y258701D01*
X372715D01*
Y245870D01*
X371476D01*
Y245224D01*
X370213D01*
X370124Y245284D01*
Y245470D01*
X365183D01*
Y244631D01*
X363158D01*
X362780Y244884D01*
X362000Y245039D01*
X361220Y244884D01*
X360558Y244442D01*
X360116Y243780D01*
X359961Y243000D01*
X360116Y242220D01*
X360558Y241558D01*
X361220Y241116D01*
X362000Y240961D01*
X362780Y241116D01*
X363158Y241369D01*
X365183D01*
Y240530D01*
X370124D01*
Y240716D01*
X370213Y240776D01*
X371476D01*
Y240130D01*
X373847D01*
Y243000D01*
X374346D01*
Y243500D01*
X377217D01*
Y245870D01*
X375978D01*
Y258701D01*
X379748D01*
Y265500D01*
X374516D01*
Y266500D01*
X379748D01*
Y273299D01*
X376631D01*
Y294032D01*
X379150D01*
Y296500D01*
D02*
G37*
G36*
X350984Y268772D02*
X346252D01*
Y266500D01*
X350984D01*
Y268772D01*
D02*
G37*
G36*
X250750Y265568D02*
X243250D01*
Y264122D01*
X242156D01*
X241942Y264442D01*
X241280Y264884D01*
X240500Y265039D01*
X239720Y264884D01*
X239058Y264442D01*
X238616Y263780D01*
X238461Y263000D01*
X238616Y262220D01*
X239058Y261558D01*
X239720Y261116D01*
X240500Y260961D01*
X241280Y261116D01*
X241942Y261558D01*
X242156Y261878D01*
X243250D01*
Y260432D01*
X250750D01*
Y265568D01*
D02*
G37*
G36*
X350984Y265500D02*
X346252D01*
Y263228D01*
X350984D01*
Y265500D01*
D02*
G37*
G36*
X377217Y242500D02*
X374847D01*
Y240130D01*
X377217D01*
Y242500D01*
D02*
G37*
G36*
X184216Y236500D02*
X181846D01*
Y234130D01*
X184216D01*
Y236500D01*
D02*
G37*
G36*
X340000Y221072D02*
X338816Y220916D01*
X337712Y220459D01*
X336764Y219732D01*
X336037Y218784D01*
X335580Y217681D01*
X335424Y216496D01*
X335580Y215312D01*
X335852Y214655D01*
X334419Y213222D01*
X329603D01*
X328978Y213098D01*
X328449Y212744D01*
X324341Y208636D01*
X323684Y208908D01*
X322500Y209064D01*
X321316Y208908D01*
X320212Y208451D01*
X319264Y207724D01*
X318537Y206776D01*
X318265Y206119D01*
X301735D01*
X301463Y206776D01*
X300736Y207724D01*
X299788Y208451D01*
X298684Y208908D01*
X297500Y209064D01*
X296316Y208908D01*
X295659Y208636D01*
X291551Y212744D01*
X291022Y213098D01*
X290397Y213222D01*
X285581D01*
X284148Y214655D01*
X284420Y215312D01*
X284576Y216496D01*
X284420Y217681D01*
X283963Y218784D01*
X283236Y219732D01*
X282288Y220459D01*
X281184Y220916D01*
X280000Y221072D01*
X278816Y220916D01*
X277712Y220459D01*
X276764Y219732D01*
X276037Y218784D01*
X275580Y217681D01*
X275424Y216496D01*
X275580Y215312D01*
X275852Y214655D01*
X274419Y213222D01*
X269603D01*
X268978Y213098D01*
X268449Y212744D01*
X264341Y208636D01*
X263684Y208908D01*
X262500Y209064D01*
X261316Y208908D01*
X260212Y208451D01*
X259264Y207724D01*
X258537Y206776D01*
X258080Y205673D01*
X257924Y204488D01*
X258080Y203304D01*
X258537Y202200D01*
X259264Y201252D01*
X260212Y200525D01*
X261316Y200068D01*
X262500Y199912D01*
X263684Y200068D01*
X264788Y200525D01*
X265736Y201252D01*
X266463Y202200D01*
X266920Y203304D01*
X267076Y204488D01*
X266920Y205673D01*
X266648Y206329D01*
X270278Y209960D01*
X275095D01*
X275719Y210084D01*
X276248Y210437D01*
X278159Y212348D01*
X278816Y212076D01*
X280000Y211920D01*
X281184Y212076D01*
X281841Y212348D01*
X283752Y210437D01*
X284281Y210084D01*
X284905Y209960D01*
X289722D01*
X293352Y206329D01*
X293080Y205673D01*
X292924Y204488D01*
X293080Y203304D01*
X293537Y202200D01*
X294264Y201252D01*
X295212Y200525D01*
X296316Y200068D01*
X297500Y199912D01*
X298684Y200068D01*
X299788Y200525D01*
X300736Y201252D01*
X301463Y202200D01*
X301735Y202857D01*
X318265D01*
X318537Y202200D01*
X319264Y201252D01*
X320212Y200525D01*
X321316Y200068D01*
X322500Y199912D01*
X323684Y200068D01*
X324788Y200525D01*
X325736Y201252D01*
X326463Y202200D01*
X326920Y203304D01*
X327076Y204488D01*
X326920Y205673D01*
X326648Y206329D01*
X330278Y209960D01*
X335095D01*
X335719Y210084D01*
X336248Y210437D01*
X338159Y212348D01*
X338816Y212076D01*
X340000Y211920D01*
X341184Y212076D01*
X341841Y212348D01*
X343752Y210437D01*
X344281Y210084D01*
X344905Y209960D01*
X349722D01*
X353352Y206329D01*
X353080Y205673D01*
X352924Y204488D01*
X353080Y203304D01*
X353537Y202200D01*
X354264Y201252D01*
X355212Y200525D01*
X356316Y200068D01*
X357500Y199912D01*
X358684Y200068D01*
X359788Y200525D01*
X360736Y201252D01*
X361463Y202200D01*
X361920Y203304D01*
X362076Y204488D01*
X361920Y205673D01*
X361463Y206776D01*
X360736Y207724D01*
X359788Y208451D01*
X358684Y208908D01*
X357500Y209064D01*
X356316Y208908D01*
X355659Y208636D01*
X351551Y212744D01*
X351022Y213098D01*
X350397Y213222D01*
X345581D01*
X344148Y214655D01*
X344420Y215312D01*
X344576Y216496D01*
X344420Y217681D01*
X343963Y218784D01*
X343236Y219732D01*
X342288Y220459D01*
X341184Y220916D01*
X340000Y221072D01*
D02*
G37*
G36*
X220000D02*
X218816Y220916D01*
X217712Y220459D01*
X216764Y219732D01*
X216037Y218784D01*
X215580Y217681D01*
X215424Y216496D01*
X215580Y215312D01*
X215852Y214655D01*
X214419Y213222D01*
X209603D01*
X208978Y213098D01*
X208449Y212744D01*
X204341Y208636D01*
X203684Y208908D01*
X202500Y209064D01*
X201316Y208908D01*
X200212Y208451D01*
X199264Y207724D01*
X198537Y206776D01*
X198265Y206119D01*
X181735D01*
X181463Y206776D01*
X180736Y207724D01*
X179788Y208451D01*
X178684Y208908D01*
X177500Y209064D01*
X176316Y208908D01*
X175659Y208636D01*
X171551Y212744D01*
X171022Y213098D01*
X170397Y213222D01*
X165581D01*
X164148Y214655D01*
X164420Y215312D01*
X164576Y216496D01*
X164420Y217681D01*
X163963Y218784D01*
X163236Y219732D01*
X162288Y220459D01*
X161184Y220916D01*
X160000Y221072D01*
X158816Y220916D01*
X157712Y220459D01*
X156764Y219732D01*
X156037Y218784D01*
X155580Y217681D01*
X155424Y216496D01*
X155580Y215312D01*
X155852Y214655D01*
X154419Y213222D01*
X149603D01*
X148978Y213098D01*
X148449Y212744D01*
X144341Y208636D01*
X143684Y208908D01*
X142500Y209064D01*
X141316Y208908D01*
X140212Y208451D01*
X139264Y207724D01*
X138537Y206776D01*
X138080Y205673D01*
X137924Y204488D01*
X138080Y203304D01*
X138537Y202200D01*
X139264Y201252D01*
X140212Y200525D01*
X141316Y200068D01*
X142500Y199912D01*
X143684Y200068D01*
X144788Y200525D01*
X145736Y201252D01*
X146463Y202200D01*
X146920Y203304D01*
X147076Y204488D01*
X146920Y205673D01*
X146648Y206329D01*
X150278Y209960D01*
X155095D01*
X155719Y210084D01*
X156248Y210437D01*
X158159Y212348D01*
X158816Y212076D01*
X160000Y211920D01*
X161184Y212076D01*
X161841Y212348D01*
X163752Y210437D01*
X164281Y210084D01*
X164905Y209960D01*
X169722D01*
X173352Y206329D01*
X173080Y205673D01*
X172924Y204488D01*
X173080Y203304D01*
X173537Y202200D01*
X174264Y201252D01*
X175212Y200525D01*
X176316Y200068D01*
X177500Y199912D01*
X178684Y200068D01*
X179788Y200525D01*
X180736Y201252D01*
X181463Y202200D01*
X181735Y202857D01*
X198265D01*
X198537Y202200D01*
X199264Y201252D01*
X200212Y200525D01*
X201316Y200068D01*
X202500Y199912D01*
X203684Y200068D01*
X204788Y200525D01*
X205736Y201252D01*
X206463Y202200D01*
X206920Y203304D01*
X207076Y204488D01*
X206920Y205673D01*
X206648Y206329D01*
X210278Y209960D01*
X215095D01*
X215719Y210084D01*
X216248Y210437D01*
X218159Y212348D01*
X218816Y212076D01*
X220000Y211920D01*
X221184Y212076D01*
X221841Y212348D01*
X223752Y210437D01*
X224281Y210084D01*
X224905Y209960D01*
X229722D01*
X233352Y206329D01*
X233080Y205673D01*
X232924Y204488D01*
X233080Y203304D01*
X233537Y202200D01*
X234264Y201252D01*
X235212Y200525D01*
X236316Y200068D01*
X237500Y199912D01*
X238684Y200068D01*
X239788Y200525D01*
X240736Y201252D01*
X241463Y202200D01*
X241920Y203304D01*
X242076Y204488D01*
X241920Y205673D01*
X241463Y206776D01*
X240736Y207724D01*
X239788Y208451D01*
X238684Y208908D01*
X237500Y209064D01*
X236316Y208908D01*
X235659Y208636D01*
X231551Y212744D01*
X231022Y213098D01*
X230397Y213222D01*
X225581D01*
X224148Y214655D01*
X224420Y215312D01*
X224576Y216496D01*
X224420Y217681D01*
X223963Y218784D01*
X223236Y219732D01*
X222288Y220459D01*
X221184Y220916D01*
X220000Y221072D01*
D02*
G37*
G36*
X392000Y193671D02*
X390816Y193515D01*
X389712Y193058D01*
X388764Y192330D01*
X388037Y191383D01*
X387580Y190279D01*
X387424Y189094D01*
X387580Y187910D01*
X388037Y186806D01*
X388764Y185859D01*
X389712Y185131D01*
X390816Y184674D01*
X392000Y184518D01*
X393184Y184674D01*
X394288Y185131D01*
X395236Y185859D01*
X395963Y186806D01*
X396420Y187910D01*
X396576Y189094D01*
X396420Y190279D01*
X395963Y191383D01*
X395236Y192330D01*
X394288Y193058D01*
X393184Y193515D01*
X392000Y193671D01*
D02*
G37*
G36*
X344094Y192301D02*
X342653Y192111D01*
X341310Y191555D01*
X340157Y190670D01*
X339272Y189517D01*
X338715Y188174D01*
X338526Y186732D01*
X338715Y185291D01*
X339272Y183948D01*
X340157Y182794D01*
X341310Y181910D01*
X342653Y181353D01*
X344094Y181163D01*
X345536Y181353D01*
X346879Y181910D01*
X348032Y182794D01*
X348917Y183948D01*
X349474Y185291D01*
X349663Y186732D01*
X349474Y188174D01*
X348917Y189517D01*
X348032Y190670D01*
X346879Y191555D01*
X345536Y192111D01*
X344094Y192301D01*
D02*
G37*
G36*
X155905D02*
X154464Y192111D01*
X153121Y191555D01*
X151968Y190670D01*
X151083Y189517D01*
X150526Y188174D01*
X150337Y186732D01*
X150526Y185291D01*
X151083Y183948D01*
X151968Y182794D01*
X153121Y181910D01*
X154464Y181353D01*
X155905Y181163D01*
X157347Y181353D01*
X158690Y181910D01*
X159843Y182794D01*
X160728Y183948D01*
X161285Y185291D01*
X161474Y186732D01*
X161285Y188174D01*
X160728Y189517D01*
X159843Y190670D01*
X158690Y191555D01*
X157347Y192111D01*
X155905Y192301D01*
D02*
G37*
G36*
X365657Y181804D02*
Y177390D01*
X370071D01*
X369967Y178179D01*
X369470Y179380D01*
X368679Y180411D01*
X367647Y181202D01*
X366446Y181700D01*
X365657Y181804D01*
D02*
G37*
G36*
X364657D02*
X363869Y181700D01*
X362668Y181202D01*
X361636Y180411D01*
X360845Y179380D01*
X360348Y178179D01*
X360244Y177390D01*
X364657D01*
Y181804D01*
D02*
G37*
G36*
X134843Y181466D02*
X133658Y181310D01*
X132554Y180853D01*
X131607Y180126D01*
X130879Y179178D01*
X130422Y178074D01*
X130266Y176890D01*
X130422Y175705D01*
X130879Y174602D01*
X131607Y173654D01*
X132554Y172927D01*
X133658Y172469D01*
X134843Y172314D01*
X136027Y172469D01*
X137131Y172927D01*
X138078Y173654D01*
X138806Y174602D01*
X139263Y175705D01*
X139419Y176890D01*
X139263Y178074D01*
X138806Y179178D01*
X138078Y180126D01*
X137131Y180853D01*
X136027Y181310D01*
X134843Y181466D01*
D02*
G37*
G36*
X370071Y176390D02*
X365657D01*
Y171976D01*
X366446Y172080D01*
X367647Y172577D01*
X368679Y173369D01*
X369470Y174400D01*
X369967Y175601D01*
X370071Y176390D01*
D02*
G37*
G36*
X364657D02*
X360244D01*
X360348Y175601D01*
X360845Y174400D01*
X361636Y173369D01*
X362668Y172577D01*
X363869Y172080D01*
X364657Y171976D01*
Y176390D01*
D02*
G37*
G36*
X392000Y164915D02*
X391278Y164820D01*
X390605Y164541D01*
X390028Y164098D01*
X389584Y163521D01*
X389306Y162848D01*
X389211Y162126D01*
X389306Y161404D01*
X389584Y160731D01*
X390028Y160154D01*
X390605Y159710D01*
X391278Y159432D01*
X392000Y159337D01*
X392722Y159432D01*
X393395Y159710D01*
X393972Y160154D01*
X394415Y160731D01*
X394694Y161404D01*
X394789Y162126D01*
X394694Y162848D01*
X394415Y163521D01*
X393972Y164098D01*
X393395Y164541D01*
X392722Y164820D01*
X392000Y164915D01*
D02*
G37*
G36*
X125000Y227039D02*
X124220Y226884D01*
X123558Y226442D01*
X123116Y225780D01*
X122961Y225000D01*
X123116Y224220D01*
X123558Y223558D01*
X123878Y223344D01*
Y172953D01*
X123878Y172953D01*
X123964Y172524D01*
X124207Y172160D01*
X130918Y165449D01*
X130879Y165398D01*
X130422Y164295D01*
X130266Y163110D01*
X130422Y161926D01*
X130879Y160822D01*
X131607Y159874D01*
X132554Y159147D01*
X133658Y158690D01*
X134843Y158534D01*
X136027Y158690D01*
X137131Y159147D01*
X138078Y159874D01*
X138806Y160822D01*
X139263Y161926D01*
X139419Y163110D01*
X139263Y164295D01*
X138806Y165398D01*
X138078Y166346D01*
X137131Y167073D01*
X136027Y167531D01*
X134843Y167686D01*
X133658Y167531D01*
X132554Y167073D01*
X132504Y167035D01*
X126122Y173417D01*
Y223344D01*
X126442Y223558D01*
X126884Y224220D01*
X127039Y225000D01*
X126884Y225780D01*
X126442Y226442D01*
X125780Y226884D01*
X125000Y227039D01*
D02*
G37*
G36*
X226000Y149848D02*
Y148000D01*
X227848D01*
X227761Y148436D01*
X227230Y149230D01*
X226436Y149761D01*
X226000Y149848D01*
D02*
G37*
G36*
X225000D02*
X224564Y149761D01*
X223770Y149230D01*
X223239Y148436D01*
X223152Y148000D01*
X225000D01*
Y149848D01*
D02*
G37*
G36*
X348819Y158837D02*
X347378Y158647D01*
X346035Y158090D01*
X344881Y157205D01*
X343996Y156052D01*
X343440Y154709D01*
X343250Y153268D01*
X343440Y151826D01*
X343996Y150483D01*
X344881Y149330D01*
X346035Y148445D01*
X347378Y147889D01*
X348819Y147699D01*
X350260Y147889D01*
X351603Y148445D01*
X352757Y149330D01*
X353642Y150483D01*
X354198Y151826D01*
X354388Y153268D01*
X354198Y154709D01*
X353642Y156052D01*
X352757Y157205D01*
X351603Y158090D01*
X350260Y158647D01*
X348819Y158837D01*
D02*
G37*
G36*
X151181D02*
X149740Y158647D01*
X148397Y158090D01*
X147243Y157205D01*
X146358Y156052D01*
X145802Y154709D01*
X145612Y153268D01*
X145802Y151826D01*
X146358Y150483D01*
X147243Y149330D01*
X148397Y148445D01*
X149740Y147889D01*
X151181Y147699D01*
X152622Y147889D01*
X153966Y148445D01*
X155119Y149330D01*
X156004Y150483D01*
X156560Y151826D01*
X156750Y153268D01*
X156560Y154709D01*
X156004Y156052D01*
X155119Y157205D01*
X153966Y158090D01*
X152622Y158647D01*
X151181Y158837D01*
D02*
G37*
G36*
X392000Y155482D02*
X390816Y155326D01*
X389712Y154869D01*
X388764Y154141D01*
X388037Y153194D01*
X387580Y152090D01*
X387424Y150906D01*
X387580Y149721D01*
X388037Y148617D01*
X388764Y147670D01*
X389712Y146942D01*
X390816Y146485D01*
X392000Y146329D01*
X393184Y146485D01*
X394288Y146942D01*
X395236Y147670D01*
X395963Y148617D01*
X396420Y149721D01*
X396576Y150906D01*
X396420Y152090D01*
X395963Y153194D01*
X395236Y154141D01*
X394288Y154869D01*
X393184Y155326D01*
X392000Y155482D01*
D02*
G37*
G36*
X165748Y131028D02*
X164252D01*
X163726Y130923D01*
X163280Y130625D01*
X162982Y130180D01*
X162878Y129654D01*
Y121701D01*
X162982Y121175D01*
X163280Y120729D01*
X163726Y120431D01*
X164252Y120326D01*
X165748D01*
X166274Y120431D01*
X166720Y120729D01*
X167018Y121175D01*
X167122Y121701D01*
Y129654D01*
X167018Y130180D01*
X166720Y130625D01*
X166274Y130923D01*
X165748Y131028D01*
D02*
G37*
G36*
X149500Y116082D02*
X149252D01*
X148570Y115946D01*
X147992Y115559D01*
X147605Y114981D01*
X147470Y114299D01*
Y110823D01*
X149500D01*
Y116082D01*
D02*
G37*
G36*
X150748D02*
X150500D01*
Y110323D01*
Y104564D01*
X150748D01*
X151430Y104700D01*
X152008Y105086D01*
X152395Y105664D01*
X152449Y105938D01*
X152959D01*
X152982Y105821D01*
X153280Y105375D01*
X153726Y105077D01*
X153878Y105046D01*
Y104000D01*
X153878Y104000D01*
X153964Y103571D01*
X154207Y103207D01*
X155207Y102207D01*
X155207Y102207D01*
X155571Y101964D01*
X156000Y101878D01*
X159000D01*
X159000Y101878D01*
X159429Y101964D01*
X159743Y102173D01*
X160207Y102207D01*
X160571Y101964D01*
X161000Y101878D01*
X169000D01*
X169000Y101878D01*
X169429Y101964D01*
X169793Y102207D01*
X170793Y103207D01*
X170793Y103207D01*
X171036Y103571D01*
X171122Y104000D01*
Y105046D01*
X171274Y105077D01*
X171720Y105375D01*
X172018Y105821D01*
X172123Y106346D01*
Y109878D01*
X175344D01*
X175558Y109558D01*
X176220Y109116D01*
X177000Y108961D01*
X177780Y109116D01*
X178442Y109558D01*
X178884Y110220D01*
X179039Y111000D01*
X178884Y111780D01*
X178442Y112442D01*
X177780Y112884D01*
X177000Y113039D01*
X176220Y112884D01*
X175558Y112442D01*
X175344Y112122D01*
X172123D01*
Y114299D01*
X172018Y114825D01*
X171720Y115271D01*
X171274Y115569D01*
X170748Y115674D01*
X169252D01*
X168726Y115569D01*
X168280Y115271D01*
X167982Y114825D01*
X167877Y114299D01*
Y106346D01*
X167982Y105821D01*
X168280Y105375D01*
X168726Y105077D01*
X168878Y105046D01*
Y104465D01*
X168535Y104122D01*
X161465D01*
X161122Y104465D01*
Y105046D01*
X161274Y105077D01*
X161720Y105375D01*
X162018Y105821D01*
X162122Y106346D01*
Y114299D01*
X162018Y114825D01*
X161720Y115271D01*
X161274Y115569D01*
X160748Y115674D01*
X159252D01*
X158726Y115569D01*
X158280Y115271D01*
X157982Y114825D01*
X157878Y114299D01*
Y106346D01*
X157982Y105821D01*
X158280Y105375D01*
X158726Y105077D01*
X158878Y105046D01*
Y104465D01*
X158535Y104122D01*
X156465D01*
X156122Y104465D01*
Y105046D01*
X156274Y105077D01*
X156720Y105375D01*
X157018Y105821D01*
X157123Y106346D01*
Y114299D01*
X157018Y114825D01*
X156720Y115271D01*
X156274Y115569D01*
X155748Y115674D01*
X154252D01*
X153726Y115569D01*
X153280Y115271D01*
X152982Y114825D01*
X152959Y114708D01*
X152449D01*
X152395Y114981D01*
X152008Y115559D01*
X151430Y115946D01*
X150748Y116082D01*
D02*
G37*
G36*
X165748Y115674D02*
X164252D01*
X163726Y115569D01*
X163280Y115271D01*
X162982Y114825D01*
X162878Y114299D01*
Y106346D01*
X162982Y105821D01*
X163280Y105375D01*
X163726Y105077D01*
X164252Y104972D01*
X165748D01*
X166274Y105077D01*
X166720Y105375D01*
X167018Y105821D01*
X167122Y106346D01*
Y114299D01*
X167018Y114825D01*
X166720Y115271D01*
X166274Y115569D01*
X165748Y115674D01*
D02*
G37*
G36*
X149500Y109823D02*
X147470D01*
Y106346D01*
X147605Y105664D01*
X147992Y105086D01*
X148570Y104700D01*
X149252Y104564D01*
X149500D01*
Y109823D01*
D02*
G37*
G36*
X385000Y129424D02*
X382744Y129246D01*
X380543Y128718D01*
X378452Y127852D01*
X376522Y126669D01*
X374801Y125199D01*
X373331Y123478D01*
X372148Y121548D01*
X371282Y119457D01*
X370754Y117256D01*
X370576Y115000D01*
X370754Y112744D01*
X371282Y110543D01*
X372148Y108452D01*
X373331Y106522D01*
X374801Y104801D01*
X376522Y103331D01*
X378452Y102148D01*
X380543Y101282D01*
X382744Y100754D01*
X385000Y100576D01*
X387256Y100754D01*
X389457Y101282D01*
X391548Y102148D01*
X393478Y103331D01*
X395199Y104801D01*
X396669Y106522D01*
X397852Y108452D01*
X398718Y110543D01*
X399246Y112744D01*
X399424Y115000D01*
X399246Y117256D01*
X398718Y119457D01*
X397852Y121548D01*
X396669Y123478D01*
X395199Y125199D01*
X393478Y126669D01*
X391548Y127852D01*
X389457Y128718D01*
X387256Y129246D01*
X385000Y129424D01*
D02*
G37*
G36*
X115000D02*
X112744Y129246D01*
X110543Y128718D01*
X108452Y127852D01*
X106522Y126669D01*
X104801Y125199D01*
X103331Y123478D01*
X102148Y121548D01*
X101282Y119457D01*
X100754Y117256D01*
X100576Y115000D01*
X100754Y112744D01*
X101282Y110543D01*
X102148Y108452D01*
X103331Y106522D01*
X104801Y104801D01*
X106522Y103331D01*
X108452Y102148D01*
X110543Y101282D01*
X112744Y100754D01*
X115000Y100576D01*
X117256Y100754D01*
X119457Y101282D01*
X121548Y102148D01*
X123478Y103331D01*
X125199Y104801D01*
X126669Y106522D01*
X127852Y108452D01*
X128718Y110543D01*
X129246Y112744D01*
X129424Y115000D01*
X129246Y117256D01*
X128718Y119457D01*
X127852Y121548D01*
X126669Y123478D01*
X125199Y125199D01*
X123478Y126669D01*
X121548Y127852D01*
X119457Y128718D01*
X117256Y129246D01*
X115000Y129424D01*
D02*
G37*
%LPD*%
D14*
X225086Y114586D02*
Y121914D01*
X222000Y125000D02*
X225086Y121914D01*
X222500Y112000D02*
X225086Y114586D01*
X217846Y112000D02*
X222500D01*
X190000D02*
X211154D01*
X225500Y128500D02*
Y147500D01*
X222000Y125000D02*
X225500Y128500D01*
X218917Y125000D02*
X222000D01*
X161000Y301000D02*
X166654D01*
X170000Y111000D02*
X177000D01*
X170000Y104000D02*
Y110323D01*
X169000Y103000D02*
X170000Y104000D01*
X161000Y103000D02*
X169000D01*
X160000Y104000D02*
X161000Y103000D01*
X211154Y112000D02*
X211500Y111653D01*
X146000Y314000D02*
Y323000D01*
X329000Y415500D02*
X363000Y381500D01*
X167500Y415500D02*
X329000D01*
X155000Y403000D02*
X167500Y415500D01*
X314500Y323000D02*
Y349500D01*
X297480Y349520D02*
X297500Y349500D01*
X297480Y349520D02*
Y394528D01*
X363000Y354000D02*
Y381500D01*
X361000Y352000D02*
X363000Y354000D01*
X356921Y352000D02*
X361000D01*
X315000Y314000D02*
X317500Y311500D01*
X300500Y314000D02*
X315000D01*
X297500Y317000D02*
X300500Y314000D01*
X320000Y308000D02*
Y313000D01*
X311000Y322000D02*
X320000Y313000D01*
X311000Y322000D02*
Y343500D01*
X322500Y307500D02*
Y315000D01*
X314500Y323000D02*
X322500Y315000D01*
X305000Y349500D02*
X311000Y343500D01*
X305000Y349500D02*
Y394488D01*
X317408Y302408D02*
X322500Y307500D01*
X312646Y304870D02*
X316870D01*
X320000Y308000D01*
X317500Y308500D02*
Y311500D01*
X316398Y307398D02*
X317500Y308500D01*
X312614Y307398D02*
X316398D01*
X257480Y326520D02*
X267000Y317000D01*
Y309000D02*
Y317000D01*
X265527Y307526D02*
X267000Y309000D01*
X257480Y326520D02*
Y335472D01*
X265000Y324000D02*
X270500Y318500D01*
Y308000D02*
Y318500D01*
X267500Y305000D02*
X270500Y308000D01*
X265000Y324000D02*
Y335433D01*
X217480Y312480D02*
Y335472D01*
X212398Y307398D02*
X217480Y312480D01*
X207614Y307398D02*
X212398D01*
X224961Y316461D02*
Y335472D01*
X214500Y306000D02*
X224961Y316461D01*
X214500Y302000D02*
Y306000D01*
X175500Y314500D02*
X185500Y324500D01*
X175500Y307000D02*
Y314500D01*
Y307000D02*
X177661Y304839D01*
X185500Y324500D02*
Y345000D01*
X189000Y322500D02*
Y343500D01*
X178500Y312000D02*
X189000Y322500D01*
X185500Y345000D02*
X195039Y354539D01*
X189000Y343500D02*
X202500Y357000D01*
Y394508D01*
X195039Y354539D02*
Y394528D01*
X178500Y308500D02*
Y312000D01*
X242500Y394508D02*
X243000Y394008D01*
X242500Y350000D02*
Y392508D01*
X242000Y393008D02*
X242500Y392508D01*
X242000Y393008D02*
X243000Y394008D01*
X232000Y307500D02*
X238283D01*
X238386Y307398D01*
X256043Y309957D02*
X261614D01*
X242520Y323480D02*
X256043Y309957D01*
X242520Y323480D02*
Y335472D01*
X256161Y304839D02*
X261614D01*
X252500Y308500D02*
X256161Y304839D01*
X250000Y308500D02*
X252500D01*
X254221Y302279D02*
X261614D01*
X252000Y304500D02*
X254221Y302279D01*
X267500Y300500D02*
Y305000D01*
X264961Y335472D02*
X265000Y335433D01*
X304500Y317500D02*
Y335012D01*
X304961Y335472D01*
X297500Y317000D02*
Y335453D01*
X282500Y347000D02*
Y394508D01*
X282520Y394528D01*
X275000Y346500D02*
Y394488D01*
X275039Y394528D01*
X265000Y353000D02*
Y394488D01*
X264961Y394528D02*
X265000Y394488D01*
X257480Y394528D02*
X258000Y394008D01*
Y346000D02*
Y394008D01*
X242500Y394508D02*
X242520Y394528D01*
X235000Y346500D02*
Y394488D01*
X235039Y394528D01*
X224500Y345500D02*
Y393988D01*
X225000Y394488D01*
X224961Y394528D02*
X225000Y394488D01*
X217500Y345500D02*
Y392547D01*
X216500Y393547D02*
X217500Y392547D01*
X216500Y393547D02*
X217480Y394528D01*
X198721Y302279D02*
X207614D01*
X195500Y305500D02*
X198721Y302279D01*
X296220D02*
X297500Y301000D01*
X289386Y302279D02*
X296220D01*
X298339Y304839D02*
X300500Y307000D01*
X289386Y304839D02*
X298339D01*
X295449Y307449D02*
X295500Y307500D01*
X289437Y307449D02*
X295449D01*
X289386Y307398D02*
X289437Y307449D01*
X245280Y302279D02*
X247000Y304000D01*
X238386Y302279D02*
X245280D01*
X241839Y304839D02*
X245000Y308000D01*
X238386Y304839D02*
X241839D01*
X202533Y304967D02*
X207485D01*
X200500Y307000D02*
X202533Y304967D01*
X207485D02*
X207614Y304839D01*
X190349Y302151D02*
X190500Y302000D01*
X184515Y302151D02*
X190349D01*
X184386Y302279D02*
X184515Y302151D01*
X312743Y302408D02*
X317408D01*
X312614Y302279D02*
X312743Y302408D01*
X304961Y394528D02*
X305000Y394488D01*
X312614Y304839D02*
X312646Y304870D01*
X179474Y307526D02*
X184257D01*
X178500Y308500D02*
X179474Y307526D01*
X177661Y304839D02*
X184386D01*
X202500Y394508D02*
X202520Y394528D01*
X184257Y307526D02*
X184386Y307398D01*
X180000Y118000D02*
X211000D01*
X217335D02*
X218917Y119583D01*
X211000Y118000D02*
X217335D01*
X218917Y119583D02*
Y122441D01*
X126000Y144500D02*
X149500D01*
X124500Y146000D02*
X126000Y144500D01*
X124500Y146000D02*
Y154555D01*
X149500Y144500D02*
X160000Y134000D01*
X123000Y141000D02*
X147000D01*
X119740Y144260D02*
X123000Y141000D01*
X147000D02*
X155000Y133000D01*
X144500Y137500D02*
X150000Y132000D01*
X116500Y137500D02*
X144500D01*
X112260Y141740D02*
X116500Y137500D01*
X119740Y159315D02*
X124500Y154555D01*
X113500Y134000D02*
X139000D01*
X108500Y139000D02*
X113500Y134000D01*
X108500Y139000D02*
Y155555D01*
X112260Y159315D01*
X217000Y335953D02*
X217480Y335472D01*
X203543Y309957D02*
X207614D01*
X202520Y310980D02*
X203543Y309957D01*
X202520Y310980D02*
Y335472D01*
X261743Y307526D02*
X265527D01*
X261614Y307398D02*
X261743Y307526D01*
X297480Y335472D02*
X297500Y335453D01*
X298043Y309957D02*
X312614D01*
X282520Y325480D02*
X298043Y309957D01*
X282520Y325480D02*
Y335472D01*
X233500Y333933D02*
X235039Y335472D01*
X232587Y333020D02*
X233500Y333933D01*
Y311500D02*
Y333933D01*
Y311500D02*
X235043Y309957D01*
X238386D01*
X283543D02*
X289386D01*
X275039Y318461D02*
X283543Y309957D01*
X275039Y318461D02*
Y335472D01*
X195039Y315039D02*
Y335472D01*
X189957Y309957D02*
X195039Y315039D01*
X184386Y309957D02*
X189957D01*
X297480Y335472D02*
X297500Y335492D01*
X282500D02*
X282520Y335472D01*
X275000Y335512D02*
X275039Y335472D01*
X257480D02*
X257500Y335492D01*
X202500D02*
X202520Y335472D01*
X195000Y335512D02*
X195039Y335472D01*
X240500Y263000D02*
X247000D01*
X195039Y394528D02*
X195500Y394067D01*
X237000Y256000D02*
X323000D01*
X227000Y266000D02*
X237000Y256000D01*
X220346Y266000D02*
X227000D01*
X200500Y258000D02*
X204500Y254000D01*
X196500Y258000D02*
X200500D01*
X194957Y256457D02*
X196500Y258000D01*
X194957Y252386D02*
Y256457D01*
X220346Y254000D02*
Y258000D01*
Y250000D02*
Y254000D01*
X204500D02*
X220346D01*
X207500Y242000D02*
X213653D01*
X207500Y250000D02*
X213653D01*
X220346Y242000D02*
Y250000D01*
X213653Y258000D02*
Y266000D01*
X220346Y250000D02*
X247000D01*
X217154Y224654D02*
X222500Y230000D01*
X230000D01*
X200654Y224654D02*
X217154D01*
X200654D02*
Y230000D01*
X196500Y220500D02*
X200654Y224654D01*
X170500Y220500D02*
X196500D01*
X166000Y225000D02*
X170500Y220500D01*
X139000Y225000D02*
X166000D01*
X125000Y172953D02*
Y225000D01*
Y172953D02*
X134843Y163110D01*
X207000Y230346D02*
Y235000D01*
Y230346D02*
X207347Y230000D01*
X196000D02*
X200654D01*
X192398Y233602D02*
X196000Y230000D01*
X192398Y233602D02*
Y252386D01*
X130000Y287500D02*
X136579D01*
X136653Y287425D01*
X189839Y252386D02*
Y260161D01*
X185500Y264500D02*
X189839Y260161D01*
X169500Y264500D02*
X185500D01*
X146000Y323000D02*
Y323346D01*
X182000Y259000D02*
X184721Y256279D01*
Y252386D02*
Y256279D01*
X169000Y237000D02*
X174653D01*
X169000Y244000D02*
X174653D01*
X181346Y237000D02*
Y244000D01*
X182161Y244815D01*
Y252386D01*
X161500Y287000D02*
X166654D01*
X160500Y288000D02*
X161500Y287000D01*
X160500Y288000D02*
Y291000D01*
X119740Y152753D02*
X120500Y153513D01*
X119740Y148685D02*
Y152753D01*
X120500Y153513D02*
Y154000D01*
X119740Y159315D02*
X119740D01*
X113500Y154000D02*
X116000D01*
X112260Y152760D02*
X113500Y154000D01*
X112260Y148685D02*
Y152760D01*
X296346Y408000D02*
X315500D01*
X256846D02*
X275000D01*
X216846Y408500D02*
X235500D01*
X214000Y288500D02*
Y291000D01*
X212957Y292043D02*
X214000Y291000D01*
X207614Y292043D02*
X212957D01*
X267000Y288500D02*
Y291000D01*
X265957Y292043D02*
X267000Y291000D01*
X261614Y292043D02*
X265957D01*
X318513Y290500D02*
X319000D01*
X316970Y292043D02*
X318513Y290500D01*
X312614Y292043D02*
X316970D01*
X220500Y283000D02*
Y287846D01*
X220654Y288000D01*
Y302000D01*
X273654Y288000D02*
Y302000D01*
X273500Y282500D02*
Y287846D01*
X273654Y288000D01*
X280346Y297153D02*
X282898Y294602D01*
X289386D01*
X280346Y297153D02*
Y302000D01*
X228000Y298500D02*
Y301346D01*
X227346Y302000D02*
X228000Y301346D01*
Y298500D02*
X231898Y294602D01*
X238386D01*
X179744D02*
X184386D01*
X173346Y301000D02*
X179744Y294602D01*
X173346Y287000D02*
X178390Y292043D01*
X184386D01*
X227346Y288000D02*
X231390Y292043D01*
X238386D01*
X280346Y288000D02*
X284390Y292043D01*
X289386D01*
X155000Y337500D02*
Y403000D01*
X146000Y328500D02*
X155000Y337500D01*
X146000Y323346D02*
Y328500D01*
X350228Y352000D02*
X350335Y352106D01*
Y359894D01*
X350441Y360000D01*
X357134D02*
Y368000D01*
X340500Y242846D02*
X340653Y243000D01*
X211083Y122441D02*
Y125000D01*
X211000Y118000D02*
X211041Y118041D01*
Y122400D01*
X211083Y122441D01*
X160000Y125677D02*
Y134000D01*
X139000D02*
X143000Y130000D01*
Y124000D02*
Y130000D01*
Y124000D02*
X149000Y118000D01*
X169000D01*
X170000Y119000D01*
Y125677D01*
X112260Y141740D02*
Y148685D01*
X119740Y144260D02*
Y148685D01*
X116000Y143000D02*
Y148685D01*
X155000Y125677D02*
Y133000D01*
X150000Y125677D02*
Y132000D01*
X155000Y104000D02*
X156000Y103000D01*
X159000D01*
X160000Y104000D01*
Y110323D01*
X155000Y104000D02*
Y110323D01*
X170000D02*
Y111000D01*
D18*
X211083Y127559D02*
Y172917D01*
X189500Y194500D02*
X211083Y172917D01*
X140000Y194500D02*
X189500D01*
X218917Y127559D02*
Y169083D01*
X191000Y197000D02*
X218917Y169083D01*
X141000Y197000D02*
X191000D01*
X203161Y297161D02*
X207614D01*
X202500Y296500D02*
X203161Y297161D01*
X199500Y296500D02*
X202500D01*
X198610Y299610D02*
X207504D01*
X195500Y296500D02*
X198610Y299610D01*
X255000Y294500D02*
X261512D01*
X261614Y294602D01*
X188839Y297161D02*
X190500Y295500D01*
X184386Y297161D02*
X188839D01*
X190500Y293500D02*
Y295500D01*
X185000Y230000D02*
X187279Y232279D01*
X131500Y203000D02*
X140000Y194500D01*
X134000Y238500D02*
X150750Y255250D01*
X134000Y204000D02*
Y238500D01*
Y204000D02*
X141000Y197000D01*
X131500Y251000D02*
Y262000D01*
Y203000D02*
Y251000D01*
X138000D01*
X131500Y262000D02*
X134500Y265000D01*
X148000D01*
X150500Y267500D01*
X150750Y255250D02*
X153500Y258000D01*
X146000Y260000D02*
X150750Y255250D01*
X138000Y260000D02*
X146000D01*
X150500Y275500D02*
X153500Y272500D01*
Y258000D02*
Y272500D01*
X146575Y271425D02*
X150500Y267500D01*
X143347Y271425D02*
X146575D01*
Y279425D02*
X150500Y275500D01*
X143347Y279425D02*
X146575D01*
X163500Y274000D02*
Y276500D01*
Y274000D02*
X168500Y269000D01*
X183000D01*
X184721Y270721D01*
Y275614D01*
X170000Y273500D02*
Y277000D01*
Y273500D02*
X172500Y271000D01*
X181500D01*
X182161Y271661D01*
Y275614D01*
X119500Y167500D02*
Y276000D01*
X117500Y165500D02*
X119500Y167500D01*
X114000Y165500D02*
X117500D01*
X112260Y163760D02*
X114000Y165500D01*
X112260Y159315D02*
Y163760D01*
X119500Y276000D02*
X127000Y283500D01*
X147000D01*
X164500Y266000D01*
Y263000D02*
Y266000D01*
Y263000D02*
X166200Y261300D01*
X184700D01*
X187279Y258720D01*
Y252386D02*
Y258720D01*
X181346Y230000D02*
X185000D01*
X187279Y232279D02*
Y252386D01*
X168500Y230000D02*
X174653D01*
X176000Y283500D02*
X179602Y279898D01*
X157000Y283500D02*
X176000D01*
X143500Y297000D02*
X157000Y283500D01*
X128500Y297000D02*
X143500D01*
X110500Y279000D02*
X128500Y297000D01*
X110500Y170500D02*
Y279000D01*
X131000Y293500D02*
X142000D01*
X115000Y277500D02*
X131000Y293500D01*
X115000Y170500D02*
Y277500D01*
X142000Y293500D02*
X143347Y292154D01*
Y287425D02*
Y292154D01*
X175500Y281000D02*
X177043Y279457D01*
X154500Y281000D02*
X175500D01*
X148075Y287425D02*
X154500Y281000D01*
X179602Y275614D02*
Y279898D01*
X143347Y287425D02*
X148075D01*
X177043Y275614D02*
Y279457D01*
X204102Y294602D02*
X207614D01*
X199000Y289500D02*
X204102Y294602D01*
X189919Y282919D02*
X190000Y283000D01*
X189919Y275695D02*
Y282919D01*
X189839Y275614D02*
X189919Y275695D01*
X207504Y299610D02*
X207614Y299721D01*
X197516Y276050D02*
Y280516D01*
Y275614D02*
Y276050D01*
X197966Y276500D02*
X202000D01*
X197516Y276050D02*
X197966Y276500D01*
X195086Y280334D02*
X195216Y280463D01*
X195086Y275744D02*
Y280334D01*
X194957Y275614D02*
X195086Y275744D01*
X195000Y283500D02*
Y293000D01*
X188279Y299721D02*
X195000Y293000D01*
X184386Y299721D02*
X188279D01*
X244600Y275100D02*
X287494D01*
X243200Y273700D02*
X244600Y275100D01*
X239300Y273700D02*
X243200D01*
X231394Y270500D02*
X236947Y276053D01*
X196000Y270500D02*
X231394D01*
X194957Y271543D02*
X196000Y270500D01*
X194957Y271543D02*
Y275614D01*
X199300Y282300D02*
X203003D01*
X197516Y280516D02*
X199300Y282300D01*
X203003D02*
X209003Y276300D01*
X235497D01*
X238598Y279401D01*
X195000Y283500D02*
X203500D01*
X192398Y280898D02*
X195000Y283500D01*
X192398Y275614D02*
Y280898D01*
X203500Y283500D02*
X209500Y277500D01*
X231500D01*
X232500Y278500D01*
Y284000D01*
X235000Y286500D01*
X239500D01*
X236947Y276053D02*
X250900Y290006D01*
X236947Y276053D02*
X239300Y273700D01*
X242000Y276000D02*
X242300Y276300D01*
X238598Y279401D02*
X249700Y290503D01*
X235500Y282500D02*
X238598Y279401D01*
X248500Y277500D02*
X286500D01*
X245500Y280500D02*
X248500Y277500D01*
X241750Y284250D02*
X248500Y291000D01*
X239500Y286500D02*
X241750Y284250D01*
X250900Y290006D02*
Y295003D01*
X253059Y297161D01*
X261614D01*
X249700Y290503D02*
Y295500D01*
X253921Y299721D01*
X261614D01*
X306500Y292500D02*
X308602Y294602D01*
X312614D01*
X287494Y275100D02*
X298400Y286006D01*
Y294000D01*
X301561Y297161D01*
X312614D01*
X242300Y276300D02*
X286997D01*
X297200Y286503D01*
Y296700D01*
X300220Y299721D01*
X312614D01*
X286500Y277500D02*
X296000Y287000D01*
Y297500D01*
X293779Y299721D02*
X296000Y297500D01*
X289386Y299721D02*
X293779D01*
X248500Y291000D02*
Y296000D01*
X244779Y299721D02*
X248500Y296000D01*
X238386Y299721D02*
X244779D01*
X242839Y297161D02*
X245000Y295000D01*
X238386Y297161D02*
X242839D01*
D19*
X374177Y266000D02*
X374346Y265831D01*
X290000Y368500D02*
Y394528D01*
Y335472D02*
Y368500D01*
X250000D02*
Y393000D01*
Y335472D02*
Y368500D01*
X210000D02*
Y394528D01*
Y335472D02*
Y368500D01*
X129000Y323346D02*
X146000D01*
X337500Y256472D02*
Y388000D01*
X321500Y404000D02*
X337500Y388000D01*
X289827Y404000D02*
X321500D01*
X289827D02*
Y407827D01*
Y394701D02*
Y404000D01*
X250000Y394528D02*
Y408000D01*
X210000Y394528D02*
Y408500D01*
X250000Y408000D02*
X250153D01*
X210000Y408500D02*
X210154D01*
X383000Y181000D02*
Y402000D01*
X368500Y416500D02*
X383000Y402000D01*
X347004Y416500D02*
X368500D01*
X340000Y423504D02*
X347004Y416500D01*
X209603Y211591D02*
X215095D01*
X202500Y204488D02*
X209603Y211591D01*
X215095D02*
X220000Y216496D01*
X289827Y394701D02*
X290000Y394528D01*
X289653Y408000D02*
X289827Y407827D01*
X250000Y393000D02*
X250077Y393077D01*
X337500Y256472D02*
X351012D01*
X323472D02*
X337500D01*
X129000Y356610D02*
Y357850D01*
Y375000D01*
X125685Y378315D02*
X129000Y375000D01*
X116000Y378315D02*
X125685D01*
X145031Y358032D02*
X146000Y359000D01*
X129181Y358032D02*
X145031D01*
X129000Y357850D02*
X129181Y358032D01*
X146000Y378000D02*
Y387500D01*
X135500Y398000D02*
X146000Y387500D01*
X116000Y398000D02*
X135500D01*
X140500Y342000D02*
X146000D01*
X129000Y323346D02*
Y335390D01*
X119000Y323346D02*
Y335390D01*
X107000Y368500D02*
Y389000D01*
X116000Y398000D01*
X107000Y368500D02*
X111000Y364500D01*
X117500D01*
X119000Y363000D01*
Y356610D02*
Y363000D01*
X149603Y211591D02*
X155095D01*
X142500Y204488D02*
X149603Y211591D01*
X155095D02*
X160000Y216496D01*
X164905Y211591D02*
X170397D01*
X177500Y204488D01*
X160000Y216496D02*
X164905Y211591D01*
X177500Y204488D02*
X202500D01*
X224905Y211591D02*
X230397D01*
X237500Y204488D01*
X220000Y216496D02*
X224905Y211591D01*
X269603D02*
X275095D01*
X262500Y204488D02*
X269603Y211591D01*
X275095D02*
X280000Y216496D01*
X284905Y211591D02*
X290397D01*
X297500Y204488D01*
X280000Y216496D02*
X284905Y211591D01*
X297500Y204488D02*
X322500D01*
X329603Y211591D02*
X335095D01*
X322500Y204488D02*
X329603Y211591D01*
X335095D02*
X340000Y216496D01*
X344905Y211591D02*
X350397D01*
X357500Y204488D01*
X340000Y216496D02*
X344905Y211591D01*
X386126Y177874D02*
X392000D01*
X383000Y181000D02*
X386126Y177874D01*
X385500Y170000D02*
X392000D01*
X379000Y176500D02*
X385500Y170000D01*
X379000Y176500D02*
Y217000D01*
X362000Y243000D02*
X367653D01*
X353000D02*
X379000Y217000D01*
X344905Y428409D02*
X350397D01*
X357500Y435512D01*
X340000Y423504D02*
X344905Y428409D01*
X329603D02*
X335095D01*
X322500Y435512D02*
X329603Y428409D01*
X335095D02*
X340000Y423504D01*
X214004Y429500D02*
X220000Y423504D01*
X208512Y429500D02*
X214004D01*
X202500Y435512D02*
X208512Y429500D01*
X231488D02*
X237500Y435512D01*
X225996Y429500D02*
X231488D01*
X220000Y423504D02*
X225996Y429500D01*
X291488D02*
X297500Y435512D01*
X285996Y429500D02*
X291488D01*
X280000Y423504D02*
X285996Y429500D01*
X274004D02*
X280000Y423504D01*
X268512Y429500D02*
X274004D01*
X262500Y435512D02*
X268512Y429500D01*
X237500Y435512D02*
X262500D01*
X343000Y297000D02*
Y302500D01*
X374516Y266000D02*
X375000Y266484D01*
Y297000D01*
X351539Y275000D02*
X359500D01*
X351484Y275055D02*
X351539Y275000D01*
X351484Y266000D02*
X374177D01*
X374346Y243000D02*
Y265831D01*
X351012Y256472D02*
X351484Y256945D01*
X323000Y256000D02*
X323472Y256472D01*
X340500Y237500D02*
Y242846D01*
X351484Y256945D02*
X353000Y255429D01*
Y243000D02*
Y255429D01*
X347346Y243000D02*
X353000D01*
D43*
X119740Y159315D02*
D03*
X116000D02*
D03*
X112260D02*
D03*
X119740Y148685D02*
D03*
X116000D02*
D03*
X112260D02*
D03*
D44*
X374516Y266000D02*
D03*
D45*
X351484Y256945D02*
D03*
Y266000D02*
D03*
Y275055D02*
D03*
D46*
X215000Y125000D02*
D03*
D47*
X218917Y122441D02*
D03*
Y125000D02*
D03*
Y127559D02*
D03*
X211083Y122441D02*
D03*
Y125000D02*
D03*
Y127559D02*
D03*
D48*
X174484Y252386D02*
D03*
X177043D02*
D03*
X179602D02*
D03*
X182161D02*
D03*
X184721D02*
D03*
X187279D02*
D03*
X189839D02*
D03*
X192398D02*
D03*
X194957D02*
D03*
X197516D02*
D03*
X174484Y275614D02*
D03*
X177043D02*
D03*
X179602D02*
D03*
X182161D02*
D03*
X184721D02*
D03*
X187279D02*
D03*
X189839D02*
D03*
X192398D02*
D03*
X194957D02*
D03*
X197516D02*
D03*
D49*
X119000Y335390D02*
D03*
Y356610D02*
D03*
X129000Y335390D02*
D03*
Y356610D02*
D03*
D50*
X289386Y309957D02*
D03*
Y307398D02*
D03*
Y304839D02*
D03*
Y302279D02*
D03*
Y299721D02*
D03*
Y297161D02*
D03*
Y294602D02*
D03*
Y292043D02*
D03*
X312614Y309957D02*
D03*
Y307398D02*
D03*
Y304839D02*
D03*
Y302279D02*
D03*
Y299721D02*
D03*
Y297161D02*
D03*
Y294602D02*
D03*
Y292043D02*
D03*
X238386Y309957D02*
D03*
Y307398D02*
D03*
Y304839D02*
D03*
Y302279D02*
D03*
Y299721D02*
D03*
Y297161D02*
D03*
Y294602D02*
D03*
Y292043D02*
D03*
X261614Y309957D02*
D03*
Y307398D02*
D03*
Y304839D02*
D03*
Y302279D02*
D03*
Y299721D02*
D03*
Y297161D02*
D03*
Y294602D02*
D03*
Y292043D02*
D03*
X184386Y309957D02*
D03*
Y307398D02*
D03*
Y304839D02*
D03*
Y302279D02*
D03*
Y299721D02*
D03*
Y297161D02*
D03*
Y294602D02*
D03*
Y292043D02*
D03*
X207614Y309957D02*
D03*
Y307398D02*
D03*
Y304839D02*
D03*
Y302279D02*
D03*
Y299721D02*
D03*
Y297161D02*
D03*
Y294602D02*
D03*
Y292043D02*
D03*
D51*
X247000Y250000D02*
D03*
X375000Y297000D02*
D03*
X323000Y256000D02*
D03*
X138000Y260000D02*
D03*
Y251000D02*
D03*
X230000Y230000D02*
D03*
X343000Y297000D02*
D03*
X247000Y263000D02*
D03*
D52*
X146000Y323000D02*
D03*
Y359000D02*
D03*
Y378000D02*
D03*
Y342000D02*
D03*
D53*
X213653Y250000D02*
D03*
X220346D02*
D03*
Y258000D02*
D03*
X213653D02*
D03*
Y266000D02*
D03*
X220346D02*
D03*
X136653Y287425D02*
D03*
X143347D02*
D03*
Y279425D02*
D03*
X136653D02*
D03*
X143347Y271425D02*
D03*
X136653D02*
D03*
X350228Y352000D02*
D03*
X356921D02*
D03*
X357134Y360000D02*
D03*
X350441D02*
D03*
X280346Y302000D02*
D03*
X273654D02*
D03*
X227346D02*
D03*
X220654D02*
D03*
X173346Y301000D02*
D03*
X166654D02*
D03*
X350441Y368000D02*
D03*
X357134D02*
D03*
X213653Y242000D02*
D03*
X220346D02*
D03*
X367653Y243000D02*
D03*
X374346D02*
D03*
X340653D02*
D03*
X347346D02*
D03*
X174653Y244000D02*
D03*
X181346D02*
D03*
X174653Y237000D02*
D03*
X181346D02*
D03*
X211154Y112000D02*
D03*
X217846D02*
D03*
X181346Y230000D02*
D03*
X174653D02*
D03*
X207347D02*
D03*
X200654D02*
D03*
X296346Y408000D02*
D03*
X289653D02*
D03*
X256846D02*
D03*
X250153D02*
D03*
X216846Y408500D02*
D03*
X210154D02*
D03*
X273654Y288000D02*
D03*
X280346D02*
D03*
X220654D02*
D03*
X227346D02*
D03*
X166654Y287000D02*
D03*
X173346D02*
D03*
D54*
X129000Y323346D02*
D03*
Y316653D02*
D03*
X119000D02*
D03*
Y323346D02*
D03*
D55*
X290000Y335472D02*
D03*
Y394528D02*
D03*
X297480D02*
D03*
Y335472D02*
D03*
X282520Y394528D02*
D03*
Y335472D02*
D03*
X304961Y394528D02*
D03*
Y335472D02*
D03*
X275039Y394528D02*
D03*
Y335472D02*
D03*
X250000D02*
D03*
Y394528D02*
D03*
X257480D02*
D03*
Y335472D02*
D03*
X242520Y394528D02*
D03*
Y335472D02*
D03*
X264961Y394528D02*
D03*
Y335472D02*
D03*
X235039Y394528D02*
D03*
Y335472D02*
D03*
X210000D02*
D03*
Y394528D02*
D03*
X217480D02*
D03*
Y335472D02*
D03*
X202520Y394528D02*
D03*
Y335472D02*
D03*
X224961Y394528D02*
D03*
Y335472D02*
D03*
X195039Y394528D02*
D03*
Y335472D02*
D03*
D56*
X150000Y110323D02*
D03*
X155000D02*
D03*
X160000D02*
D03*
X165000D02*
D03*
X170000D02*
D03*
X150000Y125677D02*
D03*
X155000D02*
D03*
X160000D02*
D03*
X165000D02*
D03*
X170000D02*
D03*
D57*
X392000Y162126D02*
D03*
Y177874D02*
D03*
Y170000D02*
D03*
D58*
Y150906D02*
D03*
Y189094D02*
D03*
X365158Y176890D02*
D03*
X134843Y163110D02*
D03*
Y176890D02*
D03*
X116000Y398000D02*
D03*
X142500Y204488D02*
D03*
X177500Y435512D02*
D03*
X142500D02*
D03*
X177500Y204488D02*
D03*
X160000Y216496D02*
D03*
Y423504D02*
D03*
X237500Y435512D02*
D03*
X202500Y204488D02*
D03*
X237500D02*
D03*
X202500Y435512D02*
D03*
X220000Y423504D02*
D03*
Y216496D02*
D03*
X262500Y204488D02*
D03*
X297500Y435512D02*
D03*
X262500D02*
D03*
X297500Y204488D02*
D03*
X280000Y216496D02*
D03*
Y423504D02*
D03*
X357500Y435512D02*
D03*
X322500Y204488D02*
D03*
X357500D02*
D03*
X322500Y435512D02*
D03*
X340000Y423504D02*
D03*
Y216496D02*
D03*
D59*
X348819Y153268D02*
D03*
X151181D02*
D03*
X155905Y186732D02*
D03*
X344094D02*
D03*
D60*
X385000Y115000D02*
D03*
X115000D02*
D03*
Y435000D02*
D03*
X385000D02*
D03*
D61*
X116000Y378315D02*
D03*
D62*
X190000Y112000D02*
D03*
X225500Y147500D02*
D03*
X161000Y301000D02*
D03*
X290000Y368500D02*
D03*
X250000D02*
D03*
X210000D02*
D03*
X146000Y314000D02*
D03*
X314500Y349500D02*
D03*
X297500D02*
D03*
X242500Y350000D02*
D03*
X232000Y307500D02*
D03*
X252000Y304500D02*
D03*
X250000Y308500D02*
D03*
X267500Y300500D02*
D03*
X304500Y317500D02*
D03*
X282500Y347000D02*
D03*
X275000Y346500D02*
D03*
X265000Y353000D02*
D03*
X258000Y346000D02*
D03*
X235000Y346500D02*
D03*
X224500Y345500D02*
D03*
X217500D02*
D03*
X214500Y302000D02*
D03*
X195500Y305500D02*
D03*
X297500Y301000D02*
D03*
X300500Y307000D02*
D03*
X295500Y307500D02*
D03*
X247000Y304000D02*
D03*
X245000Y308000D02*
D03*
X200500Y307000D02*
D03*
X190500Y302000D02*
D03*
X180000Y118000D02*
D03*
X240500Y263000D02*
D03*
X199500Y296500D02*
D03*
X195500D02*
D03*
X255000Y294500D02*
D03*
X190500Y293500D02*
D03*
X207500Y242000D02*
D03*
Y250000D02*
D03*
X139000Y225000D02*
D03*
X125000D02*
D03*
X207000Y235000D02*
D03*
X150500Y267500D02*
D03*
Y275500D02*
D03*
X163500Y276500D02*
D03*
X170000Y277000D02*
D03*
X130000Y287500D02*
D03*
X169500Y264500D02*
D03*
X182000Y259000D02*
D03*
X169000Y237000D02*
D03*
X168500Y230000D02*
D03*
X169000Y244000D02*
D03*
X160500Y291000D02*
D03*
X115000Y170500D02*
D03*
X110500D02*
D03*
X120500Y154000D02*
D03*
X116000D02*
D03*
X199000Y289500D02*
D03*
X190000Y283000D02*
D03*
X202000Y276500D02*
D03*
X195216Y280463D02*
D03*
X242000Y276000D02*
D03*
X235500Y282500D02*
D03*
X245500Y280500D02*
D03*
X239500Y286500D02*
D03*
X306500Y292500D02*
D03*
X245000Y295000D02*
D03*
X315500Y408000D02*
D03*
X275000D02*
D03*
X235500Y408500D02*
D03*
X214000Y288500D02*
D03*
X267000D02*
D03*
X319000Y290500D02*
D03*
X220500Y283000D02*
D03*
X273500Y282500D02*
D03*
X140500Y342000D02*
D03*
X362000Y243000D02*
D03*
X343000Y302500D02*
D03*
X359500Y275000D02*
D03*
X340500Y237500D02*
D03*
X116000Y143000D02*
D03*
X177000Y111000D02*
D03*
M02*
